<mxfile host="app.diagrams.net" modified="2023-07-15T09:09:44.841Z" agent="Mozilla/5.0 (Macintosh; Intel Mac OS X 10.15; rv:109.0) Gecko/20100101 Firefox/115.0" etag="RUZ9AqpQsED9FIX8O6WA" version="21.6.1">
  <diagram name="Page-1" id="k4kyn-NcHoIvo_Pr5yZM">
    <mxGraphModel dx="1194" dy="639" grid="1" gridSize="10" guides="1" tooltips="1" connect="1" arrows="1" fold="1" page="1" pageScale="1" pageWidth="850" pageHeight="1100" math="0" shadow="0">
      <root>
        <mxCell id="0" />
        <mxCell id="1" parent="0" />
        <mxCell id="yJn59ZeG1h24RHHP3LN4-1" value="&lt;br&gt;&lt;br&gt;&lt;br&gt;&lt;br&gt;&lt;br&gt;&lt;br&gt;&lt;br&gt;&lt;br&gt;&lt;br&gt;&lt;br&gt;&lt;br&gt;&lt;br&gt;&lt;br&gt;&lt;br&gt;&lt;br&gt;&lt;br&gt;&amp;nbsp;&amp;nbsp; &lt;span style=&quot;&quot;&gt;&lt;span style=&quot;&quot;&gt;&amp;nbsp;&amp;nbsp;&amp;nbsp;&amp;nbsp;&lt;/span&gt;&lt;/span&gt;&lt;span style=&quot;&quot;&gt;&lt;span style=&quot;&quot;&gt;&amp;nbsp;&amp;nbsp;&amp;nbsp;&amp;nbsp;&lt;/span&gt;&lt;/span&gt;&lt;span style=&quot;&quot;&gt;&lt;span style=&quot;&quot;&gt;&amp;nbsp;&amp;nbsp;&amp;nbsp;&amp;nbsp;&lt;/span&gt;&lt;/span&gt;&lt;span style=&quot;&quot;&gt;&lt;span style=&quot;&quot;&gt;&amp;nbsp;&amp;nbsp;&amp;nbsp;&amp;nbsp;&lt;/span&gt;&lt;/span&gt;&lt;span style=&quot;&quot;&gt;&lt;span style=&quot;&quot;&gt;&amp;nbsp;&amp;nbsp;&amp;nbsp;&amp;nbsp;&lt;/span&gt;&lt;/span&gt;&lt;span style=&quot;&quot;&gt;&lt;span style=&quot;&quot;&gt;&amp;nbsp;&amp;nbsp;&amp;nbsp;&amp;nbsp;&lt;/span&gt;&lt;/span&gt;&lt;span style=&quot;&quot;&gt;&lt;span style=&quot;&quot;&gt;&amp;nbsp;&amp;nbsp;&amp;nbsp;&amp;nbsp;&lt;/span&gt;&lt;/span&gt;&lt;span style=&quot;&quot;&gt;&lt;span style=&quot;&quot;&gt;&amp;nbsp;&amp;nbsp;&amp;nbsp;&amp;nbsp;&lt;/span&gt;&lt;/span&gt;&lt;span style=&quot;&quot;&gt;&lt;span style=&quot;&quot;&gt;&amp;nbsp;&amp;nbsp;&amp;nbsp;&amp;nbsp;&amp;nbsp;&amp;nbsp;&amp;nbsp;&amp;nbsp;&amp;nbsp;&amp;nbsp;&amp;nbsp;&amp;nbsp;&amp;nbsp;&amp;nbsp;&amp;nbsp;&amp;nbsp;&amp;nbsp;&amp;nbsp;&amp;nbsp;&amp;nbsp;&amp;nbsp;&amp;nbsp;&amp;nbsp;&amp;nbsp;&amp;nbsp;&amp;nbsp;&amp;nbsp;&amp;nbsp;&amp;nbsp;&amp;nbsp;&amp;nbsp;&amp;nbsp;&amp;nbsp;&amp;nbsp;&amp;nbsp;&amp;nbsp;&amp;nbsp;&amp;nbsp;&amp;nbsp;&amp;nbsp;&amp;nbsp;&amp;nbsp;&amp;nbsp;&amp;nbsp;&amp;nbsp;&amp;nbsp;&amp;nbsp;&amp;nbsp;&amp;nbsp; &lt;/span&gt;&lt;/span&gt;&lt;font style=&quot;font-size: 17px;&quot;&gt;Kubernetes cluster&lt;/font&gt;&lt;br&gt;" style="rounded=1;whiteSpace=wrap;html=1;gradientColor=none;fillColor=default;strokeWidth=2;" vertex="1" parent="1">
          <mxGeometry x="140" y="230" width="520" height="270" as="geometry" />
        </mxCell>
        <mxCell id="yJn59ZeG1h24RHHP3LN4-2" value="&lt;div&gt;&amp;nbsp;&amp;nbsp;&amp;nbsp;&amp;nbsp;&amp;nbsp;&amp;nbsp;&amp;nbsp;&amp;nbsp;&amp;nbsp;&amp;nbsp;&amp;nbsp;&amp;nbsp;&amp;nbsp;&amp;nbsp;&amp;nbsp;&amp;nbsp;&amp;nbsp;&amp;nbsp;&amp;nbsp;&amp;nbsp;&amp;nbsp;&amp;nbsp;&amp;nbsp;&amp;nbsp;&amp;nbsp;&amp;nbsp;&amp;nbsp;&amp;nbsp;&amp;nbsp;&amp;nbsp;&amp;nbsp;&lt;/div&gt;&lt;div&gt;&amp;nbsp;&amp;nbsp;&amp;nbsp;&amp;nbsp;&amp;nbsp;&amp;nbsp;&amp;nbsp;&amp;nbsp;&amp;nbsp;&amp;nbsp;&amp;nbsp;&amp;nbsp;&amp;nbsp;&amp;nbsp;&amp;nbsp;&amp;nbsp;&amp;nbsp;&amp;nbsp;&amp;nbsp;&amp;nbsp;&amp;nbsp;&amp;nbsp;&amp;nbsp;&amp;nbsp;&amp;nbsp;&amp;nbsp;&amp;nbsp;&amp;nbsp;&amp;nbsp;&amp;nbsp;&amp;nbsp;&amp;nbsp;&amp;nbsp;&amp;nbsp;&amp;nbsp;&amp;nbsp; Raspberry Pi&lt;/div&gt;&lt;div&gt;&amp;nbsp;&amp;nbsp;&amp;nbsp;&amp;nbsp;&amp;nbsp;&amp;nbsp;&amp;nbsp;&amp;nbsp;&amp;nbsp;&amp;nbsp;&amp;nbsp;&amp;nbsp;&amp;nbsp;&amp;nbsp;&amp;nbsp;&amp;nbsp;&amp;nbsp;&amp;nbsp;&amp;nbsp;&amp;nbsp;&amp;nbsp;&amp;nbsp;&amp;nbsp;&amp;nbsp;&amp;nbsp;&amp;nbsp;&amp;nbsp;&amp;nbsp;&amp;nbsp;&amp;nbsp;&amp;nbsp;&amp;nbsp;&amp;nbsp;&amp;nbsp;&amp;nbsp;&amp;nbsp; Master node&lt;br&gt;&lt;/div&gt;" style="rounded=1;whiteSpace=wrap;html=1;fillColor=default;" vertex="1" parent="1">
          <mxGeometry x="160" y="250" width="200" height="100" as="geometry" />
        </mxCell>
        <mxCell id="yJn59ZeG1h24RHHP3LN4-5" value="&amp;nbsp;&amp;nbsp; &lt;br&gt;&lt;div&gt;&amp;nbsp;&amp;nbsp;&amp;nbsp;&amp;nbsp;&amp;nbsp;&amp;nbsp;&amp;nbsp;&amp;nbsp;&amp;nbsp;&amp;nbsp;&amp;nbsp;&amp;nbsp;&amp;nbsp;&amp;nbsp;&amp;nbsp;&amp;nbsp;&amp;nbsp;&amp;nbsp;&amp;nbsp;&amp;nbsp;&amp;nbsp;&amp;nbsp;&amp;nbsp;&amp;nbsp;&amp;nbsp;&amp;nbsp;&amp;nbsp;&amp;nbsp;&amp;nbsp;&amp;nbsp;&amp;nbsp;&amp;nbsp;&amp;nbsp;&amp;nbsp;&amp;nbsp;&amp;nbsp; &lt;br&gt;&lt;br&gt;&amp;nbsp;&amp;nbsp;&amp;nbsp;&amp;nbsp;&amp;nbsp;&amp;nbsp;&amp;nbsp;&amp;nbsp;&amp;nbsp;&amp;nbsp;&amp;nbsp;&amp;nbsp;&amp;nbsp;&amp;nbsp;&amp;nbsp;&amp;nbsp;&amp;nbsp;&amp;nbsp;&amp;nbsp;&amp;nbsp;&amp;nbsp;&amp;nbsp;&amp;nbsp;&amp;nbsp;&amp;nbsp;&amp;nbsp;&amp;nbsp;&amp;nbsp;&amp;nbsp;&amp;nbsp;&amp;nbsp;&amp;nbsp;&amp;nbsp;&amp;nbsp;&amp;nbsp;&amp;nbsp; Raspberry Pi&lt;/div&gt;&lt;div&gt;&amp;nbsp;&amp;nbsp;&amp;nbsp;&amp;nbsp;&amp;nbsp;&amp;nbsp;&amp;nbsp;&amp;nbsp;&amp;nbsp;&amp;nbsp;&amp;nbsp;&amp;nbsp;&amp;nbsp;&amp;nbsp;&amp;nbsp;&amp;nbsp;&amp;nbsp;&amp;nbsp;&amp;nbsp;&amp;nbsp;&amp;nbsp;&amp;nbsp;&amp;nbsp;&amp;nbsp;&amp;nbsp;&amp;nbsp;&amp;nbsp;&amp;nbsp;&amp;nbsp;&amp;nbsp;&amp;nbsp;&amp;nbsp;&amp;nbsp;&amp;nbsp;&amp;nbsp;&amp;nbsp; Agent node&lt;br&gt;&lt;/div&gt;" style="rounded=1;whiteSpace=wrap;html=1;fillColor=default;" vertex="1" parent="1">
          <mxGeometry x="160" y="380" width="200" height="100" as="geometry" />
        </mxCell>
        <mxCell id="yJn59ZeG1h24RHHP3LN4-6" value="&amp;nbsp;&amp;nbsp;&amp;nbsp;&amp;nbsp;&amp;nbsp;&amp;nbsp; pAIR" style="rounded=1;whiteSpace=wrap;html=1;" vertex="1" parent="1">
          <mxGeometry x="170" y="270" width="90" height="30" as="geometry" />
        </mxCell>
        <mxCell id="yJn59ZeG1h24RHHP3LN4-9" value="&lt;div&gt;&amp;nbsp;&amp;nbsp;&amp;nbsp;&amp;nbsp;&amp;nbsp;&amp;nbsp;&amp;nbsp;&amp;nbsp;&amp;nbsp;&amp;nbsp;&amp;nbsp;&amp;nbsp;&amp;nbsp;&amp;nbsp;&amp;nbsp;&amp;nbsp;&amp;nbsp;&amp;nbsp;&amp;nbsp;&amp;nbsp;&amp;nbsp;&amp;nbsp;&amp;nbsp;&amp;nbsp;&amp;nbsp;&amp;nbsp;&lt;/div&gt;&lt;div&gt;&amp;nbsp;&amp;nbsp;&amp;nbsp;&amp;nbsp;&amp;nbsp;&amp;nbsp;&amp;nbsp;&amp;nbsp;&amp;nbsp;&amp;nbsp;&amp;nbsp;&amp;nbsp;&amp;nbsp;&amp;nbsp;&amp;nbsp;&amp;nbsp;&amp;nbsp;&amp;nbsp;&amp;nbsp;&amp;nbsp;&amp;nbsp;&amp;nbsp;&amp;nbsp;&amp;nbsp;&amp;nbsp; K3S&lt;/div&gt;" style="rounded=1;whiteSpace=wrap;html=1;fillColor=default;" vertex="1" parent="1">
          <mxGeometry x="430" y="250" width="190" height="100" as="geometry" />
        </mxCell>
        <mxCell id="yJn59ZeG1h24RHHP3LN4-14" value="&amp;nbsp;&amp;nbsp;&amp;nbsp;&amp;nbsp;&amp;nbsp;&amp;nbsp; Flux" style="rounded=1;whiteSpace=wrap;html=1;" vertex="1" parent="1">
          <mxGeometry x="170" y="310" width="90" height="30" as="geometry" />
        </mxCell>
        <mxCell id="yJn59ZeG1h24RHHP3LN4-17" value="&lt;div align=&quot;center&quot;&gt;&amp;nbsp;&amp;nbsp;&amp;nbsp;&amp;nbsp;&amp;nbsp;&amp;nbsp; Flux System&amp;nbsp;&amp;nbsp;&amp;nbsp;&amp;nbsp; Repo&lt;/div&gt;" style="rounded=1;whiteSpace=wrap;html=1;align=center;" vertex="1" parent="1">
          <mxGeometry x="10" y="295" width="120" height="60" as="geometry" />
        </mxCell>
        <mxCell id="yJn59ZeG1h24RHHP3LN4-18" value="&lt;div&gt;&amp;nbsp;&amp;nbsp;&amp;nbsp;&amp;nbsp;&amp;nbsp;&amp;nbsp;&amp;nbsp;&amp;nbsp; pAIR Github&lt;/div&gt;&lt;div&gt;&amp;nbsp;&amp;nbsp;&amp;nbsp;&amp;nbsp;&amp;nbsp;&amp;nbsp;&amp;nbsp; Repo with &lt;br&gt;&lt;/div&gt;&lt;div&gt;&amp;nbsp;&amp;nbsp;&amp;nbsp;&amp;nbsp;&amp;nbsp;&amp;nbsp;&amp;nbsp; Helm Chart&lt;/div&gt;" style="rounded=1;whiteSpace=wrap;html=1;" vertex="1" parent="1">
          <mxGeometry x="720" y="540" width="120" height="60" as="geometry" />
        </mxCell>
        <mxCell id="yJn59ZeG1h24RHHP3LN4-19" value="&amp;nbsp;&amp;nbsp;&amp;nbsp; moOde Player" style="rounded=1;whiteSpace=wrap;html=1;" vertex="1" parent="1">
          <mxGeometry x="120" y="65" width="160" height="65" as="geometry" />
        </mxCell>
        <mxCell id="yJn59ZeG1h24RHHP3LN4-21" value="&amp;nbsp;&amp;nbsp;&amp;nbsp;&amp;nbsp;&amp;nbsp;&amp;nbsp;&amp;nbsp; OpenAI API" style="rounded=1;whiteSpace=wrap;html=1;" vertex="1" parent="1">
          <mxGeometry x="325" y="65" width="130" height="65" as="geometry" />
        </mxCell>
        <mxCell id="yJn59ZeG1h24RHHP3LN4-25" value="&lt;div&gt;&amp;nbsp;&amp;nbsp;&amp;nbsp;&amp;nbsp;&amp;nbsp;&amp;nbsp;&amp;nbsp;&amp;nbsp; Github Actions&lt;/div&gt;" style="rounded=1;whiteSpace=wrap;html=1;" vertex="1" parent="1">
          <mxGeometry x="530" y="540" width="120" height="60" as="geometry" />
        </mxCell>
        <mxCell id="yJn59ZeG1h24RHHP3LN4-27" value="" style="endArrow=classic;html=1;rounded=0;entryX=0;entryY=0.5;entryDx=0;entryDy=0;exitX=1;exitY=0.5;exitDx=0;exitDy=0;" edge="1" parent="1">
          <mxGeometry width="50" height="50" relative="1" as="geometry">
            <mxPoint x="130" y="324.5" as="sourcePoint" />
            <mxPoint x="170" y="324.5" as="targetPoint" />
          </mxGeometry>
        </mxCell>
        <mxCell id="yJn59ZeG1h24RHHP3LN4-29" value="" style="endArrow=classic;html=1;rounded=0;entryX=0;entryY=0.75;entryDx=0;entryDy=0;exitX=0.996;exitY=0.833;exitDx=0;exitDy=0;exitPerimeter=0;" edge="1" parent="1">
          <mxGeometry width="50" height="50" relative="1" as="geometry">
            <mxPoint x="259.64" y="324.5" as="sourcePoint" />
            <mxPoint x="430" y="324.51" as="targetPoint" />
          </mxGeometry>
        </mxCell>
        <mxCell id="yJn59ZeG1h24RHHP3LN4-37" value="" style="endArrow=classic;startArrow=classic;html=1;rounded=0;exitX=0.75;exitY=0;exitDx=0;exitDy=0;entryX=0.5;entryY=1;entryDx=0;entryDy=0;" edge="1" parent="1" source="yJn59ZeG1h24RHHP3LN4-6" target="yJn59ZeG1h24RHHP3LN4-21">
          <mxGeometry width="50" height="50" relative="1" as="geometry">
            <mxPoint x="340" y="380" as="sourcePoint" />
            <mxPoint x="390" y="330" as="targetPoint" />
          </mxGeometry>
        </mxCell>
        <mxCell id="yJn59ZeG1h24RHHP3LN4-38" value="" style="endArrow=classic;html=1;rounded=0;exitX=0.5;exitY=1;exitDx=0;exitDy=0;" edge="1" parent="1" source="yJn59ZeG1h24RHHP3LN4-19">
          <mxGeometry width="50" height="50" relative="1" as="geometry">
            <mxPoint x="240" y="210" as="sourcePoint" />
            <mxPoint x="200" y="270" as="targetPoint" />
          </mxGeometry>
        </mxCell>
        <mxCell id="yJn59ZeG1h24RHHP3LN4-39" value="" style="endArrow=classic;html=1;rounded=0;exitX=0.5;exitY=0;exitDx=0;exitDy=0;entryX=1;entryY=0.5;entryDx=0;entryDy=0;" edge="1" parent="1" source="yJn59ZeG1h24RHHP3LN4-51" target="yJn59ZeG1h24RHHP3LN4-6">
          <mxGeometry width="50" height="50" relative="1" as="geometry">
            <mxPoint x="480.00000000000006" y="538.02" as="sourcePoint" />
            <mxPoint x="480" y="350" as="targetPoint" />
            <Array as="points">
              <mxPoint x="400" y="285" />
            </Array>
          </mxGeometry>
        </mxCell>
        <mxCell id="yJn59ZeG1h24RHHP3LN4-41" value="" style="endArrow=classic;startArrow=classic;html=1;rounded=0;exitX=1;exitY=0.25;exitDx=0;exitDy=0;entryX=0;entryY=0.5;entryDx=0;entryDy=0;" edge="1" parent="1" source="yJn59ZeG1h24RHHP3LN4-6" target="yJn59ZeG1h24RHHP3LN4-60">
          <mxGeometry width="50" height="50" relative="1" as="geometry">
            <mxPoint x="460" y="190" as="sourcePoint" />
            <mxPoint x="510" y="140" as="targetPoint" />
          </mxGeometry>
        </mxCell>
        <mxCell id="yJn59ZeG1h24RHHP3LN4-44" value="" style="rounded=1;whiteSpace=wrap;html=1;" vertex="1" parent="1">
          <mxGeometry x="720" y="10" width="120" height="60" as="geometry" />
        </mxCell>
        <mxCell id="yJn59ZeG1h24RHHP3LN4-45" value="" style="endArrow=classic;html=1;rounded=0;exitX=0.5;exitY=1;exitDx=0;exitDy=0;entryX=0.5;entryY=0;entryDx=0;entryDy=0;" edge="1" parent="1" source="yJn59ZeG1h24RHHP3LN4-44" target="yJn59ZeG1h24RHHP3LN4-18">
          <mxGeometry width="50" height="50" relative="1" as="geometry">
            <mxPoint x="710" y="250" as="sourcePoint" />
            <mxPoint x="760" y="530" as="targetPoint" />
          </mxGeometry>
        </mxCell>
        <mxCell id="yJn59ZeG1h24RHHP3LN4-46" value="" style="endArrow=classic;html=1;rounded=0;exitX=0;exitY=0.75;exitDx=0;exitDy=0;entryX=1;entryY=0.25;entryDx=0;entryDy=0;" edge="1" parent="1" source="yJn59ZeG1h24RHHP3LN4-72">
          <mxGeometry width="50" height="50" relative="1" as="geometry">
            <mxPoint x="700" y="80" as="sourcePoint" />
            <mxPoint x="585" y="76.25" as="targetPoint" />
          </mxGeometry>
        </mxCell>
        <mxCell id="yJn59ZeG1h24RHHP3LN4-47" value="" style="endArrow=classic;html=1;rounded=0;exitX=0;exitY=0.5;exitDx=0;exitDy=0;entryX=0.5;entryY=0;entryDx=0;entryDy=0;" edge="1" parent="1" source="yJn59ZeG1h24RHHP3LN4-44" target="yJn59ZeG1h24RHHP3LN4-19">
          <mxGeometry width="50" height="50" relative="1" as="geometry">
            <mxPoint x="400" y="380" as="sourcePoint" />
            <mxPoint x="450" y="330" as="targetPoint" />
            <Array as="points">
              <mxPoint x="200" y="40" />
            </Array>
          </mxGeometry>
        </mxCell>
        <mxCell id="yJn59ZeG1h24RHHP3LN4-48" value="&lt;div&gt;&amp;nbsp;k3sup (kubectl)&lt;/div&gt;&lt;div&gt;&lt;br&gt;&lt;/div&gt;" style="rounded=1;whiteSpace=wrap;html=1;" vertex="1" parent="1">
          <mxGeometry x="640" y="157.5" width="110" height="55" as="geometry" />
        </mxCell>
        <mxCell id="yJn59ZeG1h24RHHP3LN4-49" value="" style="endArrow=classic;html=1;rounded=0;exitX=0.25;exitY=1;exitDx=0;exitDy=0;entryX=0.539;entryY=-0.009;entryDx=0;entryDy=0;entryPerimeter=0;" edge="1" parent="1" source="yJn59ZeG1h24RHHP3LN4-44" target="yJn59ZeG1h24RHHP3LN4-48">
          <mxGeometry width="50" height="50" relative="1" as="geometry">
            <mxPoint x="500" y="240" as="sourcePoint" />
            <mxPoint x="550" y="190" as="targetPoint" />
          </mxGeometry>
        </mxCell>
        <mxCell id="yJn59ZeG1h24RHHP3LN4-50" value="" style="endArrow=classic;html=1;rounded=0;entryX=1;entryY=0.75;entryDx=0;entryDy=0;exitX=0.411;exitY=1.009;exitDx=0;exitDy=0;exitPerimeter=0;" edge="1" parent="1" target="yJn59ZeG1h24RHHP3LN4-9">
          <mxGeometry width="50" height="50" relative="1" as="geometry">
            <mxPoint x="695.21" y="212.495" as="sourcePoint" />
            <mxPoint x="630" y="324.5" as="targetPoint" />
            <Array as="points">
              <mxPoint x="695" y="324.5" />
            </Array>
          </mxGeometry>
        </mxCell>
        <mxCell id="yJn59ZeG1h24RHHP3LN4-51" value="&amp;nbsp;&amp;nbsp;&amp;nbsp;&amp;nbsp;&amp;nbsp;&amp;nbsp;&amp;nbsp;&amp;nbsp;&amp;nbsp;&amp;nbsp;&amp;nbsp;&amp;nbsp;&amp;nbsp;&amp;nbsp; Github&lt;br&gt;&amp;nbsp;&amp;nbsp;&amp;nbsp;&amp;nbsp;&amp;nbsp;&amp;nbsp;&amp;nbsp;&amp;nbsp;&amp;nbsp;&amp;nbsp;&amp;nbsp;&amp;nbsp;&amp;nbsp;&amp;nbsp;&amp;nbsp; Container&lt;br&gt;&amp;nbsp;&amp;nbsp;&amp;nbsp;&amp;nbsp;&amp;nbsp;&amp;nbsp;&amp;nbsp;&amp;nbsp;&amp;nbsp;&amp;nbsp;&amp;nbsp;&amp;nbsp;&amp;nbsp;&amp;nbsp; Registry " style="rounded=1;whiteSpace=wrap;html=1;" vertex="1" parent="1">
          <mxGeometry x="340" y="540" width="120" height="60" as="geometry" />
        </mxCell>
        <mxCell id="yJn59ZeG1h24RHHP3LN4-53" value="" style="endArrow=classic;html=1;rounded=0;exitX=0;exitY=0.5;exitDx=0;exitDy=0;entryX=1;entryY=0.5;entryDx=0;entryDy=0;" edge="1" parent="1" source="yJn59ZeG1h24RHHP3LN4-25" target="yJn59ZeG1h24RHHP3LN4-51">
          <mxGeometry width="50" height="50" relative="1" as="geometry">
            <mxPoint x="400" y="300" as="sourcePoint" />
            <mxPoint x="450" y="250" as="targetPoint" />
          </mxGeometry>
        </mxCell>
        <mxCell id="yJn59ZeG1h24RHHP3LN4-54" value="" style="endArrow=classic;html=1;rounded=0;exitX=0.019;exitY=0.056;exitDx=0;exitDy=0;exitPerimeter=0;entryX=1;entryY=0.5;entryDx=0;entryDy=0;" edge="1" parent="1" source="yJn59ZeG1h24RHHP3LN4-18" target="yJn59ZeG1h24RHHP3LN4-64">
          <mxGeometry width="50" height="50" relative="1" as="geometry">
            <mxPoint x="720" y="540" as="sourcePoint" />
            <mxPoint x="260" y="410" as="targetPoint" />
            <Array as="points">
              <mxPoint x="570" y="420" />
            </Array>
          </mxGeometry>
        </mxCell>
        <mxCell id="yJn59ZeG1h24RHHP3LN4-57" value="" style="endArrow=classic;startArrow=classic;html=1;rounded=0;entryX=0;entryY=0.5;entryDx=0;entryDy=0;exitX=1;exitY=0.5;exitDx=0;exitDy=0;" edge="1" parent="1" source="yJn59ZeG1h24RHHP3LN4-25" target="yJn59ZeG1h24RHHP3LN4-18">
          <mxGeometry width="50" height="50" relative="1" as="geometry">
            <mxPoint x="400" y="300" as="sourcePoint" />
            <mxPoint x="450" y="250" as="targetPoint" />
          </mxGeometry>
        </mxCell>
        <mxCell id="yJn59ZeG1h24RHHP3LN4-60" value="&amp;nbsp;&amp;nbsp;&amp;nbsp;&amp;nbsp;&amp;nbsp;&amp;nbsp;&amp;nbsp; Telegram API" style="rounded=1;whiteSpace=wrap;html=1;" vertex="1" parent="1">
          <mxGeometry x="426.01" y="160" width="110" height="50" as="geometry" />
        </mxCell>
        <mxCell id="yJn59ZeG1h24RHHP3LN4-62" value="" style="endArrow=classic;startArrow=classic;html=1;rounded=0;exitX=1;exitY=0.5;exitDx=0;exitDy=0;entryX=0.5;entryY=1;entryDx=0;entryDy=0;" edge="1" parent="1" source="yJn59ZeG1h24RHHP3LN4-60" target="yJn59ZeG1h24RHHP3LN4-72">
          <mxGeometry width="50" height="50" relative="1" as="geometry">
            <mxPoint x="521.0999999999999" y="155" as="sourcePoint" />
            <mxPoint x="521" y="130" as="targetPoint" />
            <Array as="points">
              <mxPoint x="568" y="185" />
            </Array>
          </mxGeometry>
        </mxCell>
        <mxCell id="yJn59ZeG1h24RHHP3LN4-64" value="&amp;nbsp; Flux&lt;br&gt;&amp;nbsp; Helm Controller" style="rounded=1;whiteSpace=wrap;html=1;" vertex="1" parent="1">
          <mxGeometry x="170" y="390" width="90" height="60" as="geometry" />
        </mxCell>
        <mxCell id="yJn59ZeG1h24RHHP3LN4-66" value="" style="endArrow=classic;html=1;rounded=0;entryX=0.575;entryY=0;entryDx=0;entryDy=0;entryPerimeter=0;exitX=0;exitY=0.15;exitDx=0;exitDy=0;exitPerimeter=0;" edge="1" parent="1" source="yJn59ZeG1h24RHHP3LN4-44" target="yJn59ZeG1h24RHHP3LN4-17">
          <mxGeometry width="50" height="50" relative="1" as="geometry">
            <mxPoint x="160" y="10" as="sourcePoint" />
            <mxPoint x="95" y="40" as="targetPoint" />
            <Array as="points">
              <mxPoint x="79" y="20" />
            </Array>
          </mxGeometry>
        </mxCell>
        <mxCell id="yJn59ZeG1h24RHHP3LN4-67" value="Namespace" style="rounded=1;whiteSpace=wrap;html=1;" vertex="1" parent="1">
          <mxGeometry x="440" y="260" width="70" height="20" as="geometry" />
        </mxCell>
        <mxCell id="yJn59ZeG1h24RHHP3LN4-68" value="Secret" style="rounded=1;whiteSpace=wrap;html=1;" vertex="1" parent="1">
          <mxGeometry x="440" y="290" width="70" height="20" as="geometry" />
        </mxCell>
        <mxCell id="yJn59ZeG1h24RHHP3LN4-69" value="..." style="rounded=1;whiteSpace=wrap;html=1;" vertex="1" parent="1">
          <mxGeometry x="440" y="320" width="70" height="20" as="geometry" />
        </mxCell>
        <mxCell id="yJn59ZeG1h24RHHP3LN4-73" value="" style="endArrow=classic;html=1;rounded=0;exitX=0;exitY=0.75;exitDx=0;exitDy=0;entryX=1;entryY=0.5;entryDx=0;entryDy=0;" edge="1" parent="1" source="yJn59ZeG1h24RHHP3LN4-44" target="yJn59ZeG1h24RHHP3LN4-72">
          <mxGeometry width="50" height="50" relative="1" as="geometry">
            <mxPoint x="720" y="55" as="sourcePoint" />
            <mxPoint x="585" y="76.25" as="targetPoint" />
          </mxGeometry>
        </mxCell>
        <mxCell id="yJn59ZeG1h24RHHP3LN4-72" value="&amp;nbsp;&amp;nbsp;&amp;nbsp;&amp;nbsp;&amp;nbsp;&amp;nbsp;&amp;nbsp;&amp;nbsp; Telegram Client" style="rounded=1;whiteSpace=wrap;html=1;" vertex="1" parent="1">
          <mxGeometry x="505" y="65" width="125" height="65" as="geometry" />
        </mxCell>
        <mxCell id="yJn59ZeG1h24RHHP3LN4-74" value="" style="endArrow=classic;html=1;rounded=0;exitX=0.5;exitY=0;exitDx=0;exitDy=0;entryX=0.5;entryY=1;entryDx=0;entryDy=0;" edge="1" parent="1">
          <mxGeometry width="50" height="50" relative="1" as="geometry">
            <mxPoint x="202.5" y="390" as="sourcePoint" />
            <mxPoint x="202.5" y="340" as="targetPoint" />
          </mxGeometry>
        </mxCell>
        <mxCell id="yJn59ZeG1h24RHHP3LN4-76" value="" style="sketch=0;outlineConnect=0;fontColor=#232F3E;gradientColor=none;fillColor=#232F3D;strokeColor=none;dashed=0;verticalLabelPosition=bottom;verticalAlign=top;align=center;html=1;fontSize=12;fontStyle=0;aspect=fixed;pointerEvents=1;shape=mxgraph.aws4.user;" vertex="1" parent="1">
          <mxGeometry x="766" y="26" width="28" height="28" as="geometry" />
        </mxCell>
        <mxCell id="yJn59ZeG1h24RHHP3LN4-77" value="" style="shape=image;verticalLabelPosition=bottom;labelBackgroundColor=default;verticalAlign=top;aspect=fixed;imageAspect=0;image=https://assets.stickpng.com/images/584830fecef1014c0b5e4aa2.png;" vertex="1" parent="1">
          <mxGeometry x="147.17" y="70" width="22.83" height="29.16" as="geometry" />
        </mxCell>
        <mxCell id="yJn59ZeG1h24RHHP3LN4-78" value="" style="shape=image;verticalLabelPosition=bottom;labelBackgroundColor=default;verticalAlign=top;aspect=fixed;imageAspect=0;image=https://assets.stickpng.com/images/584830fecef1014c0b5e4aa2.png;" vertex="1" parent="1">
          <mxGeometry x="270" y="295.84000000000003" width="15" height="19.16" as="geometry" />
        </mxCell>
        <mxCell id="yJn59ZeG1h24RHHP3LN4-79" value="" style="shape=image;verticalLabelPosition=bottom;labelBackgroundColor=default;verticalAlign=top;aspect=fixed;imageAspect=0;image=https://assets.stickpng.com/images/584830fecef1014c0b5e4aa2.png;" vertex="1" parent="1">
          <mxGeometry x="270" y="439.99999999999994" width="15" height="19.16" as="geometry" />
        </mxCell>
        <mxCell id="yJn59ZeG1h24RHHP3LN4-81" value="" style="shape=image;verticalLabelPosition=bottom;labelBackgroundColor=default;verticalAlign=top;aspect=fixed;imageAspect=0;image=https://upload.wikimedia.org/wikipedia/commons/thumb/3/39/Kubernetes_logo_without_workmark.svg/2109px-Kubernetes_logo_without_workmark.svg.png;" vertex="1" parent="1">
          <mxGeometry x="520" y="290.42" width="30.9" height="30" as="geometry" />
        </mxCell>
        <mxCell id="yJn59ZeG1h24RHHP3LN4-82" value="" style="shape=image;verticalLabelPosition=bottom;labelBackgroundColor=default;verticalAlign=top;aspect=fixed;imageAspect=0;image=data:image/png,iVBORw0KGgoAAAANSUhEUgAAAOEAAADhCAMAAAAJbSJIAAAAk1BMVEX///8ybOXB0vfF1fgsaeUoZ+QkZeQbYuQqaOSCoe6LqO8PXuMSX+MZYeT8/f+svvKdtPHm7PvN2Pdpjurb4/nt8fw/dOalufHT3fj09/1ki+rp7vyzxPO/zfWZsPA6ceZ9nOxNfOdbhem4yPR5mexUgOiLpu5ylOsAWOJljOqtw/QAWuNFeOeYsvGmvfOXsvEAUOKcHaOrAAAOFklEQVR4nO1da2OqMBItkgcaggo+UfFd2+rt7v//dQuoGCCBBEGg6/nq9TbHyePMZGby8fHGG2+w0A/b7aFT9yiqw+JoQgAMuh3WPZKKMCVACwHIoO6xVIHhBWsR8GRU93hKh3c34N2MvbpHVC5GE6QlgLRZ3aMqEZ9xA97MeO7WPa6yMNNSBrwCAr3usZUBa0P4/AKQk1X3+J6GDqGYoG9GtKp7hM9hfsow4BWmM697lE9gjzINeIVBl3WPsyjmLs3nFwDvxnWPtRB+qCFHMDj/f+serTrGR0kD3szYOjU+5Z3x2WZslRofbnE+p5QZW6TGPVUD3sx4bokaH60FIi0faN0GNf55LmTAmxlJ49W4UGXLAgK7bg5ZyFTZsiCH5qrxHJUti8aqcStfZcuimWp8hUsx4BUNVONz1yyPX4CmqfGlvMqWBTAbpMYVVbYsmqPGlVW2LBqixhVVNlD6NZqgxtVUNkDHI1T6Qt2xcU4sOwvGrmPbnW+lY6VeNd5TW4HgYnd82Fu1b9WnxpVVNv7VA4b6UtE/rkmN+ypbNVDxHZrQp3hSPT3riI3rQFmkoVXnDuXvvlyNF1HZqKvfCeqf6hr2tWq8mMqOCPoU1+pff6EaL6ay0T+W4bRAME6jL1LjS7OIygZbu8PA3hVReoD0q+dXVGXjH51l2NkXMeIr1HhRlW04MRP68/RQzGGuWI0XimWHgKtOEkUdEnypTo17hUOh8FNPEtR7ReOOlalxRZUdwzpF0N9sJoXdymrUeO+JWDYecBjqv0WnfCWZKk/FssHRThP0jeg+ERsoW40rq+wY8JJH0D8xnroBKDU2fnlqKMaJM0fDebp5KsQKJ6VR3Dx32wL4/AKKT/2/GjyVRHD8XLQe9QQm9Bl6z/12pCSBs3xuGBMhQeWARhJoWg5D76nVcgtdCIz4U/zE0AIhUQ7DwTM2BDvuSREZ0XnmOgCWJG46z8Ts8T6LYKezeubnw/tyGH48MQi4yZij4TztPrEGzLKOi/25+CByCBYLaNxAfkoi6K/EopoUefkMB0U3G+KVRtCXpcVyZG5B7mzYx0I/H9JKDhMXci1wP9eEPlRD4AEAKemgYDC6KA8kCnLnzFPlELjvIFbi5w9UHQz0I2NCdR8DlLoCWaiGabAUP9+IagcGvlQYb+srmREJ/MIklE79qq++xzsFgWOcpNahvVFYh/S4qJTgh1piCfq09Su4k/MKWyHoZpgvCHp/zB35awu4dkIc0nuOvjxcP1MI4b3q4uJjJVNGcQMIYdCkG6z/hxrXz+R/rtKEdj6sg7Lbn/QxVsqn64vT+WzVK+BE1FtXdashenmBdFft/IfdOMOeGsNa0mrV1PhTDEtX2bJQSad5gmGd6e2jifR+UZxhzSUK0mq8KENwrkply0JWjRdkWOV1qDR+TRkzFmLYkARTX41LmLEIQ3psSpKwTAKKOkPjFakl0shX48oMqdusZP1cNa7I8JUqWxY5yXxqDJtZNJOtxlUYItjYNkQZalyBYZOL1zLUuDRD1OwCRHFsXJJhC4pIRbFxOYbtKATmq3EZhtXFsssGT41LMGyEypZFWo3nMmyKypZFSo3nMcTbymPZZSMRG89m+JpYdtmIq/FMhi+LZZcNVo1nMGyiypYFExsXM2yoypZFVB4lYohgQ9sLyOOmxgUMG62yZXFV41yGtcWyy0YQG+cwbIPKlsVogtMMW6KyZTH4SjL8aovKlsXQ68TwnxapbFnYTOnTyv4DW2gaiwfDxsSyS4Y1uppx9icNeIW1GI2Gf5jfG2+88cYbb7zxxhttw09jL7LLQv/rL0TZstBHjW3EWhL6qPXR7gj8gMxvUJnSwEas6pi7XyeepUYugW2+dYoQ3CJCzK1mHXsa9j9s5c1hhHuVFL7wo/f2wcRGC29/I0yj3Bpg7vjhNWvlmPSrXTf4DBbHx2U+Foa4rdXpS2ttfPjRGgxl2sneeG09/xf39m7ZDH20d0/dIyTFsMWwesT4WwzTC2p8IkaSYVuXnQ8dOenRD53kdeF0Mmjn/hlke3MbjY0S/mAfIxN0O60z5a11q8QFfT9MX8DkOGjTXfd4d8/zgiDPhe/f0qUBwtj5bc2E7T4KEkw3W232mYRwgCh2+u1guXrklULSy1pk/UTKu4EodaYtYLlg2vNBPBBznHLqT0JbNp8lWzqLxByHvTXhFRL5LNGp3+x7/tGaSQ9GtCcUnIsfh1LEyXo3kKl19QYdJKmhDAiTHgyJk5G8NhscTcx7DwJi0+03RI33SOpEGztsQYJBNS9j2lm2tz3zWAJEtiW1DXwGQetWko6YzbaUHTIk68ynf32WR8JhCeqvEbpmj5qb9CerSYwjyk1jC1hyZmy9GajRM2RowpmGMY5y3lMwY5O2rDU2Pp7c93tAeCvG3hGoxDCApQcHCVvKUGts/FE4wu8HP+xSDHgMs8e8WDqUeX/BwDXGxh9SVNBI3FpuA0MmGU7RZp+tXO0upBHJOmPjy8fBgCC/cGLoaZQmGPYx9B3EzTJTvcx64G5JWGPt+pCpG8UTwaEw6yYZousuYoJDJsvZ5jbNNVx9l68IyTXEvFwJ6FbuzfuHb2EEttyLJ6G13173q5dVtw23WpKizTxeCfBEpsgn7j35zv76U6xERxuCrlPkFY7HgAAAkvMl9jSSv3a83H0h6R+GSnQndCrmXhh2fcEjZdeeOwCnpGi8/BcRJ2eyTs98JTrxBGaypjjgWHUNg/d1GxZHii4haxaI0WfWWOar7oSrRCEFPQFJz4SVPIvAYmHch2Ry/s7AjC8u36fI/MHHq08uS2iuB9xpPg8XQ7W1RGMtuky6pAdheXGOPknQzZ6uPss1ST0f5U9Xlxutuy6GStX4/CFFTY6UsgYQx23ib5PfOVGJ8aqrmcmQhr9fDXjSLrywq7Y/3S4yE3V5Q9hfzORgg6hEzgYxDEMa8e8hsuH8NIuwFr5SNb6J6nsNypVSswNJhV+oRJmT/embMu45EYfD0TtrZdfWJo6//kPD4AvXNtbPNkFS0nsaDSYkXuV95nC0w5VgHtSZCPBzTlAcPTrRAO6v7GPojxWpesDhF/+tKUvSIN3UhBxfwmSc0lQcBiCxb1rflBnBRqBghoNLRDLJ0F5lrKPZJjZbEU271064p5a0FldYS1GMtfeC54Nos1z8uAQHo00y/D2fL564gs1axsI8HEHapcETPapc+AjetwAwySHWM9kgrvAUtvTgxMNp78mXL6YrPkjsbybsCs6pHuyeWdoLHmEzVUBTW8qelWkAr6fiOTPen7j+YXC0r3uig2R4OD84ptuwD0hZDG8P+aWlqPXJBrcDuS1/DvfZGxzUFcyA4enhs4BzcmMZfJX0OPn8djhwmvUvYsFtzcBYNNYkEv4hhQKdPmIWA3YT67Zb1g1O7+YY4WN6Ho5cEu9hQtFGxstP+Ye+3OZP8w6I/inUqrqUcvHdRpzBj5xzXKX5StT5yYuprNLXTv6a5F/iPLprASIXI1FH1PqJbDifDjcJlyLcQDKiEiFGvy5NOhUGnfAOAOZhwspCblHrJwh4v+J8GmTDxoEwOXrZq9Kye0kl6rsUvOj5ZyQUq+uWFaUZEocrYexTWm77Jx7ZDbILm4fTY1LCJs/OAHrklNHyXye5IWr9ZBB+quR8mRzrdcLSwJZZLMf9I4lNc4TSc/EqRUOK1YUxIqWGkOAgGv8mfYqbLbGZzXIxWMf6SuF1en4791/4q7pg1KP1E4Kiw3a8dNNRiSvLYMaK//PAq2T+OflOLYZe+NcrvsJ4tH5C6J9IpVl6EJXgNN4FQdKMWInOp4AJgRgk9SNOyQuaSjGNWBE5iE0y7DuYm2gBAyUq3GL3rEuBtymP5r+vuErUH+6vYU76GX9xNHX56SSQ0sNKsCo7l4dMAykt/KJ0IqYRa6BDRGMNMZu6XFsa2DwJdPpKe4TPzbIe4lRE7O1ciOkpk6RvS25qUKDT+dN8+ghjwHVN9Sa9hE9B3H72SAKWOMUSUr7cnj9WO6A15Zskn0UILlV6OX11ZoOdidMKdsNbXEzb5dpufwfn5GD9DcTNSS0MQhoJJapBsuOZ6RCFZau/UhNgPACpt59kkmGH/V1CEwB64ej5KFkV17UWP4LiM4rTO0jAMjuxeb53zNgXAd2m7XhN16m7dau1d0jKcbqxzJyx8/0uJre55W0nLMjTeS2s/cnkKtFAo2XZcjzV2GkOSDe1U3lfTSnADJUoR70E6/K0FC8j22GvKTgpbE2qhR72XZPykmGNIKQhPNQWPTYEYn43iRIHgjTRoKqCOnvB4K1/zCFp4MZX6fMSKG9jJ7sln6TlMbdN3GBX0yBO+SUu372bM2oeTRqS350DAUuAzQ1Xbg+PkdcEaFVR0dJxm7EJktC8cG/FlvdzFZDybndfgHknfZAAjHllGHM3NGMbW7f6B0lS+ECy4ZySSwJekLpWDazVAcdJQnJI23G4fkn6YVXQEzodks/U6dGgWiAxslTJyo15lZCTg9AG/JwyUn59r5I1JG7htvIRXHH8dyKOiX6stkxeGCCbVszMJFaYYtNZikw5c5ibY27td/MRlq0HxWcC/3XEZgC0tDl7WBTlK9HLlG9JJgcBklZaMahSCMzkk9zx5bZ+Cyy3+IGEe2zcl9td7kHuBW8KtHMZ3hHFxiE58lzb4farnWvwgUcaBaAaL6rUZpF2w7/HpolROyVMHthHyhBsSnSwXEyZsw9rf7KvZywZlQp6t7UcbE5xe14BVMLcZd7T+3LqHk4lWN0bZvyJpp587DVsGJD8kcasfPyeHFGB4Rtv/P/ify6W5IRhiKr7AAAAAElFTkSuQmCC;" vertex="1" parent="1">
          <mxGeometry x="187.5" y="312.5" width="25" height="25" as="geometry" />
        </mxCell>
        <mxCell id="yJn59ZeG1h24RHHP3LN4-84" value="" style="shape=image;verticalLabelPosition=bottom;labelBackgroundColor=default;verticalAlign=top;aspect=fixed;imageAspect=0;image=https://github.githubassets.com/images/modules/logos_page/GitHub-Mark.png;" vertex="1" parent="1">
          <mxGeometry x="20" y="315" width="20" height="20" as="geometry" />
        </mxCell>
        <mxCell id="yJn59ZeG1h24RHHP3LN4-85" value="" style="shape=image;verticalLabelPosition=bottom;labelBackgroundColor=default;verticalAlign=top;aspect=fixed;imageAspect=0;image=https://github.githubassets.com/images/modules/logos_page/GitHub-Mark.png;imageBackground=none;" vertex="1" parent="1">
          <mxGeometry x="730" y="550" width="20" height="20" as="geometry" />
        </mxCell>
        <mxCell id="yJn59ZeG1h24RHHP3LN4-86" value="" style="shape=image;verticalLabelPosition=bottom;labelBackgroundColor=default;verticalAlign=top;aspect=fixed;imageAspect=0;image=https://www.pngmart.com/files/23/Telegram-Logo-PNG-Isolated-HD.png;" vertex="1" parent="1">
          <mxGeometry x="512.03" y="86.02" width="23.98" height="23.98" as="geometry" />
        </mxCell>
        <mxCell id="yJn59ZeG1h24RHHP3LN4-88" value="" style="shape=image;verticalLabelPosition=bottom;labelBackgroundColor=default;verticalAlign=top;aspect=fixed;imageAspect=0;image=https://raw.githubusercontent.com/github/explore/2c7e603b797535e5ad8b4beb575ab3b7354666e1/topics/actions/actions.png;" vertex="1" parent="1">
          <mxGeometry x="536.01" y="555" width="30" height="30" as="geometry" />
        </mxCell>
        <mxCell id="yJn59ZeG1h24RHHP3LN4-89" value="" style="shape=image;verticalLabelPosition=bottom;labelBackgroundColor=default;verticalAlign=top;aspect=fixed;imageAspect=0;image=https://indraft.blog/2021/08/github-container-registry/featured-image-preview.png;" vertex="1" parent="1">
          <mxGeometry x="350" y="562.5" width="50" height="15" as="geometry" />
        </mxCell>
        <mxCell id="yJn59ZeG1h24RHHP3LN4-92" value="" style="shape=image;verticalLabelPosition=bottom;labelBackgroundColor=default;verticalAlign=top;aspect=fixed;imageAspect=0;image=data:image/png,iVBORw0KGgoAAAANSUhEUgAAAMgAAADICAYAAACtWK6eAAAAAXNSR0IArs4c6QAAAGhlWElmTU0AKgAAAAgABAEGAAMAAAABAAIAAAESAAMAAAABAAEAAAEoAAMAAAABAAIAAIdpAAQAAAABAAAAPgAAAAAAA6ABAAMAAAABAAEAAKACAAQAAAABAAAAyKADAAQAAAABAAAAyAAAAAAZpLiuAAAC5GlUWHRYTUw6Y29tLmFkb2JlLnhtcAAAAAAAPHg6eG1wbWV0YSB4bWxuczp4PSJhZG9iZTpuczptZXRhLyIgeDp4bXB0az0iWE1QIENvcmUgNi4wLjAiPgogICA8cmRmOlJERiB4bWxuczpyZGY9Imh0dHA6Ly93d3cudzMub3JnLzE5OTkvMDIvMjItcmRmLXN5bnRheC1ucyMiPgogICAgICA8cmRmOkRlc2NyaXB0aW9uIHJkZjphYm91dD0iIgogICAgICAgICAgICB4bWxuczp0aWZmPSJodHRwOi8vbnMuYWRvYmUuY29tL3RpZmYvMS4wLyIKICAgICAgICAgICAgeG1sbnM6ZXhpZj0iaHR0cDovL25zLmFkb2JlLmNvbS9leGlmLzEuMC8iPgogICAgICAgICA8dGlmZjpDb21wcmVzc2lvbj4xPC90aWZmOkNvbXByZXNzaW9uPgogICAgICAgICA8dGlmZjpSZXNvbHV0aW9uVW5pdD4yPC90aWZmOlJlc29sdXRpb25Vbml0PgogICAgICAgICA8dGlmZjpPcmllbnRhdGlvbj4xPC90aWZmOk9yaWVudGF0aW9uPgogICAgICAgICA8dGlmZjpQaG90b21ldHJpY0ludGVycHJldGF0aW9uPjI8L3RpZmY6UGhvdG9tZXRyaWNJbnRlcnByZXRhdGlvbj4KICAgICAgICAgPGV4aWY6UGl4ZWxYRGltZW5zaW9uPjIwMDwvZXhpZjpQaXhlbFhEaW1lbnNpb24+CiAgICAgICAgIDxleGlmOkNvbG9yU3BhY2U+MTwvZXhpZjpDb2xvclNwYWNlPgogICAgICAgICA8ZXhpZjpQaXhlbFlEaW1lbnNpb24+MjAwPC9leGlmOlBpeGVsWURpbWVuc2lvbj4KICAgICAgPC9yZGY6RGVzY3JpcHRpb24+CiAgIDwvcmRmOlJERj4KPC94OnhtcG1ldGE+Cu/dImwAACTpSURBVHgB7Z0HtBRF1sfLgBgQSSoG8JHMgjmAAYyYXd1d05pzwLzqmo/ZNadVEcOaPZ9h1TWtumvEHDEBIk8RFQmiIAqi8/1//V4/enp6Znrm9cybcO85d3q6urrCv+t21b11q3o+Z1QqBDor4YZm7qXj0uKu4m7NR/53EC/UzO2bjzq4OeLZzUf+zxRPbeYpzcdJOo4XNzbz9zoaJYzAfAmnV4/JLalK9xevETj21f9O4nLSdGX2mXiU+IPAcbL+GxWJgAlIYcAtoOgDxIPEA5uPPXSsZJqgwr0iHtl8fF/H38RGMRAwAckPUh9FGSreVrypeHFxNdMMFf5F8ZPip8TjxEaGQGwE5ldMBOEq8RhxqsaZOlJX6kzdjQyBDAToSRky0VAmimtdKLLVj7qDAVjY6EIg1DstJwDOFGMNytZo6jUcTMAGjIzqCAEU7Z3Ej4l/FderAMStNxiBFZiBnVGNIrCY6jVMjFIat3FYvHSswA4MwdKoRhDornpcKJ4qtgafDAZgeYEYbI2qFAEm8C4T/yQ2wSgNBmALxmBtVCUIdFE56TGw95tglAcDsAZzsDeqUATaqVwniPFJMsFoGwzAnmfAszCqIAR2UFlGi00wKgMDngXPxKiNEcAp8GmxCUZlYsCz4RkZlRmBBZXfyeJZYhOOysaAZ8Sz4pkZlQGBtZXHO2ITjOrCgGfGszMqEQLM4p4tttnv6hKM4IuMZ8cztBl5gZAk9VJir4iDYNv/6sWDZ8kzNUoAgX2Uxg9iE4jawoBnyrM1KhIB1mgPF5tg1DYGPGOetVEBCPRQ3NfFJhz1gQHPmmduFAOBzRXnO7EJR31hwDPn2RvlQOBgXZsjNuGoTwx49rQBoxACLO/E2c0EwzCgDdAWbMmvQIBQ0O4Vm3AYBsE2QJuoe+WdlWnPmnDYyyFLG6Bt1O3qxSVU+ZezABN8k9j/+u5ZaCO0lboi9qd9S2yN3zCI0wZoK7SZslNbKEJdVcvnxauXvbaWYTUj8KEKP1jMeviyUbl30qOrZI2ACUfZHnHNZESboe2UdbhVTgFB2XpcvI7YyBAoBgHaDm2obIp7uQQEc90j4kFiI0OgNQjQhmhLZTEBl8MvHz3nTjE78xkZAkkg0FuJ9BU/lERiudIoh4AwK3pErkLYNUOgCATQSRYSP1fEvRVzC341ccx4FsdwKrYN0MZKRqU0826uUvOBFtsjqWSPzxIWAizj5QNH/y0FGqUSEHz73xbblpSleGqWZhiByQrAwjUhfKG156WwYmFdeEBswtHap2P3x0WAtkabS9yyVQol/UYVdMe4NbN4hkBCCCyndNht/rGE0itJMvso1WKVLbvPsEuiDdAGE6MkdRBs0++KOyZWOkvIECgcgR91y1rizwu/NfOOpHQQhmp3ik04MjG2kPIiQBukLSaiPiSSiApzljjRrk3pGRkCxSKAFfV38QvFJuDfl8QQi/1W2bZlQT9ROxoCFYDAXJVhA/E7rSlLawUEoXhDzJjPyBCoNATQidcXIyxFUWuHWCcpVxtaFQW93VQGBJZRHj+J2Qu4KGpND9JXOX4gXqSonO0mQ6A8CPysbPqLPysmu9ZYsa5ThiYcxaBu95QTAdoobbUoKlZAdlBu2xSVo91kCJQfAdoqbbZgKmaIhXcuC+hXLDg3u8EQaDsExijr1cV4/8amYpT045X6nrFzsIiGQGUg0FXF+EH8aiHFKbQH6aLEx4k7FZKJxTUEKgSB6SpHH/G0uOUpVAfBrGvCERddi1dpCNB2acOxqZAeBJ97HMA6xE7dIhoClYfATBWpt5hFVnmpkB7kFKVmwpEXUotQ4QjQhmnLsShuD8JCFHoPm/eIBatFqnAEmDykF/k2Xznj9iDDlJAJRz407Xq1IEBbpk3npTg9CNs8finGgmVkCNQKAliyeorx1cpKcXqQA3W3CUdWCO1ClSJAm6Zt56R8PQgTicxA9s6Zil00BKoTAfRqPEJ+y1b8fIuctteNJhzZ0LPwFgSOPPJIt/LKK7ecv/766+7uu+9uOa/QP7Rt2vij2cqXT0AOyXajhZcHgcX0hBaX91t79eW/6D03Q55Es4pe/lO6Mm+55ZZuyJAhLRksuOCC1SAglJc2XpSAsM8QWzoalRGB/hoZb6ZlPmt30/blHeW2ELEV2rTZWtwgr6K3p2jR9TfOffR9GQtYe1nRxmnrE6OqlqsHQYHJdT0qPQsrAoH5dc/2Kzh32CrOrRBjKraLhGb9pZr4iFXlHPejczd9oo2QJzRtrFVEEer5Fto4bf28KBB4NlGE8s5NRiVGYBNNwf7fVs5duF484YgqTh/1NH/fwLn7tnBuQwmOUcEI0NYjDVbZBGQj3dBQcDZ2Q2wEAP7E/s79Y2OZURL66t6qnZ0bvolzR6lXiXzasUtXdxEbVGPafAZlG0LtnhHTAhJDYFGhzhsfXSOKUtqA80PpFa9959xY6RqTf3FuthR0FPWlNQfcTwK1kXoKBCJM80kyDpeA9FavcvqbTYp9OI6dRyJAmx8ZvhIlILzcdgtHtPNkEFhADfiagdqwKWIoxMa0z3ylBdQfOTd+Ru78rtLlfhKCYas7N2TZzLhbL+/cwhKoo1+pTb2kY8eObrXVVmup+LRp09zUqVNdv3793DvvvONmz57tFl98cbf66qu7jz76yP34oxS13ESbP178ezBa1BBLnb6n1Qfj2f+EEDh+jWjhmCiHhwNf0LDrtfzC4RdlrJ75MXrnHfqic5Nm+aHzjpuqhzpSvUktUrdu3dyOO+7oRowY4Q444AC33nrrucGDB7sHHnjA7bDDDl6V99lnH++8f3+NZfMTlizafhpFCYj1HmkQJXeylR7Bvv0y0/tYw6m9/+fcW5Mzr8UJeVVDMe5nOBamQ2UZwxBQa/T555+70047zY0fP95de+217q677vKq+Oyzz7pddtnF+7/11lu7kSMzRk25oNg1fDFKQLYNR7Lz1iPQTkifpBcZOkKQmM84QD3HVOkZraFJPzu33/PyKmU5UIDmV34nD9BOzqF8A1Fq6u+UKVPc/PPP7/UoEyZMcHPmzCmkftuFI4cFpI8iRLzjwrfZeaEI7NbLuWUXS7/r57kSGg2pkpoZZ5ad9OaEPIsaFteeN/it1gk9+uij7oYbbnAPPvhgoTWm7SMDLRQWEOs9WqBJ7s9CQvmQlTPT+8fHmuTLo4xn3pU75JPpzo34NDMOlq1a7EVGjRrlZs5s6jYnT57sPvvsM/f44497x5deesl9/PHH7ocfIsaemRD5IWkyEO54/61Y2/sxy3Vcfvnl3aBBgxzHBRZYwE2cONGNGzfO4fCWwuaZhebTeGX99dd3K620klt22WU9oL777jvPigFQrSWsRMxRdFtEa43bOff9bOemaCj0/lQpxRrSxKUtpXtcuVF67OlKa+snnPs59LZPj1XcWUeV9WkNFihzkA5/SZvUTgqGZP+PL9UGG2zgGhoa3FJLLeUWWmgh9/XXX7svv/zSG9f/+qu6qwA99NBDab5Y9957r8OBMS717dvXrbnmml5enTp1clileJZjxoxxH374Ydxkkoj3uBJp0vL1J2jmlVHQbZpEDsE0/vSnP7krr7yyJeg///mPO/DAA73ztdde251++ukesDT2MKGIXXXVVe7OO+9Mu8QY8/DDD3eHHHKI9wDTLjaf8GY5//zzHfkVQh0Xcm7/FZ3btodzy4eGRH46yOzHelM/PN65B8Vzs8uwdwvKeZjul6N1KYSDfH5U232oMdMgsNXy+QUEM+mJJ57ohg4d6pZYQm+HCPr+++8dw5hLL73Ue5lFRIkVtNhii7kjjjjC7b777g4ByUa8LO+//3533XXXuZ9/LuDNlC3B3OHIALLgvbqCQyxsYRqtJku8iQDC54UXXtjL4K9//at75pln3Oabby7FNVM4iNS7d293zTXXuCuuuMLrWQjjbfavf/3LXXDBBVmFg3hrrLGGu++++zwh4TwO7a1n9OTQpuFQNuEgHYq7WmfnzljbuUe2cW7g0rlTX3fJzOs4GZaSXvg6M/X1Isrhx2rXrp27+OKLvd6BBptNOIjfuXNnt99++7nXXnvNHXTQQX4SBR133XVXr6fnBZlLOEi0T58+nsUKi9TGG2dYYgvKN0ZkZKDFLhwUkEExbk4kyimnnOJVmJ4gDmHnPu644xzChjlvk002iXObJ3hHHXWUGzZsWM747VWMi9Z37tQ19Q059SCFUE85F+Iusp96nShaUu+DpTREC9KPMqyU2gP3XQ0Df5kbzNW5HipreNhFDIY0DJEOO+wwD+P0u7KfdejQwV122WXefdljpV/hZYhQMH/Byy6KslmeGjTcQ/GmdysxtchCcIjVEljKzOnCsU/7xFj21VdfdaNHj/bMc7xNeEugiwTp5JNPdqussopnvvPDUb5efvllr5tH2Hr16uU23XRTx9swSH/729+8CaNvvsl8bdN3Xbph9Gz03N+lb0xz7gsp0jPV2DpLeFbq1OTqEezzUH4x4XK8dXQwZy16VqMM02gNz37PMywL31Po+a8qOxOJa3SZdydl7qlhI8NDn8Dtn//8Z9Y3M8MbZqYxny666KJer73RRht5OomfxoUXXuimTw8k6l+IODJ8O+mkk9Ku/PLLL+62227zGj9KNcMo8kInYYi+9957tzxTdCHKu91227m33347LZ0ET5CF60iv7AIS7E6fe+45d8IJJ3iKX7ByK664okPJY4jlE8DstlvTHCaK++WXX+69vXApCBKKPgCi3/i0yCKLeEMBdJIwHb1apnDQuO4a29TYp0eY0XupE8bFI6xbHKswJute+nZeLl3lmh6mqelFDl9O7Jx1I2Hqqh4tSLx4eKmE6fnnn3fnnHOOe//998OXPBcOeht6dYbOCFmXLgFJzLijKYDhNC+rIKErMuP9xRdfBIPdrFmzvOEew6o77rjDGy77PQ5tgaH34MGDXdhYkJZI8SctnYU/xmF0KrW0fPTUU095yhlWkTBhuWCM+/vvaqkRhE6CDhIWDqJ+9dVXXrpYQYK0zTZSFkKEQ99BK6UHzvxV6zJecu6KUc5FCQex8ZM64VXnLnlPfk6BnoBJuTMllwzZfFo4+ApqDsQaVg6KyidYHhrcMccck1EUjCroCFHCQeQZM2Z4Lyfe4lia4hBCRE/D0SdGDdtvv32GcPjX/eO7777r9t13X/fbb57e7AWvuuqqbo899vCjJH1EFjyNzS+tBgjlIwA++uij0yoczh3T3osvvhgOdt9++633cDIuBAIYDvDWCRKA+gYCP/w4vfEX8BFoDjzrLefenOzHyH286zP1NOIgLbOoc3v1nRcSNZRiVr0cFJVPsDxYkOhdg/Twww+7c889N6d53Y//wQcfuP3339/NnRtSdvwIgeMf//hHzxzvB/HyO/TQQz1h88NyHTH5//vfzELMI4SmhOTJhP+o1ihhRhlJM3zC8zIfoV+ECSWNMWs+Ct/LmwsdxSeGPmF3c9zLn5nox4h3vFYmeuY0gsSsuU9Rs+SsCCwHReUzSz2kTzvvvLP/1zvSI4eHQGkRIk7QH+PMWP/5z39OuxvzOwJWCOGIGKR1113Xm/8KhiX435MJX0DK2oNg3o1DzIOEiTdJHGJSK0yYJ33CRZwhUZDuGxc8i/efuYxHvkiPu4J0FFb5Qd9GmO2XTH9pN0UswS8WtDD55cEiFHxhEI839KRJk8K35D3HIpWLULiZCA4SQ+xCCWNBmNZZZ51wUFLnnkz4I+Sy9iBx3xxRvUyUzhKFSJRVBYXSpwFd/X9NR4Yeb8QbTqffqDN6nrCZd4B0VtaKfyl9BT1F1s0WWrmT9nGVka5UE4VktIQsbuhYQcIqh1s9xDqJMKGYF0PoCKy3YI1GFGF9DA9vMdYw31IIYeYPE2tCHnvssXBwEueeTPg59k0ixbhpMBMbh6KUcN/vJt/9P/3U3BICEYOm4/DbFYsPzn7FUNiDljS6Nb+9MQ8jKH0Dk9LoBkweBq1dxeSb654NlH64h8RPa06z3YP1FGGK6rHDcaLOUZ4bGxtdtnUXSy6pwoQIHTQJ6to19KZLItGmNDyZYIjFuEPvtPIQCl1c01yU8pfLN6uQGnTSGzZIxQoHacyIMAUHt+uhhwnTUOwkJaShPTMTfy0weoqaKS/QqS8tg1wr9oJD27SbEjjJ1mslkDQy0RkBaUggsapL4odQbxE1wxy3UlH3/hAQmqe+ykxpOwnIsotmhicRwjzNFtKxwhQsR1SDbk1jY3lrNorKK1vcQsODo4JC740Rv4EhVkOMiDUXhY0QgoTFh10Mf8pvsQze5v3HhSNMeP36hPfvB9Pk4CO9xKcF9WpiT6sz3/JDkjuyq0l4eIV+NUaTmD5hCg8TijtWqUIJC+EKK6yQ9baovHD/eeGFF7LeE/cCE4olpPoVkA/VYHcOPFPcRHDme/6bwuGO2oBhlNIP0nUyBw/fNBji3C4Nzr2sWfenI3qY9Jjxz0hzm4jh27UfpafBRgZh2myzzTwPhnB4vvMBAwZ4/lzZ4jEhiJ4SfNvjx8WKvwqnBoZY3Su8kCUp3v9kBQ7OgpPJ7n0Kz4qteIKCRgpf/ZT+tiaMdeNvRUxAnrOOc1i1kiB6qNPWzEzpJQn9e+rFgoRCHnbv2GmnnVyU8h68L+q/v3wh6hphWBTfe++9tMv+uvG0wMo76Y6AlMwMUHn1nVciFjyFledBcltnJ5BC6PBVBGBovuGRxugUzntXQ7gI3ee2zZr2uYq+K14ok54j1EMtwqA5QHgOX5TeNluusqYjSMyqM4teCDEPEcdcG86LxVjhicp8+WKmxwUp2/KIfPcXcb0rApJp7ysipWq85apR6V61zFWwBWhQV8hVr117aaueldJjsPnCHWPTw/yzz2XuPUM6R7jnQsm/fmPncH1BDyqE2Pn95P7OXT0wUziY2znlDecmqEeLouuvvz7DK2HPPff0FkxFxQ+HsZITx9Cw93Q4Hue33nprhscvDofMhschJhvvuecebwEd63xKaRkLlKdb3fYggIDb9/3jAnDoLxNst+iNfoR6BnZAjKLuizp3gQSJ4VFQGabhX/x+7k0YnpUrCxtNh4m5kYNWdu6xbZzbp5/si+3DMdLPmWc5YEXNfg9VfB2j1ptfI70HHScbMWvOljlhOuOMM7xPF7A0IYrat2/vrQTEXWS55ZaLipIRxvwVKxCDhNWMnoU5EdLMRnx3hO18fK9jlkswqZlt3iVbOkWEd6UJ1OUQywfr72rQzDgHFW12JDxytaYG+4b0BmbDmfBj7gR9gTUWQcHw0xoxummHdf882/H6j51jYpLteLBmBQk3FMJZX4LVCff579QrsfUo5WLxFevkWS8fnJ0PpoG7/vnvNC27DYZH/b/kkkvcwIEDM1xB8NTddtttHe7o4fUgNFSUbJ9wPMQBNWpuxY/DkZ1GcDkhbZ8Y1p133nmeVzErRVmlyLodZs179uzpxcUTO6jgcy89SinNx83l8wRkXk39UtfRkfXkx46U6/oGmc6LKODepmt5zBj0HDd/2rRlaFzo7lXP9cXMpj166bXChAAijIUq8Ajeia/KIDAlnGL0OdYlvGIZvqAXBImxPm/pfG/qs846y22xxRZpmzYE0/H/M8nLOpLbb7/di++Hc2S2nT0G4HyEAOEd3NjYmC9qa6934P0V8Xham2513c/cx7BXnMMzl72qCiGU/eNf070fSbco5EbFHTlJW8g85dzt6nnoIVpDlPtmDd1IL65w+PmxdgaFmSUC2dbg+HGDR9x5WD6NLhOXGGqh1DO0i+tREUwbJ0fM0aw8LAOxY5PLPvgrQwkqJQsa93D1Atupgd39WdP2PrnKxqKpKz5oapDPTcwVM/c1ZtwvH6V9ZprzjVoFmCsFJiTvGNNUjmskpCz4Kobwezv22GPd4MGDPa/eXLuHMJyix9lwww3d8OHDC86OXotehx6LpQ/5XFwQpCeeeMJhhsaIwP5XZaL26si970RL7TQKIgAw6BorapiDY2MHaWvfqzEzA/+ehi8Mj0pBKNvku063Jpd5dlfBysVwj14GnzHmWfxPsPGZhOAiqKTKhG7A5hgNDU37YmGpYmjD/Akz4FGOpMXmjb6BsGAVY6jFJhKs+cGIwOpSljhEOZ8Wm18B982iHfDOyWKvKSApi2oI1B4Cc0M2lNqrodXIEGgNAgiIBg5GlYBA2JRZyjKVM69S1qPEac9BQGQYNGprBBjr4/XKJBjmVT4Iw/Y2pSC2UyKvrbbaqhTJ11Kas60HqcDHiaWGWWpMqEZtioDXg9gQq02fQWbmrPFmwzS27zdqUwTmYL0qkcGyTStW1Zl/8skn3oZqVV2J2ij8TAQktFKgNmpWylrgB8QwyN/Khl1a2PqGWWJ0CVyy8Tvydx1Ep2BijMmuN9980ysaGzD/4Q9/8LbuxP8IZzyf2MaTFXd333239yEYwtlKFZcQdkNkv1zSj9raiLjsnP/WW295s+LMWuMUSK/EPVEr8Cgz23/iFMisOmV55JFHvL1x/Rl2vgXoE24l7M970UUXeZ68bACHzsTcCHVkI2wInyu2FmK4yCbiTPCxI2YV0VR0kJheO1VUrRIXlYaBB+rYsWMdb3v8h9h6BssQewOzZ21w4RECQhgr7yAaCTPIbIfDTuY0sOA3UJgoI76/bxXfQqGRISRMoNFoc30KAH8nnBDJA2Fjko8No5ngC++hi7DTqNdaay1vQo5GfvPNN3su73zIiI/ghD9xcPbZZ3ufYEbw8Kr9y1/+4jk1suvl1Vdf7W0xSj031168zM4//fTTnu/V0ksvTXA1kScbI1RiPC2MY2KghTspNawWvDQLnNJWRintNZXSzvTef2112nJda7a9sIMPPjilL2Kl9JZOqZG1XNeeUSlt+enFkRUrJSuT919WphTpqCeKjK/tWdPK4T9DfV0rpd7Fu9cP0/dSUmrAKW36nZY+1zV73VIWzvUCSKmn88LUM6Y0m52SkHnnEmqvbPL0TUkYUuqp0sogz9uU9jPz8tanEby4ErC09P0yVcFxhA2x9JQKJfyUhgwZ4vktMeTxdwPJ5+5NPmzWjFdrcG0EvQIbRuMHFSa8VumZouIzDMIdhDd0mFhnEXTow22db/fxbfGwcyG+Tgzf8NplIRKbuvl1ueWWW7xd9TE/cz9DNnoKdse86aabvKEcG137hGmaTRz8D93gZ0UaVUpTEZAcS2qqtFolLDYPn+EQDYAhDH5CDGFyfdQluBiIdRQIWFgXyLaZHsKXK74vnOEqh3e35zp5BNdxEMYwjuEhDRmhQp9iP7JlllmGy94uJwga3+h48sknPTdz6o3XL0tgWVSFPhYkhn++r5avhwWvV9H/bxGQxioqcJsXFT0A5ZM3sb9BdvBbJH7D7969e8sbPLieAp2FhoVS6yvsVAoX7ihiswN0gKj49ETZPlFAz4Iw++7r9EIYFT799NO0bEibeIPVe/nu53zyLEgsl+XzbPQUfCyVr3yRLo6EbPwQ/AwB+hYvBHpFvj5V5dSIkt5Y5ZUoa/Fx9YZo9DQGlpxiofKJRoOQ8JkxGjUNLzg8wjLF/sI0Ohoc6fAZglNPPdVPIu3I+muEIByfXdhvv/12r5Gm3dB8wuceGNpgbWLFIF9wwkpFQw8Sq/LY9I3ZdQQFwdprr72CUbwPaNKL8dEiXgr+FqWkxWo/PkxET9SjRw/PUsbwK9hrpiVWXSeNFLezuFqVqDYpt768lJLJ0mPt7ZTSG9T7L73EK4+2+k/pQz6egipLUArlHCWeI1ijhGvhjxdGuIYwLXHCSjrxUaLVwD3ll/go22eeeWZK4/3I+qOk6yNDKekonkGAe9SoU9IfWvInDCOAdI6UzLpeWaiThowpWZ5S6hnS0vYVbn0SLS1cFqyUTMAtdZEwp1DgKTf3vPHGG2nxq6ytIRseaVWBCUkhGMgUm9Kn4lJYoKLu03qKlMbnKSxeUdcJ03DFi6PhT9Y4wXtlok1pzUSa1Sh43f+PgJx22mlemhrqeXn4Vig/Tviot39KvUDWcvBSQBCi6kva1FVryLPeH86vCs6RiRZi9qqWKlfXdQkKSBLPFaHQ7ogpza3UE67ejC5KOqRFn25d75/9GALNCLCrCBOi6ElYy2688cZ6wgaZcCjpkFZXGxkC6QigvDP7z3JXZss1xEqPUNtnaTKxhepaT91nTddVVrGULFc1XccytFdkwrEmHVpS/J33z34MAUMABJYST/aHWJN18iWhRoaAIeDJAjLRooPwfyQ/RoaAITBPFvweBExeMWAMAUPAQ6BFFkxArEUYApkItAiIr6QTZQExs4fZv8ZILCNDoLYRwNkOFxNvt+RgD0LAi7Vdd6udIZAXAWTAEw5iBgWE86f4MTIE6hiBNBkIDrHAhIUA2tvcyBCoWwT6qubj/NqHexAujPUv2tEQqDMEaPstwkHdwwJC2BP8GBkCdYhARtuPEpCmTY3qEB2rct0jkNH2wzoICCE0X4qX48TIEKgTBCaqnj3F+gTqPIrqQYjw4Lwo9s8QqAsEaPNpwkGtowSE8Pv5MTIE6giByDYfNcQCE8I/FzeIjQyBWkegURXsLWYNTRpl60GIeGtaTDsxBGoXAdp6hnBQ3Ww9CNdQ0hvF/rp1/TUyBGoOgbmqUYMYJT2DsvUgROSGtGn3jLstwBCofgRo45HCQdVyCQjXb+bHyBCoYQRytvFcQywwwQV+jBgFxsgQqDUEMEStKG7x3g1XMF8Pwo1XhW+yc0OgRhCgbWcVDuqYrwchzmLiL8VdODEyBGoEgWmqR0/xT7nqk68H4V4SuDFXInbNEKhCBGjTOYWDOsXpQYjXXYwb8KKcGBkCVY7ALJWftU95Px4VpwcBCxK6gT9GhkANIEBbzisc1DNuD0Jcdl9E6+/AiZEhUKUIzFS5e4u9jeHy1SFuD0I6JHhtvgTtuiFQ4QjQhmMJB/UopAchPpYsdJFOnBgZAlWGwHSVF90DC1YsYiKwEPpZkfFd2bqQmyyuIVAhCJyhcvy3kLIU2oOQdjvxh2JmII0MgWpBAI+Q1cW/FlLgQnQQP10yONE/saMhUCUI0GYLEg7qVUwP4uOBF+Q2/okdDYEKRuBplW1oMeVrjYCwwRafqVqkmIztHkOgTAigN/cXF7UhYqFKerBOWALosrYKBtp/Q6DCEEAxf6zYMrWmByFPVhu+IV6LEyNDoMIQeFflWV+M5bUoKkZJD2ZExgeLiy5AMDH7bwgkiEAibbM1Qyy/Lt/oD4I22A+woyFQAQicqzLc19pytHaI5eePoL0oHugH2NEQaEME+N7mpuKci6HilC8pASGv3mLGfB05MTIE2giBH5UvOjGOta2m+VudwrwEKNDR807tnyHQJgjQBhMRDkqfhA4SRIF5keXFawcD7b8hUCYERiif85PMK8khll+u9vqDPoJ5zcgQKBcCTDegd8xOMsNSCAjl6yF+W8wiKyNDoNQIsL5jHfGEpDNKUgcJlo2C7iEu2DksmIj9NwRiIEAbo60lLhzknbQOQpo+jdcf5kh28gPsaAiUAIHDlWbJvmdTSgEBi3fE6CSbcGJkCCSMwEVK79KE0yx7cug594rZXt7YMEiqDdCmSqVDK+nyEr3Is+KkwLF06htL2hJtquRUTglcTLVh4cqgktfKMqhlBF5R5bYR590VMQkQyikglHcJ8XNiTHJGhkChCDB1sIX4h0JvLDZ+uQWEcnYT/0/MAnojQyAuAmwUMlg8Ne4NScQr1TxIrrJN0cUhYt4GRoZAHARoK7SZsgpHnIKVMg7DrZfFpnAbBrnaAG2EtlKXhOJu1i0TkGwCQtugjdQ1Ya67R5wNJAuvT2xoE2Ux5VaD9GEsuNCExF4SzW2AttAWBiRlW9nEBhBzxNZr1CcGPHvagFEOBDbXte/EJiT1hQHPnGdvFAMB1pO8LjYhqQ8MeNY8c6MCEEBBGy42IaltDHjGpowXIBjhqPsoANcCE5TawoBnyrM1SgCBXkoDJzUTktrAgGfJMzVKEAEWd50tZomlCUp1YsCz4xmWeqGesqhfYkshViqakFQXBjwz2w6qTHK7oPI5WcwH4U1QKhsDnhHPimdmVGYE+io/FmGZkFQmBjwbnpFRGyOwg/IfLTZBqQwMeBY8E6MKQqCdynKC+HuxCUrbYAD2PAOehVGFItBF5cLZbYbYBKU8GIA1mIO9UZUgwLanl4tNkS+dkIAtGNsWswKhWqm7Cs7bjeWa1qMkgwFYginYGtUIAqxMGyYeJzZBKQ4DsAPDul/lJwxqlpjFZb/gx8Q2K59fUMAIrMDMZsAFQj3RcqrsmeLxYutV0jEAE7ABI6M6R4DlnYPEV4sniutVWKg7GICFLXkVCEaZCLBXGF8qoqGMEde6sFBH6kqd22KfNGVbuWRvifzPpo+iDBVvK6YRLS6uZmLO4kXxk+KnxCjeRlkQMAHJAkyWYJTUAWKGIAObjz10rGSaoMK9Ih7ZfHxfx9/ERjEQMAGJAVKeKEyS9RevETj20/9y7wb4g/IcKx4l/iBwnKz/RkUiYAJSJHAxbuusOA3N3EvHpcVs3N01wB30fyExa7I5wtCcZp7dfJyp49QAs7/xJDGWpsZmxg/KKGEE/h9JY/r7aq17PgAAAABJRU5ErkJggg==;" vertex="1" parent="1">
          <mxGeometry x="127.71" y="81.35" width="32.29" height="32.29" as="geometry" />
        </mxCell>
        <mxCell id="yJn59ZeG1h24RHHP3LN4-93" value="" style="shape=image;verticalLabelPosition=bottom;labelBackgroundColor=default;verticalAlign=top;aspect=fixed;imageAspect=0;image=https://static-00.iconduck.com/assets.00/openai-icon-2021x2048-4rpe5x7n.png;" vertex="1" parent="1">
          <mxGeometry x="336.27" y="86.02" width="23.73" height="24.05" as="geometry" />
        </mxCell>
        <mxCell id="yJn59ZeG1h24RHHP3LN4-98" value="" style="shape=image;verticalLabelPosition=bottom;labelBackgroundColor=default;verticalAlign=top;aspect=fixed;imageAspect=0;image=https://assets.stickpng.com/images/584599c0bcb9df443a7fb797.png;" vertex="1" parent="1">
          <mxGeometry x="190" y="275" width="20" height="20" as="geometry" />
        </mxCell>
        <mxCell id="yJn59ZeG1h24RHHP3LN4-99" value="" style="shape=image;verticalLabelPosition=bottom;labelBackgroundColor=default;verticalAlign=top;aspect=fixed;imageAspect=0;image=https://raw.githubusercontent.com/alexellis/k3sup/master/docs/assets/k3sup.png;" vertex="1" parent="1">
          <mxGeometry x="675" y="190.8300000000001" width="40" height="14.17" as="geometry" />
        </mxCell>
        <mxCell id="yJn59ZeG1h24RHHP3LN4-101" value="" style="shape=image;verticalLabelPosition=bottom;labelBackgroundColor=default;verticalAlign=top;aspect=fixed;imageAspect=0;image=data:image/png,iVBORw0KGgoAAAANSUhEUgAAAOEAAADhCAMAAAAJbSJIAAAAllBMVEX///8PFokAAIQAAH8AAIUAAH4ABoby8vhoaqlfYaUKEoilpsmdn8Z4erH5+vy2t9Pc3eoADYdxc65cXqOYmcLGx90FD4i+v9isrc1AQ5jLzODm5vBkZqjS0+TNzuEaIIwvM5JUV6CChLeKjLtMT506PZYoLJBWWKGrrM3t7fTh4e10drCFh7ghJo4VG4tGSZstMZIAAHW+sXsNAAAMLklEQVR4nO2deX+iPBDHJQdYVJCKRz1qPXrYbtvd9//mHtSqmQlXIIHqw/ezf23F5GdIMplMMq1Wg3Zm/bprYBZvy2kwrbsWBvEsZlkuH9ZdD3NsI4ER1Km7IqYY04NAi93XXRNTfI6OCi0+q7sqZnj8acKoEdd118UMH+yk0CV118UMxD0ptOhNDqeL80savaZ/6q6NCUJyUTh6qrs2JljZF4UW9+qujgGEbhh1xEXd1dHPTuiGlkUmdddHPwugkG3qro9+fCIqtOd110c/XaBw9Fx3ffSzYaJC1667PvrpAYUWrbs++mnfvMI7Gyq8vSl/cCUKh5OifiRNCt/H/q5gDfKwCyihdF2oiDlSWKgCb5+UEN4t9Gwung9zGuNF1j735UeaMSMHPwh/L/BwLmb8ZFW66n7dNZwPmXrxc/pju5NQ/eF8TM+mpcs7qg+HJW0a5+X8BeZ8dUOhklTVmTSBdulA8fEZu/RjYsyonYrLA6r4Qw6BQlVvW5+OhIfbag/nZwaXeB9lHlZ7y/tUXD4bXHqBSlpUrSCoUMnZNgMCLeIrFazCK5rT3lQefg7ER1XmVIeNQLnc3Jz/BvpSVNSjwsPidKG2eHoJQKmjv4rVVsDhUKGr0hTiUMNU+vAA2goGp8MW8ghGBE85H9z1hx1BIVEwvLqw9xve1xnj0kjWqL8bdnvfNqWRPQmeo5/tcJynqn303ljBtw4liQQuKi+tKz6GAxIpY9JDe0aMRH/chtOMRcZyhB6kY72SEB001lhuEP/BfnfLKbHjtIEGiZYK32GKlftHKvDLjLIzuMDY93Txx6UkwJ9MVklZL2HZ+Y7fUZOT4ZGuJBF3/Fn4RVlW2+GGYZSt41ryG/9Oo6VhgTE90V6Jfx5vOVGUdxb5LDXPEI9spnvhQYJc6GWXpeNSG/85P1GnDGGYxgseZuytcYGt1hZrOA3fXkiKNZ8AAT4S+dc0aLBd2Emd/9iIIS2tbw/jvXM7PuNeqGIplKCDf1kWrUjfmBZ9h687LVoWuKCgqt2OFTIULer/1aZvD2GHMQe5ydXM4FJ40kRO8IgAa2ZH9guhFyI7J90WcOlzv+VJBqnpqfCCZCsmV5URyu3VuutP+zPHi3B274vx22b+GZk8LPmHCXgvxGuKXmUCWy0/l8RIXXDfWSQZnn1//cJJonHAkEBm1uLGhNI4jogmcDqfZC4enHGP5bOA7M8qdAmsUyXahHzk9sQsNgHFY5dEYFcestlLlsj4VtG2mrYzbL2AVTWMCvQkG/yAG5klBRbhXpelDMjEqiXo9iGmRm5kWhbdGfSXNKEdyXMtu42bmDZktJSXyP+KfVfN+bhT2cj9MJrDyv7WHSKPOcZX9fHIAl36oGFfz+tx6eW36wi+kQUSqilUrf8ivf7sSc9XKyBP+HSlb7TbcNwbK5coCRyp75im0Xdxb2QPOr8/kw62StlS9876neR6XmU/pA3J7KZ3+gvp4jeVVHcMZYEFciM7JVOKxtRyU60CO2R4uKbWpTMbuby4eUfigSX0DrnmIradTzTeVHOYCG3mudTgiUnvCRY2qsK4QX42lxoLTzrwDCUyA0MaYsaRQNNnXp+gfaPLbkopkBIRbvzUhLeEJf4z3BWdiS8wyXbDlMebgDL9GzyJ0tDQ0NDQ0NDQ0NDQ0NDwK/EA5b9OQ5UAdxevCEUbrx4X/DPQAeUwax+0TTnnFBL9B/LjroUSMvz0/X/RF9D7XCLHJCqc5wjNFCLJ8BE4T3CzIS+wI+2GCaDzP8K5EpYR43QM3CNfObbtOoca2DmcjWkKBU8pVpgWW4MU9vIr/LlXKmCZDq+f3T6dCuERBEMKT4cBR1le2VNoj06FMLJeReG9usKsW/rmJ6+xRoWo1oYUCgel0va3tueP6VRYSRuKR8EST6iLuze/ow3bxRRaNP6EvLMU9m6uW6GF5+cDMybuZlakkKBJ/x+c8QsrjItVWMCd8GoUku57HwJtkuIK5fi9IbI0dCqE7eIk/0lCuMRFVaHFlsC8kWJCKlKYEbdQRiE0b0Ip1vwGFIrmTUwY9i0ovJg37Zg/llSY0tkqVBjN/Yet/FXc3xQV2nPHOa9hvZb3/ksU7kOwPBSjUUyhZaOJTfiqmsbSH+j6b/zhBVWFKaCGEhXieDvcpIPyCq2kw0TVKLRcgBGFSVSkMPWTjcL/s8KkitnC4uKqFbJN/HkaMphfJF61Qjpb4Jjhw9fPRdfWdSvso9Xu8X974k3vV68Qeiz2HALMq1dow/hMjQojYw2MrvxwTVUJhSMCyafQnndDEezMLaMQGtw/GyLFFY6+/YkIuAQpWWGWXVpOYev+7CU+7SwUVyjdR528gHCSXTi6FZ6OlAXkFGBeQiH6uJdTYcYNrmUVHo8k2e75WHDlCmnGFW4KCsVrGoXNmTG32N+L1616hRmB2OUVthZcPMh2g23YaoHx2ZDClDV+Rj8UL73GB5tG8JBhokLAr1aIVsuuDRU+/k6F9l0I2cC63aXcIxVAhYvfqRBZbZHdBj97AwoxyARoFAr061RYfId0nuJ8uQ2FaeuzRmGVCrXEYvxmhXoihrIUvptQKMYmviKF/4Q5DkV9/SPJoPmwR1M+C+8wmSVHQwrcJ1c5juHZBdF9w+ZX2D0TwkubvG4nmS48Cz0WvkbiLfFru4nXRE0vVe7cZM7BhoaGhoaGhoaGhoaGhoaGhjic7d2ZQUTb9C3bnaiQS5F3K/OemJDbIszwReLfFBRHqrhaH+W2MHtX+gO6pJFVcq23C0MER8TYzYneC45jq+Y6uhlycLtZsQmFC8Lb/FTrXcUpDHGKQG7kukbpDtoKE3hI6fqU88rmKUS6R7jKq5KlQ1XkQXfqgrmUj6jae9nv8UaurZY5NYv+F96hqjxDibRX7XK13LmphNLV+vay8vQPd3KWwFHRvPKI2bP03XYdCTzkiAOXznXUY8OlgPWg+hbc8yFv/JbM37Fn7MqxGq75lIfxxOUoIXapuXHxEHtuhMTfNmCeuOCfqAkKa1xsaUJmT6KaiV0PYXzsj0tYt0i3GT+kJIck1SZ/OBKTZ+askd4r2si70E1qvyO/IksJqBBdhrmvwvb8VXbu0solTrJSy40IfdnkaMl+Z8tJntylFSeWm+bJnReJpK/hNHGSdB47bZKcNxjnziP4AIhJcI6LZGxCKNv2ftIfHoXt+o9+d/0acJSrG/48/APnPzwl76yCTykDakZaOHJMYckP//IksSRfUylXvZV+XZROpBsbSCdQPbObyo9xNED906UVmac+Hkb3WZ3D7BSGebF5+6hkKhVUzWjjSc118NQ4Pa5Fo0235yi9TylzfCWumjkWcgqa3PUKpuQWYHQrTDG+/GNW8J4+SlP9JdrU2dD0vLnpuITPYZQlvoTCYhVYqNKbE4DO8fainDr+B5uwDXYvS12+Ap/pRHpxcHDrokdikhhmEBA+iDt9+iT9nsY9UoH03sQ4aMZtqtCSLiN8O4nvYFKCMIsanhSlJnRJ/FJpuP5Kzdl8UUdJ209ebklx4aYbcYlbhiafbN75vZfIfEmyXvaWDg3anYyrO6V3wVySsD3DuMTxaXiLyXplHe008TnC2Xevk2yVX5CMfLN5V1/xmUg333OzxdjfCBKJghtgjTsGNzgnyrawQs6uqXhVicpOxwNeRhk0bN7Qz6mUGFBsQyUHoWfDAcvkWIOMfbUF24O45FJ602ZoOWrwNYVmp2LeTDBIUaUtgAXcasu6maI4O1BJRa8C3DtW7EtTIJEYW+yLx1aV3SbwXiuloaaFJOILD/UBLqpQ3XOG1pCtukYQL1Ey55MSr59Oups5EegiHz2pPj+7ZEE214bnDJasgPm7hrMaU/4C7/U0pBJzeXOfDgO+zQcFhusPqJAWKN5nx8Fcxc5QpL8/zchXhUxftKVaROH+VY9qwE1utnmT0C8Y5oWthYLbuotOaChCqTSaFP5isMK666Of+c0rRGMpqbs++oHzoZtz6XxNQJsmqGNj3jDQQy/dd3cDwN0AVleIjEF2ZdaH1wHMOKIpzO9XsS3sp7kWxDi42oLxjCL6y1WdGFeCeKHObd6zIqwQb9Bm23N5TW9xNjywPLnLuOkjb3Vx2pXPurj0inmwb3cyPOLsAxFdpR2ra2O2pJTessCIx+HtuaBq5T/zzr4rwjaziwAAAABJRU5ErkJggg==;" vertex="1" parent="1">
          <mxGeometry x="180" y="397.92" width="22.5" height="22.5" as="geometry" />
        </mxCell>
        <mxCell id="yJn59ZeG1h24RHHP3LN4-106" value="" style="shape=image;verticalLabelPosition=bottom;labelBackgroundColor=default;verticalAlign=top;aspect=fixed;imageAspect=0;image=data:image/png,iVBORw0KGgoAAAANSUhEUgAAAOEAAADhCAMAAAAJbSJIAAAAllBMVEX///8PFokAAIQAAH8AAIUAAH4ABoby8vhoaqlfYaUKEoilpsmdn8Z4erH5+vy2t9Pc3eoADYdxc65cXqOYmcLGx90FD4i+v9isrc1AQ5jLzODm5vBkZqjS0+TNzuEaIIwvM5JUV6CChLeKjLtMT506PZYoLJBWWKGrrM3t7fTh4e10drCFh7ghJo4VG4tGSZstMZIAAHW+sXsNAAAMLklEQVR4nO2deX+iPBDHJQdYVJCKRz1qPXrYbtvd9//mHtSqmQlXIIHqw/ezf23F5GdIMplMMq1Wg3Zm/bprYBZvy2kwrbsWBvEsZlkuH9ZdD3NsI4ER1Km7IqYY04NAi93XXRNTfI6OCi0+q7sqZnj8acKoEdd118UMH+yk0CV118UMxD0ptOhNDqeL80savaZ/6q6NCUJyUTh6qrs2JljZF4UW9+qujgGEbhh1xEXd1dHPTuiGlkUmdddHPwugkG3qro9+fCIqtOd110c/XaBw9Fx3ffSzYaJC1667PvrpAYUWrbs++mnfvMI7Gyq8vSl/cCUKh5OifiRNCt/H/q5gDfKwCyihdF2oiDlSWKgCb5+UEN4t9Gwung9zGuNF1j735UeaMSMHPwh/L/BwLmb8ZFW66n7dNZwPmXrxc/pju5NQ/eF8TM+mpcs7qg+HJW0a5+X8BeZ8dUOhklTVmTSBdulA8fEZu/RjYsyonYrLA6r4Qw6BQlVvW5+OhIfbag/nZwaXeB9lHlZ7y/tUXD4bXHqBSlpUrSCoUMnZNgMCLeIrFazCK5rT3lQefg7ER1XmVIeNQLnc3Jz/BvpSVNSjwsPidKG2eHoJQKmjv4rVVsDhUKGr0hTiUMNU+vAA2goGp8MW8ghGBE85H9z1hx1BIVEwvLqw9xve1xnj0kjWqL8bdnvfNqWRPQmeo5/tcJynqn303ljBtw4liQQuKi+tKz6GAxIpY9JDe0aMRH/chtOMRcZyhB6kY72SEB001lhuEP/BfnfLKbHjtIEGiZYK32GKlftHKvDLjLIzuMDY93Txx6UkwJ9MVklZL2HZ+Y7fUZOT4ZGuJBF3/Fn4RVlW2+GGYZSt41ryG/9Oo6VhgTE90V6Jfx5vOVGUdxb5LDXPEI9spnvhQYJc6GWXpeNSG/85P1GnDGGYxgseZuytcYGt1hZrOA3fXkiKNZ8AAT4S+dc0aLBd2Emd/9iIIS2tbw/jvXM7PuNeqGIplKCDf1kWrUjfmBZ9h687LVoWuKCgqt2OFTIULer/1aZvD2GHMQe5ydXM4FJ40kRO8IgAa2ZH9guhFyI7J90WcOlzv+VJBqnpqfCCZCsmV5URyu3VuutP+zPHi3B274vx22b+GZk8LPmHCXgvxGuKXmUCWy0/l8RIXXDfWSQZnn1//cJJonHAkEBm1uLGhNI4jogmcDqfZC4enHGP5bOA7M8qdAmsUyXahHzk9sQsNgHFY5dEYFcestlLlsj4VtG2mrYzbL2AVTWMCvQkG/yAG5klBRbhXpelDMjEqiXo9iGmRm5kWhbdGfSXNKEdyXMtu42bmDZktJSXyP+KfVfN+bhT2cj9MJrDyv7WHSKPOcZX9fHIAl36oGFfz+tx6eW36wi+kQUSqilUrf8ivf7sSc9XKyBP+HSlb7TbcNwbK5coCRyp75im0Xdxb2QPOr8/kw62StlS9876neR6XmU/pA3J7KZ3+gvp4jeVVHcMZYEFciM7JVOKxtRyU60CO2R4uKbWpTMbuby4eUfigSX0DrnmIradTzTeVHOYCG3mudTgiUnvCRY2qsK4QX42lxoLTzrwDCUyA0MaYsaRQNNnXp+gfaPLbkopkBIRbvzUhLeEJf4z3BWdiS8wyXbDlMebgDL9GzyJ0tDQ0NDQ0NDQ0NDQ0NDwK/EA5b9OQ5UAdxevCEUbrx4X/DPQAeUwax+0TTnnFBL9B/LjroUSMvz0/X/RF9D7XCLHJCqc5wjNFCLJ8BE4T3CzIS+wI+2GCaDzP8K5EpYR43QM3CNfObbtOoca2DmcjWkKBU8pVpgWW4MU9vIr/LlXKmCZDq+f3T6dCuERBEMKT4cBR1le2VNoj06FMLJeReG9usKsW/rmJ6+xRoWo1oYUCgel0va3tueP6VRYSRuKR8EST6iLuze/ow3bxRRaNP6EvLMU9m6uW6GF5+cDMybuZlakkKBJ/x+c8QsrjItVWMCd8GoUku57HwJtkuIK5fi9IbI0dCqE7eIk/0lCuMRFVaHFlsC8kWJCKlKYEbdQRiE0b0Ip1vwGFIrmTUwY9i0ovJg37Zg/llSY0tkqVBjN/Yet/FXc3xQV2nPHOa9hvZb3/ksU7kOwPBSjUUyhZaOJTfiqmsbSH+j6b/zhBVWFKaCGEhXieDvcpIPyCq2kw0TVKLRcgBGFSVSkMPWTjcL/s8KkitnC4uKqFbJN/HkaMphfJF61Qjpb4Jjhw9fPRdfWdSvso9Xu8X974k3vV68Qeiz2HALMq1dow/hMjQojYw2MrvxwTVUJhSMCyafQnndDEezMLaMQGtw/GyLFFY6+/YkIuAQpWWGWXVpOYev+7CU+7SwUVyjdR528gHCSXTi6FZ6OlAXkFGBeQiH6uJdTYcYNrmUVHo8k2e75WHDlCmnGFW4KCsVrGoXNmTG32N+L1616hRmB2OUVthZcPMh2g23YaoHx2ZDClDV+Rj8UL73GB5tG8JBhokLAr1aIVsuuDRU+/k6F9l0I2cC63aXcIxVAhYvfqRBZbZHdBj97AwoxyARoFAr061RYfId0nuJ8uQ2FaeuzRmGVCrXEYvxmhXoihrIUvptQKMYmviKF/4Q5DkV9/SPJoPmwR1M+C+8wmSVHQwrcJ1c5juHZBdF9w+ZX2D0TwkubvG4nmS48Cz0WvkbiLfFru4nXRE0vVe7cZM7BhoaGhoaGhoaGhoaGhoaGhjic7d2ZQUTb9C3bnaiQS5F3K/OemJDbIszwReLfFBRHqrhaH+W2MHtX+gO6pJFVcq23C0MER8TYzYneC45jq+Y6uhlycLtZsQmFC8Lb/FTrXcUpDHGKQG7kukbpDtoKE3hI6fqU88rmKUS6R7jKq5KlQ1XkQXfqgrmUj6jae9nv8UaurZY5NYv+F96hqjxDibRX7XK13LmphNLV+vay8vQPd3KWwFHRvPKI2bP03XYdCTzkiAOXznXUY8OlgPWg+hbc8yFv/JbM37Fn7MqxGq75lIfxxOUoIXapuXHxEHtuhMTfNmCeuOCfqAkKa1xsaUJmT6KaiV0PYXzsj0tYt0i3GT+kJIck1SZ/OBKTZ+askd4r2si70E1qvyO/IksJqBBdhrmvwvb8VXbu0solTrJSy40IfdnkaMl+Z8tJntylFSeWm+bJnReJpK/hNHGSdB47bZKcNxjnziP4AIhJcI6LZGxCKNv2ftIfHoXt+o9+d/0acJSrG/48/APnPzwl76yCTykDakZaOHJMYckP//IksSRfUylXvZV+XZROpBsbSCdQPbObyo9xNED906UVmac+Hkb3WZ3D7BSGebF5+6hkKhVUzWjjSc118NQ4Pa5Fo0235yi9TylzfCWumjkWcgqa3PUKpuQWYHQrTDG+/GNW8J4+SlP9JdrU2dD0vLnpuITPYZQlvoTCYhVYqNKbE4DO8fainDr+B5uwDXYvS12+Ap/pRHpxcHDrokdikhhmEBA+iDt9+iT9nsY9UoH03sQ4aMZtqtCSLiN8O4nvYFKCMIsanhSlJnRJ/FJpuP5Kzdl8UUdJ209ebklx4aYbcYlbhiafbN75vZfIfEmyXvaWDg3anYyrO6V3wVySsD3DuMTxaXiLyXplHe008TnC2Xevk2yVX5CMfLN5V1/xmUg333OzxdjfCBKJghtgjTsGNzgnyrawQs6uqXhVicpOxwNeRhk0bN7Qz6mUGFBsQyUHoWfDAcvkWIOMfbUF24O45FJ602ZoOWrwNYVmp2LeTDBIUaUtgAXcasu6maI4O1BJRa8C3DtW7EtTIJEYW+yLx1aV3SbwXiuloaaFJOILD/UBLqpQ3XOG1pCtukYQL1Ey55MSr59Oups5EegiHz2pPj+7ZEE214bnDJasgPm7hrMaU/4C7/U0pBJzeXOfDgO+zQcFhusPqJAWKN5nx8Fcxc5QpL8/zchXhUxftKVaROH+VY9qwE1utnmT0C8Y5oWthYLbuotOaChCqTSaFP5isMK666Of+c0rRGMpqbs++oHzoZtz6XxNQJsmqGNj3jDQQy/dd3cDwN0AVleIjEF2ZdaH1wHMOKIpzO9XsS3sp7kWxDi42oLxjCL6y1WdGFeCeKHObd6zIqwQb9Bm23N5TW9xNjywPLnLuOkjb3Vx2pXPurj0inmwb3cyPOLsAxFdpR2ra2O2pJTessCIx+HtuaBq5T/zzr4rwjaziwAAAABJRU5ErkJggg==;" vertex="1" parent="1">
          <mxGeometry x="730" y="572.5" width="22.5" height="22.5" as="geometry" />
        </mxCell>
        <mxCell id="yJn59ZeG1h24RHHP3LN4-107" value="" style="shape=image;verticalLabelPosition=bottom;labelBackgroundColor=default;verticalAlign=top;aspect=fixed;imageAspect=0;image=data:image/png,iVBORw0KGgoAAAANSUhEUgAAA+gAAAPoCAYAAABNo9TkAAAAAXNSR0IArs4c6QAAAGhlWElmTU0AKgAAAAgABAEGAAMAAAABAAIAAAESAAMAAAABAAEAAAEoAAMAAAABAAIAAIdpAAQAAAABAAAAPgAAAAAAA6ABAAMAAAABAAEAAKACAAQAAAABAAAD6KADAAQAAAABAAAD6AAAAACa1AqcAAAC5mlUWHRYTUw6Y29tLmFkb2JlLnhtcAAAAAAAPHg6eG1wbWV0YSB4bWxuczp4PSJhZG9iZTpuczptZXRhLyIgeDp4bXB0az0iWE1QIENvcmUgNi4wLjAiPgogICA8cmRmOlJERiB4bWxuczpyZGY9Imh0dHA6Ly93d3cudzMub3JnLzE5OTkvMDIvMjItcmRmLXN5bnRheC1ucyMiPgogICAgICA8cmRmOkRlc2NyaXB0aW9uIHJkZjphYm91dD0iIgogICAgICAgICAgICB4bWxuczp0aWZmPSJodHRwOi8vbnMuYWRvYmUuY29tL3RpZmYvMS4wLyIKICAgICAgICAgICAgeG1sbnM6ZXhpZj0iaHR0cDovL25zLmFkb2JlLmNvbS9leGlmLzEuMC8iPgogICAgICAgICA8dGlmZjpDb21wcmVzc2lvbj4xPC90aWZmOkNvbXByZXNzaW9uPgogICAgICAgICA8dGlmZjpSZXNvbHV0aW9uVW5pdD4yPC90aWZmOlJlc29sdXRpb25Vbml0PgogICAgICAgICA8dGlmZjpPcmllbnRhdGlvbj4xPC90aWZmOk9yaWVudGF0aW9uPgogICAgICAgICA8dGlmZjpQaG90b21ldHJpY0ludGVycHJldGF0aW9uPjI8L3RpZmY6UGhvdG9tZXRyaWNJbnRlcnByZXRhdGlvbj4KICAgICAgICAgPGV4aWY6UGl4ZWxYRGltZW5zaW9uPjEwMDA8L2V4aWY6UGl4ZWxYRGltZW5zaW9uPgogICAgICAgICA8ZXhpZjpDb2xvclNwYWNlPjE8L2V4aWY6Q29sb3JTcGFjZT4KICAgICAgICAgPGV4aWY6UGl4ZWxZRGltZW5zaW9uPjEwMDA8L2V4aWY6UGl4ZWxZRGltZW5zaW9uPgogICAgICA8L3JkZjpEZXNjcmlwdGlvbj4KICAgPC9yZGY6UkRGPgo8L3g6eG1wbWV0YT4KUqsnxAAAQABJREFUeAHs3QfcnePZAPD7lRCZRBJ7lKBUKUrtPauilNrUHm21/aqtllatDlrjQ+29V63ECmqvopSittqSSIhEhEi+8xyN75W844znOc/6n9/v/b3ve87z3Pd1/a8j3uvczwjBgwABAgQIECBAgAABAgQIECBAgAABAgQIECBAgAABAgQIECBAgAABAgQIECBAgAABAgQIECBAgAABAgQIECBAgAABAgQIECBAgAABAgQIECBAgAABAgQIECBAgAABAgQIECBAgAABAgQIECBAgAABAgQIECBAgAABAgQIECBAgAABAgQIECBAgAABAgQIECBAgAABAgQIECBAgAABAgQIECBAgAABAgQIECBAgAABAgQIECBAgAABAgQIECBAgAABAgQIECBAgAABAgQIECBAgAABAgQIECBAgAABAgQIECBAgAABAgQIECBAgAABAgQIECBAgAABAgQIECBAgAABAgQIECBAgAABAgQIECBAgAABAgQIECBAgAABAgQIECBAgAABAgQIECBAgAABAgQIECBAgAABAgQIECBAgAABAgQIECBAgAABAgQIECBAgAABAgQIECBAgAABAgQIECBAgAABAgQIECBAgAABAgQIECBAgAABAgQIECBAgAABAgQIECBAgAABAgQIECBAgAABAgQIECBAgAABAgQIECBAgAABAgQIECBAgAABAgQIECBAgAABAgQIECBAgAABAgQIECBAgAABAgQIECBAgAABAgQIECBAgAABAgQIECBAgAABAgQIECBAgAABAgQIECBAgAABAgQIECBAgAABAgQIECBAgAABAgQIECBAgAABAgQIECBAgAABAgQIECBAgAABAgQIECBAgAABAgQIECBAgAABAgQIECBAgAABAgQIECBAgAABAgQIECBAgAABAgQIECBAgAABAgQIECBAgAABAgQIECBAgAABAgQIECBAgAABAgQIECBAgAABAgQIECBAgAABAgQIECBAgAABAgQIECBAgAABAgQIECBAgAABAgQIECBAgAABAgQIECBAgAABAgQIECBAgAABAgQIECBAgAABAgQIECBAgAABAgQIECBAgAABAgQIECBAgAABAgQIECBAgAABAgQIECBAgAABAgQIECBAgAABAgQIECBAgAABAgQIECBAgAABAgQIECBAgAABAgQIECBAgAABAgQIECBAgAABAgQIECBAgAABAgQIECBAgAABAgQIECBAgAABAgQIECBAgAABAgQIECBAgAABAgQIECBAgAABAgQIECBAgAABAgQIECBAgAABAgQIECBAgAABAgQIECBAgAABAgQIECBAgAABAgQIECBAgAABAgQIECBAgAABAgQIECBAgAABAgQIECBAgAABAgQIECBAgAABAgQIECBAgAABAgQIECBAgAABAgQIECBAgAABAgQIECBAgAABAgQIECBAgAABAgQIECBAgAABAgQIECBAgAABAgQIECBAgAABAgQIECBAgAABAgQIECBAgAABAgQIECBAgAABAgQIECBAgAABAgQIECBAgAABAgQIECBAgAABAgQIECBAgAABAgQIECBAgAABAgQIECBAgAABAgQIECBAgAABAgQIECBAgAABAgQIECBAgAABAgQIECBAgAABAgQIECBAgAABAgQIECBAgAABAgQIECBAgAABAgQIECBAgAABAgQIECBAgAABAgQIECBAgAABAgQIECBAgAABAgQIECBAgAABAgQIECBAgAABAgQIECBAgAABAgQIECBAgAABAgQIECBAgAABAgQIECBAgAABAgQIECBAgAABAgQIECBAgAABAgQIECBAgAABAgQIECBAgAABAgQIECBAgAABAgQIECBAgAABAgQIECBAgAABAgQIECBAgAABAgQIECBAgAABAgQIECBAgAABAgQIECBAgAABAgQIECBAgAABAgQIECBAgAABAgQIECBAgAABAgQIECBAgAABAgQIECBAgAABAgQIECBAgAABAgQIECBAgAABAgQIECBAgAABAgQIECBAgAABAgQIECBAgAABAgQIECBAgAABAgQIECBAgAABAgQIECBAgAABAgQIECBAgAABAgQIECBAgAABAgQIECBAgAABAgQIECBAgAABAgQIECBAgAABAgQIECBAgAABAgQIECBAgAABAgQIECBAgAABAgQIECBAgAABAgQIECBAgAABAgQIECBAgAABAgQIECBAgAABAgQIECBAgAABAgQIECBAgAABAgQIECBAgAABAgQIECBAgAABAgQIECBAgAABAgQIECBAgAABAgQIECBAgAABAgQIECBAgAABAgQIECBAgAABAgQIECBAgAABAgQIECBAgAABAgQIECBAgAABAgQIECBAgAABAgQIECBAgAABAgQIECBAgAABAgQIECBAgAABAgQIECBAgAABAgQIECBAgAABAgQIECBAgAABAgQIECBAgAABAgQIECBAgAABAgQIECBAgAABAgQIECBAgAABAgQIECBAgAABAgQIECBAgAABAgQIECBAgAABAgQIECBAgAABAgQIECBAgAABAgQIECBAgAABAgQIECBAgAABAgQIECBAgAABAgQIECBAgAABAgQIECBAgAABAgQIECBAgAABAgQIECBAgAABAgQIECBAgAABAgQIECBAgAABAgQIECBAgAABAgQIECBAgAABAgQIECBAgAABAgQIECBAgAABAgQIECBAgAABAgQIECBAgAABAgQIECBAgAABAgQIECBAgAABAgQIECBAgAABAgQIECBAgAABAgQIECBAgAABAgQIECBAgAABAgQIECBAgAABAgQIECBAgAABAgQIECBAgAABAgQIECBAgAABAgQIECBAgAABAgQIECBAgAABAgQIECBAgAABAgQIECBAgAABAgQIECBAgAABAgQIECBAgAABAgQIECBAgAABAgQIECBAgAABAgQIECBAgAABAgQIECBAgAABAgQIECBAgAABAgQIECBAgAABAgQIECBAgAABAgQIECBAgAABAgQIECBAgAABAgQIECBAgAABAgQIECBAgAABAgQIECBAgAABAgQIECBAgAABAgQIECBAgAABAgQIECBAgAABAgQIECBAgAABAgQIECBAgAABAgQIECBAgAABAgQIECBAgAABAgQIECBAgAABAgQIECBAgAABAgQIECBAgAABAgQIECBAgAABAgQIECBAgAABAgQIECBAgAABAgQIECBAgAABAgQIECBAgAABAgQyJNCWoViEQoAAAQIECiMw14JD92kLbcOKkNC0MG342NdfPKMIuciBAAECBAhkWUCDnuXqiI0AAQIEMiVQT9M9LYTNMxV8k8FU/mAYUesQGvpapWxHgAABAgS+KKBB/6KH3wgQIECgpAK1NN9Fa7qTLHVXDb0GPkl5YxMgQIBAngU06HmuntgJECBAoGaB7hpwzXfNlLFsqIGPhdEgBAgQIFAwAQ16wQoqHQIECJRdoLNGXAOer3dGRw28lfd81VC0BAgQIFC/gAa9fjN7ECBAgEAGBDTiGShCCiFo3FNANyUBAgQItExAg94yahMRIECAQKMCHTXjVsQb1SzmfjM27lbbi1lnWREgQKDoAhr0oldYfgQIEMiZgGY8ZwXLcLia9gwXR2gECBAg0KGABr1DFk8SIECAQCsENOOtUDZHewFNe3sNPxMgQIBA1gQ06FmriHgIECBQYIEZG3KHqRe42DlKrX3T7tD4HBVOqAQIECiggAa9gEWVEgECBLIioCHPSiXEUY+Ahr0eLdsSIECAQJwCGvQ4NY1FgACBkgtoyEv+Biho+hr2ghZWWgQIEMiggAY9g0UREgECBPIioCHPS6XEGaeAhj1OTWMRIECAQHsBDXp7DT8TIECAQLcC7Zty55B3y2WDEghMb9idv16CYkuRAAECCQto0BMGNjwBAgTyLtC+IY9y0ZTnvaLiT1JgerMezaFhT1La2AQIECimgAa9mHWVFQECBJoSaN+Ua8iborRzyQWmN+ya9ZK/EaRPgACBGgU06DVC2YwAAQJFF9CUF73C8ktbQLOedgXMT4AAgewLaNCzXyMREiBAIBGB9g15NIGV8kSYDUqgQ4HpzXr0otX1Dok8SYAAgVIKaNBLWXZJEyBQVoH2TbmGvKzvAnlnUWB6w65Zz2J1xESAAIHWCWjQW2dtJgIECKQmML0x15SnVgITE6hZQLNeM5UNCRAgUDgBDXrhSiohAgQIfCYwvSmPftOYe1cQyKdA1KxbVc9n7URNgACBRgQ06I2o2YcAAQIZFdCUZ7QwwiLQpIBV9SYB7U6AAIGcCGjQc1IoYRIgQKAzAU15ZzKeJ1BMAc16MesqKwIECEQCGnTvAwIECORQQFOew6IJmUACApr1BFANSYAAgRQFNOgp4puaAAEC9QpMb8ydU16vnO0JFF8gatadr178OsuQAIFiC2jQi11f2REgUACB6U15lIrGvAAFlQKBhAWsqicMbHgCBAgkKKBBTxDX0AQIEGhGYHpjrilvRtG+BMotYFW93PWXPQEC+RPQoOevZiImQKDAAtOb8ihFjXmBCy01Ai0WsKreYnDTESBAoEEBDXqDcHYjQIBAnALTG3NNeZyqxiJAoCMBq+odqXiOAAEC2RDQoGejDqIgQKCkAhrzkhZe2gQyIKBRz0ARhECAAIEZBDToM4D4lQABAkkLTG/Ko3msmCetbXwCBLoTiBr1aBtXgO9OyusECBBIXkCDnryxGQgQIFAVmN6Ya8q9IQgQyKqAVfWsVkZcBAiURUCDXpZKy5MAgdQENOap0ZuYAIEGBTTqDcLZjQABAk0KaNCbBLQ7AQIEOhPQmHcm43kCBPIioFHPS6XESYBAUQQ06EWppDwIEMiMgMY8M6UQCAECMQlo1GOCNAwBAgS6EdCgdwPkZQIECNQqoDGvVcp2BAjkVSBq1KPYXVAurxUUNwECWRfQoGe9QuIjQCDzAhrzzJdIgAQIJCBgVT0BVEMSIFB6AQ166d8CAAgQaFRAY96onP0IECiSgEa9SNWUCwECaQto0NOugPkJEMidgMY8dyUTMAECLRDQqLcA2RQECBReQINe+BJLkACBuAQ05nFJGocAgSILaNSLXF25ESCQtIAGPWlh4xMgkHsBjXnuSygBAgRSENCop4BuSgIEci+gQc99CSVAgEBSAhrzpGSNS4BAuQSm7Tv29RfPKFfOsiVAgEBjAhr0xtzsRYBAgQU05gUurtQIEEhFwGp6KuwmJUAghwIa9BwWTcgECCQjoDFPxtWoBAgQmC6gUZ8u4TsBAgQ6FtCgd+ziWQIESiSgMS9RsaVKgEAmBDTqmSiDIAgQyKCABj2DRRESAQKtEdCYt8bZLAQIEOhMQKPemYznCRAoq4AGvayVlzeBkgtEzXkIbaeXnEH6BAgQyISARj0TZRAEAQIZENCgZ6AIQiBAoHUCVs1bZ20mAgQI1C/giu/1m9mDAIEiCWjQi1RNuRAg0KmAxrxTGi8QIEAgUwJW0zNVDsEQINBiAQ16i8FNR4BAawU05q31NhsBAgTiEtCoxyVpHAIE8iSgQc9TtcRKgEBdAs4zr4vLxgQIEMikgEY9k2URFAECCQlo0BOCNSwBAukJWDVPz97MBAgQSE7A+enJ2RqZAIGsCGjQs1IJcRAg0LSAxrxpQgMQIEAg0wJW0zNdHsERIBCDgAY9BkRDECCQvoDD2dOvgQgIECDQOgGr6a2zNhMBAq0U0KC3UttcBAjELmDVPHZSAxIgQCAXAlbTc1EmQRIgUKeABr1OMJsTIJANAY15NuogCgIECKQtoFFPuwLmJ0AgTgENepyaxiJAoCUCDmdvCbNJCBAgkDMBh73nrGDCJUCgAwENegconiJAIJsCVs2zWRdRESBAICsCVtOzUglxECDQqIAGvVE5+xEg0FIBq+Yt5TYZAQIEci5gNT3nBRQ+gdIKaNBLW3qJE8iHgFXzfNRJlAQIEMiagNX0rFVEPAQI1CKgQa9FyTYECKQiYNU8FXaTEiBAoGACVtMLVlDpECi0gAa90OWVHIF8Clg1z2fdRE2AAIGsClhNz2plxEWAwIwCGvQZRfxOgECqAlbNU+U3OQECBAouYDW94AWWHoHcC2jQc19CCRAohoBV82LUURYECBDIuoDV9KxXSHwEyi2gQS93/WVPIBMCVs0zUQZBECBAoGQCVtNLVnDpEsiFgAY9F2USJIFiClg1L2ZdZUWAAIG8CFhNz0ulxEmgPAIa9PLUWqYEMiVg1TxT5RAMAQIESi5gNb3kbwDpE8iMQI/MRCIQAgRKI6A5L02pJUqAAIGcCLQN6zNgrpV6DxjYf9L4cY/mJGhhEiBQQAEr6AUsqpQIZFXAIe1ZrYy4CBAgQOD/Baym/7+FnwgQaLWAFfRWi5uPQEkF2q2aL1lSAmkTIECAQC4E2oZVVtLfspKei2IJkkDhBKygF66kEiKQLQGr5tmqh2gIECBAoDYBF5CrzclWBAjEK6BBj9fTaAQItBNot2re7lk/EiBAgACBPAk45D1P1RIrgbwLOMQ97xUUP4GMCmjOM1oYYREgQIBAnQIOea8TzOYECDQhYAW9CTy7EiAws4BD2mc28QwBAgQI5F/AIe/5r6EMCORBQIOehyqJkUBOBKya56RQwiRAgACBJgQc8t4Enl0JEOhGwCHu3QB5mQCB2gQ057U52YoAAQIE8i7gkPe8V1D8BLIsYAU9y9URG4EcCDikPQdFEiIBAgQIxC7gkPfYSQ1IgEBFQIPubUCAQMMCVs0bprMjAQIECBRGwCHvhSmlRAhkQMAh7hkoghAI5FFAc57HqomZAAECBOIXcMh7/KZGJFBeAQ16eWsvcwINC2jOG6azIwECBAgUUkCTXsiySopACgIOcU8B3ZQE8irgfPO8Vk7cBAgQINAKAeelt0LZHASKLaBBL3Z9ZUcgNgGr5rFRGogAAQIECi/gvPTCl1iCBBIScIh7QrCGJVAkAc15kaopFwIECBBIXsAh78kbm4FAMQU06MWsq6wIxCagOY+N0kAECBAgUCoBTXqpyi1ZAjEJaNBjgjQMgSIKaM6LWFU5ESBAgEDrBNqG9Rkw10q9BwzsP2n8uEdbN6+ZCBDIq4Bz0PNaOXETSFAgaszbQtuwaSFsnuA0hiZAgAABAiUScF56iYotVQINC1hBb5jOjgSKKdBu1XzJYmYoKwIECBAgkIaAQ97TUDcngbwJaNDzVjHxEkhQoF1znuAshiZAgAABAmUV0KSXtfLyJlCrgAa9VinbESi4gOa84AWWHgECBAhkRECTnpFCCINAJgU06Jksi6AItFZAc95ab7MRIECAQNkFNOllfwfIn0BnAhr0zmQ8T6AkAprzkhRamgQIECCQMQFXeM9YQYRDIBMCruKeiTIIgkDrBaLG3JXaW+9uRgIECBAgMLOAK7zPbOIZAuUUsIJezrrLuuQC7VbNXam95O8F6RMgQIBAFgQc8p6FKoiBQBYENOhZqIIYCLRQoF1z3sJZTUWAAAECBAh0LaBJ79rHqwTKIaBBL0edZUmgKqA590YgQIAAAQJZFtCkZ7k6YiPQCgENeiuUzUEgAwKa8wwUQQgECBAgQKBbAU16t0Q2IFBgAQ16gYsrNQLTBTTn0yV8J0CAAAECeRDQpOehSmIkkISABj0JVWMSyJCA5jxDxRAKAQIECBCoWUCTXjOVDQkUSECDXqBiSoXAjAKa8xlF/E6AAAECBPIkoEnPU7XESiAOAQ16HIrGIJBBAc15BosiJAIECBAgULeAJr1uMjsQyLGABj3HxRM6gc4ENOedyXieAAECBAjkUUCTnseqiZlAIwIa9EbU7EMgwwKa8wwXR2gECBAgQKBhgbZhfQbMtVLvAQP7Txo/7tGGh7EjAQKZFtCgZ7o8giNQn4DmvD4vWxMgQIAAgZwJLBmC1fSc1Uy4BOoS0KDXxWVjAtkV0JxntzYiI0CAAAEC8Qpo0uP1NBqB7Aho0LNTC5EQaFhAc94wnR0JECBAgEBOBTTpOS2csAl0KaBB75LHiwSyL6A5z36NREiAAAECBJIR0KQn42pUAukJaNDTszczgaYFNOdNExqAAAECBAjkXECTnvMCCp/AFwQ06F/g8AuB/AhozvNTK5ESIECAAIFkBTTpyfoanUDrBDTorbM2E4HYBDTnsVEaiAABAgQIFERAk16QQkqj5AIa9JK/AaSfPwHNef5qJmICBAgQINAaAU16a5zNQiA5AQ16crZGJhC7gOY8dlIDEiBAgACBgglo0gtWUOmUTGCWkuUrXQK5FdCc57Z0AidAgAABAi0VaAttw1o6ockIEIhNwAp6bJQGIpCcgOY8OVsjEyBAgACBAgos2XvAwLcmjR/3aAFzkxKBQgto0AtdXskVQUBzXoQqyoEAAQIECLRawKHurRY3H4E4BDTocSgag0BCAprzhGANS4AAAQIESiGgSS9FmSVZKAENeqHKKZkiCWjOi1RNuRAgQIAAgbQENOlpyZuXQCMCGvRG1OxDIGEBzXnCwIYnQIAAAQKlEtCkl6rcks21gAY91+UTfBEFNOdFrKqcCBAgQIBA2gKa9LQrYH4CtQho0GtRsg2BFglozlsEbRoCBAgQIFBKAU16Kcsu6VwJaNBzVS7BFllAc17k6sqNAAECBAhkRUCTnpVKiINARwIa9I5UPEegxQKa8xaDm44AAQIECJRaQJNe6vJLPtMCGvRMl0dwZRDQnJehynIkQIAAAQJZE9CkZ60i4iEQCcyCgQCBdAXaQtuwdCMwOwECBAgQIFBOgbbTP1soKGf2siaQRQENeharIqbSCET/U5wWwualSViiBAgQIECAQKYELBRkqhyCIRAc4u5NQCAlAYe2pwRvWgIECBAgQKC9wJK9Bwx8a9L4cY+2f9LPBAikI6BBT8fdrCUX0JyX/A0gfQIECBAgkCkB56NnqhyCKbWABr3U5Zd8GgKa8zTUzUmAAAECBAh0LaBJ79rHqwRaI6BBb42zWQhUBTTn3ggECBAgQIBAdgU06dmtjcjKIqBBL0ul5Zm6gOY89RIIgAABAgQIEOhWQJPeLZENCCQo4CruCeIamkB7AVdJba/hZwIECBAgQCC7Am6/lt3aiKzoAhr0oldYfpkQiFbP3U4tE6UQBAECBAgQIFCDgIWFGpBsQiABAYe4J4BqSALtBRza3l7DzwQIECBAgEBOBNx+LSeFEmaxBDToxaqnbDImoDnPWEGEQ4AAAQIECNQh4Hz0OrBsSiAWAQ16LIwGITCzgOZ8ZhPPECBAgAABAnkT0KTnrWLizbeABj3f9RN9RgU05xktjLAIECBAgACBBgQ06Q2g2YVAQwIuEtcQm50IdC3gwipd+3iVAAECBAgQyJuAK7vnrWLizaeABj2fdRN1hgWi1XNXbM9wgYRGgAABAgQINCRgAaIhNjsRqEvAIe51cdmYQNcCDm3v2serBAgQIECAQK4FXNk91+UTfB4ENOh5qJIYcyGgOc9FmQRJgAABAgQINCXgfPSm+OxMoBsBDXo3QF4mUIuA5rwWJdsQIECAAAECxRDQpBejjrLIooBz0LNYFTHlTsA5WbkrmYAJECBAgACBJgT87dMEnl0JdCFgBb0LHC8RqEXgv6vnB9ayrW0IECBAgAABAgURcD56QQopjWwJaNCzVQ/R5EzAoe05K5hwCRAgQIAAgRgFHOoeI6ahCFQFNOjeCAQaFNCcNwhnNwIECBAgQKBAApr0AhVTKhkQcA56BooghHwKOPcqn3UTNQECBAgQIBCvgL+J4vU0WrkFrKCXu/6yb1DAeecNwtmNAAECBAgQKKKA89GLWFU5pSKgQU+F3aR5FnBoe56rJ3YCBAgQIEAgGQGHuifjatSyCWjQy1Zx+TYloDlvis/OBAgQIECAQKEFNOmFLq/kWiLgHPSWMJukKALOsSpKJeVBgAABAgQIJCHgb6UkVI1ZJgEr6GWqtlybEnDeeVN8diZAgAABAgTKIeB89HLUWZYJCWjQE4I1bLEEHNperHrKhgABAgQIEEhSwKHuSeoau9gCGvRi11d2MQhozmNANAQBAgQIECBQMgFNeskKLt2YBJyDHhOkYYor4Fyq4tZWZgQIECBAgEByAv6GSs7WyMUVsIJe3NrKLAYB553HgGgIAgQIECBAoKwCzkcva+Xl3bCABr1hOjsWXcCh7UWvsPwIECBAgACB5AUc6p68sRmKJOAQ9yJVUy6xCjgsK1ZOgxEgQIAAAQIlFfA3VUkLL+2GBKygN8Rmp6ILOLS96BWWHwECBAgQINBCAYe6txDbVPkW0KDnu36iT0DAoe0JoBqSAAECBAgQKLmAQ91L/gaQfo0CDnGvEcpm5RFwGFZ5ai1TAgQIECBAoJUCbad/thDSyjnNRSBfAhr0fNVLtAkLRP/TmBbC5glPY3gCBAgQIECAQCkFLISUsuySrkPAIe51YNm02AIObS92fWVHgAABAgQIZELA+eiZKIMgsipgBT2rlRFXywV8ottychMSIECAAAECpRRwqHspyy7pmgQ06DUx2ajoAg5tL3qF5UeAAAECBAhkScDCSJaqIZYsCTjEPUvVEEsqAg5tT4XdpAQIECBAgEC5BRzqXu76y74TASvoncB4ujwCPsEtT61lSoAAAQIECGRJwKHuWaqGWLIhoEHPRh1EkZKAQ9tTgjctAQIECBAgQKAiYKHE24DAFwUc4v5FD7+VSMCh7SUqtlQJECBAgACBrAo41D2rlRFXKgJW0FNhN2kWBHxim4UqiIEAAQIECBAou4C/ycr+DpB/ewEr6O01/Fwagf+unh9YmoQlSoAAAQIECBDIroBV9OzWRmQtFtCgtxjcdOkLOLQ9/RqIgAABAgQIECDwRYG2Yb0HDHxr0vhxj37xeb8RKJeAQ9zLVW/ZVgQcRuVtQIAAAQIECBDInoC/0bJXExG1XsAKeuvNzZiigEPbU8Q3NQECBAgQIECgawGHunft49USCFhBL0GRpfj/Aj6Z/X8LPxEgQIAAAQIEsifg3ujZq4mIWimgQW+ltrlSFYhWz6eFsHmqQZicAAECBAgQIECgSwELKl3yeLHgAg5xL3iBpfeZgAvDeScQIECAAAECBHIj4FD33JRKoHELWEGPW9R4mRTwSWwmyyIoAgQIECBAgECHAv5265DFkyUQsIJegiKXPUUXhiv7O0D+BAgQIECAQA4FrKLnsGhCbl5Ag968oREyLODQ9gwXR2gECBAgQIAAgS4F3Bu9Sx4vFlLAIe6FLKukpgs4PGq6hO8ECBAgQIAAgfwJ+FsufzUTcXMCVtCb87N3hgUc2p7h4giNAAECBAgQIFCbgEPda3OyVUEErKAXpJDSmFnAJ64zm3iGAAECBAgQIJA3AX/T5a1i4m1GwAp6M3r2zayA1fPMlkZgBAgQIECAAIF6Bayi1ytm+9wKWEHPbekE3pWAT1q70vEaAQIECBAgQCBvAm2nf7YAk7e4xUugPgENen1ets6BQPSP97QQNs9BqEIkQIAAAQIECBCoUcACTI1QNsu1gEPcc10+wc8o8N9D20+f8Xm/EyBAgAABAgQI5F7Aoe65L6EEuhOwgt6dkNdzJeCT1VyVS7AECBAgQIAAgboE/K1XF5eNcyhgBT2HRRNyxwIuDNexi2cJECBAgAABAgUSsIpeoGJKZWYBK+gzm3gmpwI+Uc1p4YRNgAABAgQIEKhDwN98dWDZNHcCVtBzVzIBdyRg9bwjFc8RIECAAAECBAopYBW9kGWVVCRgBd37oBACPkktRBklQYAAAQIECBCoScDffjUx2SiHAlbQc1g0IX9RwOr5Fz38RoAAAQIECBAogYBV9BIUuYwpWkEvY9ULlrNPUAtWUOkQIECAAAECBGoSaDv9s4Wamja2EYFcCGjQc1EmQXYmEP2jPC2EzTt73fMECBAgQIAAAQLFFbBQU9zaljUzDXpZK1+QvP2jXJBCSoMAAQIECBAg0IBAtFBjFb0BOLtkVkCDntnSCKw7Aavn3Ql5nQABAgQIECBQfAELNsWvcZkydJG4MlW7QLl+9klp2+kFSkkqBAgQIECAAAECjQm4YFxjbvbKoIAV9AwWRUjdC/iktHsjWxAgQIAAAQIEyiLgb8OyVLr4eVpBL36NC5fhf1fPDyxcYhIiQIAAAQIECBBoVMAqeqNy9suUgBX0TJVDMLUI+IS0FiXbECBAgAABAgTKJeBvxHLVu6jZWkEvamULmpfV84IWVloECBAgQIAAgeYFrKI3b2iElAWsoKdcANPXJ+CT0fq8bE2AAAECBAgQKJOAvxXLVO1i5moFvZh1LWRWVs8LWVZJESBAgAABAgTiFLCKHqemsVouYAW95eQmbFTAJ6KNytmPAAECBAgQIFAeAX8zlqfWRczUCnoRq1rAnKyeF7CoUiJAgAABAgQIJCNgFT0ZV6O2QMAKeguQTdG8gE9Cmzc0AgECBAgQIECgLAL+dixLpYuXpxX04tW0cBlZPS9cSSVEgAABAgQIEEhawCp60sLGT0TACnoirAaNU8AnoHFqGosAAQIECBAgUA4Bf0OWo85Fy1KDXrSKyocAAQIECBAgQIAAgTAthM0/OxITBoH8CGjQ81OrUkYa/aMa/eNayuQlTYAAAQIECBAg0JSAVfSm+OycgoAGPQV0U9Yu4B/V2q1sSYAAAQIECBAg8EUBq+hf9PBb9gU06NmvUWkjtHpe2tJLnAABAgQIECAQm4AFn9goDdQCAQ16C5BN0ZiAf0wbc7MXAQIECBAgQIAAAQL5FHCbtXzWrfBRu7Va4UssQQIECBAgQIBAqwTccq1V0uZpWsAKetOEBkhCwOp5EqrGJECAAAECBAiUU8DfluWsex6ztoKex6oVPGar5wUvsPQIECBAgAABAq0XsIreenMzNiBgBb0BNLskK+ATzmR9jU6AAAECBAgQKKOAvzHLWPX85WwFPX81K3TEVs8LXV7JESBAgAABAgTSFLCKnqa+uWsSsIJeE5ONWiXgk81WSZuHAAECBAgQIFA+AX9rlq/mectYg563iomXAAECBAgQIECAAIGGBKaFsPlnR2w2tLudCCQuoEFPnNgEtQpE/1hG/2jWur3tCBAgQIAAAQIECNQrYBW9XjHbt1JAg95KbXN1KeAfyy55vEiAAAECBAgQIECAQMEFXCSu4AXOS3ouDpeXSomTAAECBAgQIJB7AReLy30Ji5uAFfTi1jZXmVk9z1W5BEuAAAECBAgQyLWAvz1zXb5CB28FvdDlzUdyVs/zUSdREiBAgAABAgQKJGAVvUDFLFIqVtCLVM2c5uITzJwWTtgECBAgQIAAgRwL+Bs0x8UrcOga9AIXV2oECBAgQIAAAQIECHQs4JZrHbt4Nl0BDXq6/qWf3a3VSv8WAECAAAECBAgQSE3AKnpq9CbuRECD3gmMp1sj4B/F1jibhQABAgQIECBAgACB7Au4SFz2a1TYCF0crrCllRgBAgQIECBAIC8CLhaXl0qVJE4r6CUpdBbTtHqexaqIiQABAgQIECBQLgF/k5ar3lnPVoOe9QqJjwABAgQIECBAgACBxARcLC4xWgM3IKBBbwDNLs0LuDhc84ZGIECAAAECBAgQiEfAKno8jkZpXkCD3ryhERoQ8I9gA2h2IUCAAAECBAgQIECg0AIuElfo8mYzOReHy2ZdREWAAAECBAgQKLGAi8WVuPhZSt0KepaqUZJYrJ6XpNDSJECAAAECBAjkSMDfqDkqVoFD1aAXuLhSI0CAAAECBAgQIECAAIH8CDjEPT+1KkSkDm8vRBklQYAAAQIECBAoooDD3ItY1ZzlZAU9ZwXLe7gOHcp7BcVPgAABAgQIECiugL9Vi1vbvGSmQc9LpcRJgAABAgQIECBAgECiAu6JniivwWsQ0KDXgGSTeATc+zweR6MQIECAAAECBAgkJ2AVPTlbI3cvoEHv3sgWMQn4xy4mSMMQIECAAAECBAgQIFBIAReJK2RZs5eUi8NlryYiIkCAAAECBAgQ6FDAxeI6ZPFkKwSsoLdC2RzB6rk3AQECBAgQIECAQF4E/O2al0oVL04NevFqKiMCBAgQIECAAAECBAgQyKGAQ9xzWLS8hezw9rxVTLwECBAgQIAAgdILOMy99G+BdACsoKfjXqpZHSJUqnJLlgABAgQIECBQCAF/wxaijLlLQoOeu5IJmAABAgQIECBAgAABAgSKKOAQ9yJWNUM5Obw9Q8UQCgECBAgQIECAQD0CDnOvR8u2sQj0jGUUgxDoRCA6NGhaJ6+V8WkWZay6nAkQIECAAIF6BNrq2Tjhbf97mPsZCU9jeAKfCzjE/XMKPxAgQIAAAQIECBAgQIAAgfQEHOKenn3hZ3Z4e+FLLEECBAgQIECAQOwCWVpBryTnMPfYK2zArgSsoHel47WmBFz5sik+OxMgQIAAAQIECGRAwN+0GShCiULQoJeo2FIlQIAAAQIECBAgQIAAgewKOMQ9u7XJdWQOb891+QRPgAABAgQIEEhNIGOHuEcODnNP7d1QvomtoJev5i3J2KFALWE2CQECBAgQIECAQAsE/G3bAmRTVAU06N4IBAgQIECAAAECBAgQIEAgAwIOcc9AEYoWgsPbi1ZR+RAgQIAAAQIEWieQwUPco+Qd5t66t0CpZ7KCXuryJ5O8Q4CScTUqAQIECBAgQIBAegL+xk3Pvkwza9DLVG25EiBAgAABAgQIECBAgEBmBTTomS2NwAgQIECAAAECBAgQyIrAtBA2/+xUzqxEJI4iCmjQi1jVFHOK/tGK/vFKMQRTEyBAgAABAgQIEEhEwGHuibAatJ2ABr0dhh+bF/CPVvOGRiBAgAABAgQIECBAoJwCGvRy1l3WBAgQIECAAAECBAgQIJAxAbdZy1hB8hyO26vluXpiJ0CAAAECBAhkQyCjt1mbjuN2a9MlfE9EwAp6IqzlHNTh7eWsu6wJECBAgAABAmUS8Ddvmard+lw16K03NyMBAgQIECBAgAABAgQIEJhJQIM+E4knCBAgQIAAAQIECBAg0LGA26117OLZeAQ06PE4ln4Ut1cr/VsAAAECBAgQIECgNAIOcy9NqVueqAa95eTFnNA/UsWsq6wIECBAgAABAgQIEGidgAa9ddZmIkCAAAECBAgQIECAAAECnQr07PQVLxAgQKAGgVl79gyDBw8K8wwZEoYMGRzmrnzNM/eQMOccA0JbW303Svn006nhsN8fU8OsNiFAgAABAo0JzF35/9UB++1Z985Tp04L744dG0aNHhPeGTW6+n3U6NGV58aFqVOn1j2eHfItMP089LGvv3hGvjMRfdYE6vvrOWvRiycTAv+9//npmQgm40FU/jHP/aNfv75h3TXXCButv05Yf521wvzzzVt3I94ZwseffBLmXewrnb3seQIECBAg0LTA0l9eMtx32w1NjzN9gE8//TS8+PIr4bY77gq3/u2u8MBDD4fo/2cejQvkpUGpxDni3ddfGNZ4pvYkMLOAFfSZTTxTp0B0/nkRGs860y7V5kssvljYeP31qk35aqusHKJVcw8CBAgQIEAghB49eoQlFx9a/fr+3nuECRMmhjvvva/arN/6tzvD2++MwkSAAIGaBfyVXTOVDQmUT2CFry0XDv7Zj8MG665dvuRlTIAAAQIEGhCIjjTbfNONq19TpnwaLv/rNeFPJ5wcXn39jQZGswsBAmUTcJG4slU85nzdXi1m0IwM99WvLBUuPue0cPuIv2rOM1ITYRAgQIBA/gR69uwRdtpum/DwPbeFY39/RPW0sPxlIeLOBKafh97Z654n0IiABr0RNft8LuD2ap9TFOKHLy+xeDjvtJPCXTdfH7650QaFyEkSBAgQIEAgbYHo1LDdd9khPHrv7eEPh/8mDBk8OO2QzB+TgL+FY4I0zOcCGvTPKfxAoNwCe++2S7hn5Iiwxbc2je2ib+UWlT0BAgQIEPiiQK/ZZgv77rFrePCOm8N6a6/5xRf9RoAAgYqABt3bgEDJBXr16hX+ctzR4egjDw3RoXgeBAgQIECAQLICA+ecI1x54dnhR/vvnexERidAIHcCLhKXu5JlJ2Dnn2enFo1GEt0i7cKzTgkrLLdso0PYjwABAgRaINDW1lY9LHrI4EGV74NC//79wtjK/bdHj3m38jUmjHvv/RZEYYo4BWaZZZZw2MG/CMsv+9Xww5/9Mnz44aQ4hzdWiwSmn4fufugtAi/BNBr0EhQ5qRTdXi0p2daMu3rldmnnVs43j/7Q8yBAgACB7An07t07bLje2mHjDSq3uax8n3vIkE6DfPGll8Otd9xdvRf33ffdH6Krh3vkQ2DLYZuFJZcYGnbec//wyquv5SNoUX5B4L/noZ/xhSf9QqBBAQ16g3B2I5BngXXWWj1cccHZ7mee5yKKnQCBwgpE5ynvtvP24acHfL/mD1GHLrZoiL722/N74aVX/hP+8OcTwjXDbwxTp04trFOREvvKUl8OI6+/Kmw0bOvwn9deL1JqciFAoE4B56DXCWZzAnkXWHzootUrtUdXlPUgQIAAgWwJrLvWGuHhu2/975W+GzvCabEvLRLOPPn4yh05rgtR4+eRD4HBg+YKl51/Zujfr18+AhYlAQKJCGjQE2E1KIFsCkQXpbnsvDPDHAMGZDNAUREgQKDEAgfst1f1wmELLjB/LArLLL1UGHndlWHYZpvEMp5BkheIbnd69iknhB49XLQ1ee34Zph+Hnp8IxqpzAIa9DJXv4ncXSCuCbyUdo1WzM87/eQQrax4ECBAgEB2BKKLhZ1+4rHh8EMOir0x69Ond/WoqR9/f5/sJCySLgU2XG+dcORvftXlNl7MnoD7oWevJnmNSIOe18qlHLd/hFIuQAPT/+l3h4W1Vl+1gT3tQoAAAQJJCkTN2He32iKxKaIrwP/2Vz9PdI7Egi/pwNG1BKLrEHgQIFA+AQ16+Wou4xIK7Pjd74Rdd9yuhJlLmQABAtkW2Hu3XcL+e+3WkiBP/PMfwjdWWrElc5mkeYFjjjwsLPfVrzQ/kBEIEMiVgAY9V+USLIH6BaLDG3/zy5/Vv6M9CBAgQCBRgSUXHxp+f9ghic7RfvDo6vBnnnRciL57ZF+gZ88eDnXPfplESCB2AQ167KTFH9D55/mq8QH77hXmmbvze+fmKxvREiBAoDgCSZxz3p3OQgsuEPb83s7dbeb1jAhEp6ZtvMG6GYlGGF0JuFBcVzpeq0dAg16Plm2rAs4/z88bYe4hQ8IB++2dn4BFSoAAgZIIRI3XJhuul0q2B/7o+2FA//6pzG3S+gXS+CCn/ijtEQn4G9n7IA4BN0KOQ9EYBDIqcPDPfhyiQ9xb9Xj19TfCq6+9Ht4ZNTqMe++9MG1a5fPkOh5Tpnxax9Y2JUCAQH4Fdt95h9SCj265Gd167eLLr0othjQnHjtuXDjzvAvrDiG62v6QQYOqR6UttugiYcjgwXWP0cgO0a3Xdt7+u+H8iy9rZHf7ECCQM4G2nMUr3AwIDFpw8eHRYTwZCCV3IdTXrjaXXvQ/9HtvHRH7LXtmjOq1SlN+4aVXhOtvvCU898KLM77sdwIECBCYQSC67eXzT/w91VXs4TeNDN/b5wczRObXWgWiK+N/fYWvhS0qH3REzfOcc8xR664NbTdq9Ojw9bU2DBMnftjQ/nnbKa8NSiXuEe++/sKwvHmLN1sCDnHPVj1EQyA2gYN/9pNEm/PJkyeHo48/Kayy3qbhzyeeojmPrXIGIkCg6AKrrbJyqs155LveWmuE2WadtejUieUXHSH2yD8eD4cedXRYqdI4n3vhpWHq1KmJzRedsrbP7rsmNr6BCRDIjoAGPTu1yEUkLhCXizKFvn37JHpRmbfefiest9lW4ejjTgwfffRRPlBESYAAgYwIrLj8cqlH0q9f37D40MVSj6MIAYwd91448OBDw5bb7xrGf/BBYiltNexbiY1t4HgEXCguHseyj6JBL/s7oM78XfyiTrCUNl9/nbVCr169Epn9xZdeDptutV3493PPJzK+QQkQIFB0gWg1NAuPIUMGZSGMwsRw7wMPhc2+s0N4+51RieT01a8sFRauXIXfI9sC/lbOdn3yEJ0GPQ9VEiOBOgU223jDOveobfNx770fttzheyE679yDAAECBBoTmDsjjfHcLbrIWWNK+dzr6X8/G7aq/H9y0qRJiSSw2SbJ/P89kWANSoBAQwIa9IbY7EQguwI9e/ZI7NY9P/75weGNN9/KbvIiI0CAQA4E5ho4MBNRDpxzzkzEUbQgnn3+hfDzQw5LJK3NNtkokXENSoBAdgQ06NmphUgIxCKw2jdWTuRqspdeeXUYcfPIWGI0CAECBMos8F7laKQsPN57PxtxZMEi7hguqfw/87oRN8U9bFh15ZVCdJs8DwIEiiugQS9ubWPPzAXiYidNZMAkPl2PrlZ73MmnJRKvQQkQIFA2gXdGj8lEyqMyEkcmMBII4pgTTo591M+Okls/9nENGJ+AC8XFZ1nWkTToZa18A3m76EUDaCnsstH668Q+6y233RGii8N5ECBAgEDzAqPHZKNBH/Puu80nY4ROBZ559rlw69/u7PT1Rl9I4v/zjcZiv44F/M3csYtnaxPQoNfmZCsCuRBoa2sLCyVwhdfzLr40F/kLkgABAnkQePyJf6UeZnQRs+df9MFr0oU4+4KLY59i4QUXjH1MAxIgkB0BDXp2aiESAk0LROelzdqzZ9PjtB9g6tSp4YGHHmn/lJ8JECBAoAmB+yq345o48cMmRmh+17vufSBMnjy5+YGM0KXA/Q89HD799NMut6n3xSFDBte7i+0JEMiRgAY9R8USKoHuBIYkcMucp555NnwwYUJ3U3udAAECBGoUmPzxx+GOe+6tcetkNhv5tzuSGdioXxCYMGFiePLpZ77wXLO/zKNBb5bQ/gQyLaBBz3R5BEegPoF55h5S3w41bP3wPx6rYSubECBAgEA9AhdddmU9m8e6bdQ0Dr/xlljHNFjnAn9/5B+dv9jAK7169QoD+vdvYE+7tEpgWgibRxdXbtV85imWgAa9WPVMLBtXcE+MNtaB507gU/V33hkVa4wGI0CAAIEQRt5+Z7jvwb+nQvGXM84O744dl8rcZZz07QT+P+ow9+y/k1woLvs1ymqEGvSsViZjcflHJmMF6SScJP6HPS4j9+vtJGVPEyBAILcCv/3d0S2PffSYd8PJlQbdo3UCSfx/1GHuraufmQi0WkCD3mpx8xFIUGCeIfEf4j7uvfcSjNjQBAgQKK/APx5/Ipzwl9NbBjBt2rTwk18ckvoF6lqWcEYmGjsu/qMV5k7glLaMcAmDQOkFNOilfwsAKJLAoLkGxp7OxA/TvdJw7AkZkAABAhkSOPLoY8Pwm0a2JKKjjjku3HTr7S2ZyyT/LxCd8x/3Y9DA+P9/H3eMxiNAoDEBDXpjbvYikEmBtlni/086WnHxIECAAIFkBKJ/Y/f78c/Cw48me0HOS668Ohx/8mnJJGHUlgvMksD/71uehAkJEOhQIP6/5jucxpMECBAgQIAAAQIdCUyaNClssd0u4cprru/o5aaeiz4AOPr4k8IBB/6yqXHsTIAAAQKtEdCgt8Y517O4gnuuyyd4AgQIEMiBwOTJk8O+PzowHPb7Y8KUKZ/GEvHEiR+GPb7/43D0cScGR0PFQmoQAjULuNVazVQ2nEFAgz4DiF9nFnAF95lNPEOAAAECBJIQOPHUM8Nq628arh1+Y8NN9SdTpoSzzr8orLjmBuG6ETclEaYxCRCoQcDf0DUg2WQmgZ4zPeMJAgQIECBAgACB1ARefPmV6sr38pVmfcfttg4bb7BeWHjBBbqN5+l/P1u9v/oFl1weXnn1tW63twEBAgQIZE9Ag569moiIAAECBAgQIBAef/Jf1a9f/PrwsPSXlwzLLrN0mLtyO825hwwK/fv1C++OHRdGjxkTRo1+N/z90X+EN958ixoBAgQI5FxAg57zAgqfAAECBAgQKL7AM88+F6IvDwIECBAotoBz0ItdX9kRIECAAAECBAgQIECAQE4ENOg5KZQwCRAgQIAAAQIECBAgQKDYAhr0YtdXdgQIECBAgAABAgQIpCDgVmspoBdgSg16AYqYZArugZ6krrEJECBAgAABAgSKLOBWa0WubjK5adCTcS3MqP5RKUwpJUKAAAECBAgQIECAQMYFNOgZL5DwCBAgQIAAAQIECBAgQKAcAhr0ctRZlgQIECBAgAABAgQIECCQcQH3Qc94gYRHgACBrAjMPvvsYe7Bg0KfPn1C7969Q98+vavf+1S+95pttjBp0qQw/oMJ1a8PJnwQxo+fED6YMKH6fFZyEEdrBGaZZZYw7zxzhwH9+4f+/fuF/v0qX5Xv0fvkww8nhQkTJ4aJH34YJk78MLz3/vvhrbffCdOmVS6n5EGAAAECBEouoEEv+RtA+gQIEGgvEDVUK3xt2bD4YouGhRdaMCy0wPyffV9w/jBk8OD2m9b885Qpn1Yb9agRe+HFl8LT/34uPPPsc5Xvz4bnX3gpTP7445rHsmH2BKIPblZfZeWw7DJLh6WWXKL69eUlhobo+VofH330UXjplf+EF1+ufL30cvW9cd+Df6827rWOYTsCBAgQIFAEAQ16EaooBwIECDQg0KtXr2pTteLXlgsrLl/5qnwfutiXQltbWwOjdb5Lz549wsA556h+LbrIwmGj9df9fOOoeX/plVfC0888W23aH3nsn+Ge+x8I0fMe2RVYaMEFwsbrrxs23mDdsNbqq9bVjHeUVdTMf2WpL1e/2r8eNev3PvBQ5T3xULj9zrvD++PHt3/ZzwQIECBAoHACGvTClVRCBAgQ6FxgwcqKeNRYbbLherE0Vp3PVNsrUfO+5OJDq19bDtusutPYce+FG24eGa4efkO4t9KYffpp8Zr13x16cIhq0arHM889H/547P82NV1Uq2Hf3DTss/suYZWVv97UWLXuPLRyJEf09b2dtg+TJ08ON428PVx61TXhjrvvKcyHOHl8L9RaP9sRIBDC9Huhj339xTN4EKhFQINei1JJt3EP9JIWXtqFE1hpxeXDNzfaoNqUR6uUWX/MNXDOsMsO21a/xrw7Ngy/8ZZw7YgbQ3TI89SpU7Mefk3xrbv2GmHpLy9Z07ZxbDSwYtroY/CgucJulQZ59112DPPNO0+jwzS9X3TER/QhTvQ1esyYcNlV14a/nHFOGDV6dNNjpzlAnt4LaTqZm0CeBf5722INep6L2MLYNegtxM7bVNE/Ji7Zk7eqiZfAZwKD5hoYttt6q/C9HbcLSyy+WG5ZouZw9112qH5FjdglV1wdjj/5tOo57blNKieBRxd023/v3cNPf7h/6Nevb6aijq6HcMB+e1VX88+96LJw4qlnhLffGZWpGAVDgAABAgQaEXCbtUbU7EOAAIEMCkTnjq+z5urh7FNOCE89cl846tBf5bo5n5F47iFDwk9+sG945J5bw07bbROiK4V7JCOwxbc2DQ/eeUs49Jc/y1xz3j7jaFV9vz2/Fx6772/hj0f8pnqdg/av+5kAAQIECORNwF83eauYeAkQIDCDQNSobvudb4e/Vxqqay49P2w17FthtllnnWGr4vwarZ6e9Oc/hFuHXxW+sdKKxUksA5lEh7Bfe9kF4bzTTgqLVK7in5dH1Kjvs/uu4cE7bq6+//MStzgJECBAgMCMAhr0GUX8ToAAgZwIRCvm0UrnfbfdEE773z9XL6aVk9BjCXOF5ZYNN119WTj9xGNTPTc6lmQyMEh0nYJ7Ro4Ia6+xWgaiaSyE6MOb6AiSS889Iyww/3yNDWIvAgQIECCQooAGPUV8UxMgQKBRgU03Wj/cedN11ZXOLy+xeKPD5H6/6EOK7261RT+ofnAAAEAASURBVHj4rlvDvnvsmvt80kggOtc8Ojz84nNOC9EF+orwiO5ScP/tN1YvjliEfORAgAABAuUR0KCXp9YyJUCgAALRLadGXHVJuOSc06v3MC9ASrGk0KdP7/CHw38TDjv4F7GMV5ZBovvTD7/y4urh4UXLuX+/fuGis08NP//xD0L0QY4HAQIECBDIg4AGPQ9VEiMBAqUXiO5BHV0g7d6Rw8Pqq6xceo/OAH60/97huD8c6QJynQG1e37++eYNN11zeYhuw1fUR9SY/+pnPwnnnX5y6Nu3T1HTlBcBAgQIFEhAg16gYkqFAIFiCnxt2WXC7SOuqV5RO7oYlkfXArvtvH31vPRZe7qTaGdS0a33brn2irDk4kM726RQzw/75sbh+isuCnMMGFCovCRDgAABAsUT0KAXr6YyIkCgIAJRg/nbX/083Db8rw5nr7OmW39783DBmacEH2jMDLfUkktULq53eekuohZdVPDqS84NA/r3nxnFMwQIECBAICMCGvSMFEIYBAgQaC8Q3fP7uisuDD/+/j6hR48e7V/yc40C0YXCrrzw7Ezfx7vGVGLbLLqNWmRSlIvB1QuzwteWqzTp52nS64WzPQECTQlMC2HzuRYcuk9Tg9i5NAIa9NKUWqIECORFILq39103XxdWXXmlvISc2TjXXG2VcOZJx2c2vlYGFl007YoLzirdyvmMxisuv1z1QwpHV8wo43cCBJIUaAttw5Ic39jFEdCgF6eWsWYSfcoXfdoX66AGI0CgW4G9vrdz9ara88w9pNttbVCbQLSSHh3yXuZHdCu1C886JSyz9FJlZvg895W/vkLlYoJHfP67HwgQIECAQFYENOhZqUTG4vApX8YKIpxSCERXHz/mqN8GFzeLv9x/POLQMGiugfEPnJMRo4Z07TVWy0m0rQlzh+9+J0QfiHkQIECAAIEsCWjQs1QNsRAgUGqBMWPHljr/JJOPmvPoPukeBNoL/O6wQ5xK0h7EzwQIECCQuoAGPfUSCIAAAQKfCfzvKaeHd0aNxpGQwDZbDgsbb7BuQqMbNo8C0dEq5552otuv5bF4YiZAgEBBBTToBS2stAgQyJ/AxIkfhqOOOS5/geco4ug0guhiaR4EpgtE13s4/JBfTP/VdwIECBAgkKqABj1VfpMTIEDgiwKXXnl1ePKpZ774pN9iE5h/vnnDYQdrxmIDLchAu+ywrUPdC1JLaRAgQCDvAhr0vFdQ/AQIFEpg6tSp4ddH/L5QOWUtmd123j4s/eUlsxaWeFIUaGtrCyccc1SYbdZZU4zC1AQIECBAIAQNuncBgQIJtBUolzKncs/9D4YbR95WZoJEc4+asT2/t1Oicxg8fwJLLj40/HC/vfIXuIgJECBAoFACPQuVjWQIlFxg4JxzllygOOn/9qijw0brr9vyW66NHjMmPP3v58LLr7waXnrlP5Xv/wlvvv1OmDhxYvhw0qTq90kfTQ59+/SuXlhrQP/+YcCA/mGOOQaEpZdcIiy/3LKVr6+GeeeZO9PF2Harb4fDfn9MmDBhYqbjFFxrBQ6oNOhnnXdRGP/BB62d2GwE6hSYa6D/39dJZnMCuRHQoOemVAIl0L3Awgst0P1GtsiFwIsvv1JtFPbfa7dE433zrbfD3fc9EO5/6OHwwN8fCS++9HJN83300Ufh3bHjvrDt8Btv+fz36MJba6y6Stjhu1uF9dZeM8wyS7YO2OrXr2+ImvRzLrzk85j9QGCOAQPCvnvsGv70v3+BQSDTAgsttGCm4xMcAQKNC2jQG7ezJ4HMCSy8oP9hZ64oTQT0pxNODttvs1UYOOccTYwy865j3h0brrvhpvDXa0eEhx55NEybNm3mjZp8Jrpd3NXXj6h+zTfvPJVG/Tth1x23CwsvmJ0PkXbe4bsa9DrrPHrMu+GJfz1V+Xo6PPHU0+GtytEV778/Prz3/vvhk08+CYMHDQrRhzNDBg+ufB9c/b5U5ciKdddaPcw+++x1zpbO5vvvvXs47ezzwwcTJqQTgFkJ1CCQpX9LawjXJgQI1CGgQa8Dy6YEsiwQNXHRqmDcjw8+8Edq3Ka1jhc1Pcccf2L4w+G/qXWXLreLVshPPu2scOsdd4YpUz7tcts4X4yauONOOjX85fSzw09+uF/4yQ/2Db1mmy3OKRoa62tfXSYMmmvgTEcCNDRYgXeKjuaIjo4YftPI8Ng/n+gy07Hj3gvPvfDiTNv07t07rLfWGuGbm2wYNtlgvUojP9dM22TliTnnmCPss/uu4diTTslKSOLIuUASp0wsbAU95+8K4RPoXCBbxxx2HqdXCBDoRmCRhRbqZovGXh5VOSfZIz2Bsy+4OLzwYm2HnXcUZbQ6fsMtt4ZNttw2fGvrHcJNt97e0ua8fUyTP/44HH3ciWHNDb8V7rznvvYvpfJzdLG4tddYPZW5sz7pp59+Gq4bcVPYaIttwsprbxSO+OOfu23Ou8ppUuX6BdGFDw848JdhqRVXC1vvtHt46pl/d7VLqq/tVzm1xBXdUy1BoSYfUznyJO7H/PPOG3r27BH3sMYjQCADAhr0DBRBCATiEFhkkWQa9DFjxsYRnjEaFIhWug/93R8b2jtaMV/3m98Ou+z1/fDwo481NEYSO0Urst/ZcbdwUmU1P+3HOmuulnYImZr/kylTwpnnXRhWWmvDsPv+PwqPPvbP2OOLbiV4x933Vt6bW4YDDz40k0cwREdWbLbpRrHnbsByCoxKoEGPmvMF55+/nKCyJlBwAQ16wQssvfIIbPedLWNP9uPKOaXRYdYe6QrcfOvfwl333l9zENGF3/b+4f9UV8yffOqZmvdr9Ya//d3R4XfHHN/qab8w3zqVw649PhMYefudYfUNNgsH/eaI8J/XXk+cJVqlP/fCS6sfBkTnfLfytItaktt5u21q2cw2BLoViI4g+fDDSd1uV+8G220d///3643B9gQIxC+gQY/f1IgEWi6w+NBFwyYbrhf7vO9WLibmkQ2BXx/xhxCtPHb3iA6J/8a6G4e/Xjeiu00z8Xp0nu8hh/8utVgWqZzHGa2Wlvnx+htvhm133Stsv9veNV/FP06v98ePDwcfdlTYZe/9w+TJk+Mcuqmx1q18eLPA/PM1NYadCUwXSOJ0sT123Sn06tVr+hS+EyBQEAENekEKKY1yC/xg7z1CdD5t3I9Ro51/Hrdpo+NF5+tefPlVne4e3fJsxz32DT8/5LBEVmo6nTiGF04967zqufExDNXQEIst+qWG9ivCTiNuHhnW3mSLcNsdd6Wezi233VE9Nz0rV0+Pbg24Y+XuAx4E4hBI4jz0IYMHBavocVTHGASyJaBBz1Y9REOgboHoasjRrbiSeERX3/bIjsBRlcPBJ0yYOFNAd91zf1hzo2+F6FD4vD4O/NWhIVpJTeOx2JcWSWPaVOeMDiePDmXfde8fZOo0lvsfejhsse3OIboVYBYe2yX0b2sWchNDawWiU4+SeCT1AX0SsRqTAIHaBDTotTnZikBmBb5fWT1P6hC36EJOHtkRGF25ov4Jp5z+hYDOOPeCsM0ue4TovuN5frz9zqhw6FFHp5JC2VbQo6vp777fAdWLwaUC3s2k/3zyqbDZ1ttn4j0dfXgzdLFFu4nYywS6F7gjoTtXLLH4YmHYZpt0H4AtUheYFsLmcy04dJ/UAxFA5gU06JkvkQAJdC6w+aYbhx/tv3fnGzT5SnRLLo9sCfzljHNCdM5wdD76r357ZPjloUeG6GJbRXhcduXVqazmDl20PCvo0YWqonPNo1vvZfkR3Vpwvx//LES3CUz7sdF6a6cdgvkLIHBz5f+nSb2fT/zT78NSSy5RAKXip9AW2oYVP0sZNiugQW9W0P4EUhJYb+01w+kn/jlE50km8Yiu/h01gh7ZEoguohVdVG3nvfYPp59zQbaCazKa6BZfw2+8pclR6t99gfnKcSGwqDnY54CfhuiUiDw8ojsXnHrWuamHuuF666QegwDyLxAd5fSPx59IJJEB/fuHy88/M0Sr6R4ECORfIJm/7PPvIgMCmRXo27dPOOao34arLjon9O7dO7E4bxx5W2JjG7g5geE3jcz1+eZdZZ/G1ef79OnTVUiFee2Y408Kefvv+sg/HhuiCySm+Vhj1W+E2WefPc0QzF0QgSSPSltowQXC3TdfH/bfe/fQo0ePgohJg0A5BTTo5ay7rHMiEF2ZPboI3DJLLxWGfXPjcObJx4dn//Fg2Ot7Oydy1fb2LDdp0Ntz+LlFAvc+8FD46KOPWjTbZ9P06ZPcB10tTaSLyaIm95gTTu5ii2y+FJ0vv88BB6Z6+7XoGh9rrb5qNoFElSuBG29J9oPv6L36u0MPDk8/cl/1g/z111krLLn40DDHgAG5chIsgbILaNDL/g6Qf6YFNq805c89/lC4Z+TwcP4Zfwlbf3vz0Ipm4t/PPR+e+NfTmbYRXDEFonPr32zx3QP69e1bTMx2WY177/3Ezn9tN00iPz7z7HPh2BNPSWTsWgf9xkor1Lqp7Qh0KtCq/7dGt1+LPsiPjrR78I6bw8tPPRoWrqywexAgkA8BDXo+6iRKAi0V+M2Rf2zpfCYj0F4guqJ7Kx+t+NCrlfkUca6zzr84TJo0KbXUllvmK6nNbeJiCRx6lP+/FquisiEQv4AGPX5TIxLItcDtd94doi8PAmkJvP3OOy2duk+C13JoaSIFnuy9998Pl151TWoZLvfVZVKb28TFErj7vgdCkueiF0tLNgTKKaBBL2fdZU2gQ4FXX38jfP9/ftHha54k0CqBsePea9VU1XlcUKml3A1PdtrZ56V2mP48cw8JQwYPbjh2OxJoL3DAgb8ML//n1fZP+ZkAAQKfC/T8/Cc/ECBQaoEPJkwIO+y2Txg95t1SO5Qh+ejWfHMM6B/mGjgwzDnnHNXvAyvfZ+3ZM3w46aPK14eVw4mj75PC++PHV26391ZLDy9O6l7BZahtkXOM7o1+2x13hY3WXzeVNJf76lccXZSKfPEmjT6E3H63vcPI6650AbfilVdGBJoW0KA3TWgAAvkXiD7J33nP/UN0MSaPYglEdwFYcfnlwtdXWD6stMLXwrKVc2nnGjhniJr0eh5j3h0bXnv99fDqa2+El175T/V+vo889niI7u3rQaBVAqedfb4GvVXY5klU4PkXXgqbfHvbcPHZp4ahiy2a6FwGJ0AgXwIa9HzVS7QEYheIzoX7wf8cFKJzPD3yL9C/X7+w5bDNwjprrlZtyhdZaMFYkooa/ehrha8t94XxXn/jzfDoY/8M9z349+o9tt986+0vvO4XAnEK3Hv/g9Xb8KVxX/IvLbxQnKkYi0B47oUXwwabbx1OOvaP1VupIiFAgEAkoEH3PiBQUoHHnngyHP77P4XogjUe+RdYfZWVw07bbRO23PyboXcLL3q24ALzh+jr25V5jz7y0PDYP58MI24eWf2KDkn2IBCnwCdTpoRHH38irLHqN+Ictqax5pt3npq2sxGBegTGf/BB+N4+P6i+pw8/5KDqEU/17G9bAgSKJ1DfMY7Fy19GBEor8K+nngnPPv9CafMvQuLRhat+8oN9w8N33xpGXHVJ2OG732lpcz6jYVtbW/WPy0N/+bPw9ztHhpuuvqzauPfs2WPGTf1OoGGBBx9+pOF9m9lx/vnmbWZ3+xLoUuC5yiHv/3zyqS638SIBAuUQsIJejjrLksBMArvssG3YZsth4X9POSP8+cRTwtSpU2faxhPZFOg122zhJz/cL/xP5Wu2WWfNZpCVqFZZ+evVr+gw+LPOvyicf/Hl1YvOZTZggeVC4MG/P5pKnBr0VNgLP2l0PZDog9af/nD/0KdP78LnK0ECBLoXsILevZEtCBRWIDoU+pcH/jhcccFZYc455ihsnkVKbM3VVgn3jBwRDvqfAzLdnLc3jw6BP+zgX4RH7rkt7LrjdnVfoK79WH4m8PCjj6XygWL0b2QrTx9R6eILDOjfP1xyzunh17/4qea8+OWWIYGaBTToNVPZkEBxBdZfZ61w6/VXhkFzDSxukjnPLLryenQhoeuvuCgsPjSfV/yN3l8nHH1UuHX4VWGlFZfPeUWEn5ZAdM7uv597PpXp53ceeiruRZw0urXlyMr/dzfeYN0ipicnAgSaENCgN4FnVwJFEohu83LRWaeG6PBpj2wJbL7pxuGhyjndO227dbYCazCaFZZbNtxy7RXhiF8fFHr0cH56g4yl3i263V8ajzkrTZUHgWYFZu3ZM5x/xl/CkosPbXYo+xMgUEABDXoBiyolAo0KROcM/+6wQxrd3X4JCGy/zVbhvNNPKtzRDdEF5X64717h6kvOq96+LQE6QxZYYNx776WSXe/ZZ09lXpMWS+DwX/8yRKcreZRPYFqYNrx8Wcu4XgENer1itidQcIHddto+LLP0UgXPMh/pRRfyO7lyWHt0EaGiPtZafdVw503XzXR/9aLmK694BN577/14BqpzlDTuv15niDbPuEC0ar73bjtnPErhJSHQFsKIsa+/eEYSYxuzWALF/auvWHWSDYGWCUTN4FG/+VXL5jNRxwJ77LJj9XztIjfn0zOPro597WXna9Kng/jerUB6K+i9uo3NBgS6Ejiisnru1J6uhLxGgIDbrHkPEMiwwD33PRi+u8ueYd7K/a4X/dIi4dvf2jRE54on/VhnrdXDlxZeKLzy6mtJT2X8DgT23WPX8IfDf9PBK8V9qn+/fuGqi84JW2xrZam4VY4vs/feHx/fYHWM1KuXBr0OLpvOIBB9GNmqi8I98o/Hw823/S1Et7l8Z9To8PY7o2aIxq8ECGRVQIOe1cqIi0BF4L333w+333n35xZHHXNcWH7Zr1aat19X7y/9+QsJ/PDNjTcIp551XgIjG7IrgZ2226Z0zfl0j+iqxtE56U8+9fT0p3wn0KFAWivoDnHvsByerFHgmxttUOOWjW925TXXh9//6fjwn9deb3wQexIgkKqAQ9xT5Tc5gfoFHn/yX+Fb2+wYjvjjn8O0adPqH6DGPb658YY1bmmzuAQWmH++8IfDfh3XcLkcZ8jgQSG67Z8Hga4EPpgwoauXE3vNXS4Soy3FwJttktz/VydO/DB8b98fhn1/dKDmvBTvJkkWWUCDXuTqyq2wAlOnTg0n/OX0yqfkJySW46orrxSiFU2P1gkc/8cjQ79+fVs3oZkI5FSgb590/jv5+JNPciom7LQFotN41kjoyu2ffvpp2PMHPw7Db7wl7TTNT4BADAIa9BgQDUEgLYFjTzolXDP8hkSm79mzR9ho/XUTGdugMwtst/WWYcP11pn5Bc8QIDCTQFofHn700UczxeIJArUIbLDe2mG2WWetZdO6t4mOqBt5+51172cHAgSyKaBBz2ZdREWgZoFoFT1aUU/i0aqL2SQRe57GjA7r/t1v3X8+TzUTa7oCA+ecM5UANOipsBdi0o3XXzeRPEaPGRPOOOeCRMY2KAEC6Qho0NNxNyuB2ARefPmV6pVaYxuw3UBfWnjhdr/5MSmBo484NMw1MJ2GI6mcjEsgSYE55xyQ5PCdjv3R5I87fc0LBLoSWKRyZ5QkHmeee2GY/LH3ZRK2xiSQloAGPS158xKIUeDk086OcbT/H2pwZWXXI1mB6LD2LYdtluwkCYzuD8IEUA1Zs8CcVtBrtrJhNgTmTuD/p5MmTQrnXHhJNhIUBQECsQn0jG0kAxEgkJrAgw8/Ev7x+BNhxeWXizWGJP6giDXAAgx2wH57ZTKL6KJDzz7/QvV99WjlvfWvp58J48a9F94fP776NWXKp6F3795hyKC5QvRBTnSY/pDBg6vfF/vSImHdtdYI0VXpPQgkIZDWOeiTnIOeRDlLMWYSH3hfetU1YWzl32UPAgSKJaBBL1Y9ZVNigXMvujT2Bj2652/fvn1CdPsWj/gFvrLUl8Naq68a/8BNjPjUM/8OF112ZYjupdvdH37R6s2rr79R/epoyi8vsXhYf921wgaV26atvsrKwT2kO1LyXCMC8883byO7Nb1P9AGVB4F6BaKLw80xIP7TMs6r/H/fgwCB4glo0ItXUxmVVOC5F15MJPO5K6uiL098NZGxyz7oPrvvkhmC2++8u3rbvseeeDK2mKIV+Ojr1DPPDb169Qprr7FaOPCA/cM3VloxtjkMVD6BPn16h68uvXQqib/19jupzGvSfAsksXo+bdq08PwLL+UbRvQECHQo4Bz0Dlk8SSB/Aq++9noiQSfxh0UigeZs0Fl79gzf2WLz1KP+T+V9s/Oe+4fv7rJniLM5nzGxyZMnh1v/dmfYdKvtwk577Beeefa5GTfxO4GaBFZaYfkQ3Qay1Y8PJkwIEyZMbPW05iuAQPRBd9yPUaPHuDhc3KjGI5ARAQ16RgohDALNClT/Z11pguJ+pHWuZ9x5ZG28aBW5X7++qYZ1xdXXhVXX2zTcOPK2lsZx0623h7U2HhZ+8NODwmuVQ+Q9CNQjsEpKR2C8+dbb9YRpWwKfC8yRwF0HkvpQ/vOg/UCAQGoCGvTU6E1MIF6B6HC31994M95BK6O1tbXFPqYBQ9hg3bVTZfjLGWeH/X/y8xCtbKfxmDp1arj0yqvDymtvFM6+4OI0QjBnTgVW/cZKqUSuQU+FvRCTztIW/5/b0dFPHgQIFFMg/n8xiukkKwK5EIgu2OWRD4H1KxdOS+vx+z8dH35z5B9D9KFO2o+PP/kk/PyQw8IpZ56Tdijmz4HALLPMElZacflUItWgp8Ju0k4ErKB3AuNpAgUQ0KAXoIhJpDAtTBuexLjGTFbgnVGjk53A6LEI9JpttvDVrywVy1j1DnLP/Q+GY086td7dEt/+10f8IRx/8mmJz2OCfAtEzXn/fv1SSUJDlAq7STsRiE5r8yBAoJgCGvRi1rXprMa+/uIZlQObRzQ9kAFaKjA1AyuiLU04p5MttuiXQrQS2OrHhx9OCj/62a8ysXLeUe5HHn1sOPq4Ezt6yXMEqgJ775benQ+efPoZVSCQGYEsHAGVGYycBGLxKyeFykCYrf8LMQNJC4EAAQJpCiw+dNFUpo9WqLN+3uLRx58Urhl+Qyo+Js22wHzzzhO2+NamqQX5xL+eTm1uExMgkG+BaNErWvzKdxaib5WABr1V0uYhQIDAfwWWHDq05RbRasvlV1/b8nkbmXDMu2Mb2c0+BRfYc9edQnR7wjQe744dF5yDnoa8OQkQIFA+AQ16+WouYwIEUhZYcIH5Wh7Bw48+lshV/lueiAlLKTD77LOH3XbeIbXcn3zK6nlq+CYmQIBAyQQ06CUruHQJEEhfoG/f1t///Lobb04/cREQaFBgu623DHMNnLPBvZvfzeHtzRsagQABAgRqE9Cg1+ZkKwIECMQm0Ldvn9jGqnWg5194qdZNbVdAgba2yhmQOX3MM/eQ8JuDDkw1+kf+8Xiq85ucAAECBMojoEEvT61lSoBARgT6pbCC/s6oURnJXhhpCKyy0tfDmqutksbUTc958rF/THX1/JMpU8Kd997XdB4GIECAAAECtQho0GtRsg0BAgRiFOjbp/Ur6G+/o0GPsYS5G6pnzx7h3NNOCgstuECuYo8uDLfBumunGvNDDz8aJkyYmGoMJidAgACB8gho0MtTa5kSIJARgckff9zySN5/f3zL5zRhtgQGzTUwXHLOaSH6nodHdDvCI359UOqh3nbHXanHIAACBAgQKI+ABr08tZYpAQIZEZg4sfWrcUOGDM5I9sJIU2CZpZcKI666JMw7z9xphtHt3P379QtnnnR86N27d7fbJr3BbXfcnfQUxidAgAABAp8LaNA/p/DDjALTwrThMz7ndwIEmhdI43DZ+eadp/nAjVAIgS8vsXi46ZrLw9DFFs1kPtHV2q+9/ILwtWWXST2+N958Kzz972dTj0MABAgQIFAeAQ16eWpdd6ZjX3/xjMp1f0fUvaMdCBDoUmDihx92+XoSL86X8RXTJHI2ZucCiyy0YLjjhmvCtt/5ducbpfBKdMX2G/56aVhhuWVTmH3mKa+85vqZn/QMAQIE6hSw6FUnWMk316CX/A0gfQIEWi8wavSYlk+66sortXxOE2ZboF+/vuG0//1z+MtxR4fo57Qf0YcG0cp+tMKflcfFV/w1K6GIgwCBnApEi13RoldOwxd2CgIa9BTQTUmAQLkFnn+x9fck32qLb4VZZvFPfrnfeR1nv8N3vxMevee2sNO2W4e07pe+yYbrVZvzLy28UMdBpvDsA39/JLz40sspzGxKAgQIECizgL/Wylx9uRMgkIrAcy+82PJ5o4uC5eU+2Gk1iS0vSoYmHDJ4cDipcr/x20b8taXvk+g8+CsuOCtceu4Zmbtw3cWXXZmhCgmFAAECBMoioEEvS6XlSYBAZgSef6H1K+hR8j/5wb6ZMegskNW+sVLYYZvvdPay5xMWiM79vv6Ki8LtN1wdthr2rdCjR49EZowOqT/8kIPCfbfdEDZcb51E5mhm0OhCjtfecFMzQ9iXAAECBAg0JNCzob3sRIAAAQINC3wwYUJ45dXXQqsP5113rTXC7rvsEM698NKGY09yx7XXWK2yknp6Jm6tlWSeeRg7atTPPuWE8Nrrb4S/XjciDL/xlvDYE082FXp0y7T1114zbLbJhmHTjTYIA+eco6nxktz5nAsvCR9+OCnJKYxNgAABAgQ6FNCgd8jiSQIECCQr8Le77gl77LJjspN0MPqRv/5VuPPu+8LL/3m1g1fTe2r9ddYKF599aujVq1d6QZh5JoGFFlygeuRFdPTF62+8GW79213h8Sf/FZ7819PhmWefC5M//nimfaInes02WxgyZHCYu/K19JJLhG9WmvKoOZ999tk73D5LT06aNCmcfPpZWQpJLAQIECBQIgENeomKLVUCBLIjcPsdd6fSoPfp0ztcd/mF4bu77Bmeff6FTIBsutH64dzTTqo2dZkISBAdCiy4wPzVIzCmvzhlyqdh7Lix4b33x4f3K18ff/JJGDJ4ULUpn3OO7K6OT4+/s+/R6vmYd8d29rLnCRAgQIBAogIa9ER58z/4Z/dtbNs8/5nIgEC2BO6+/4FqQzPbrLO2PLCo0br52svDznvuH+578O8tn3/6hPPNO0846H8OCDttt01i5zpPn8v3+AV69uxRacaHVL/iHz2dET/66KNw4qlWz9PRNysBAgQIRAIuEud90KVAdN/G6P6NXW7kRQIE6haYOPHDMPL2O+reL64d5hgwIFx18bnhoJ/+qOWHHUerq4cd/Ivqrb123XE7zXlcRTVO0wJnX3BxGD1mTNPjGIAAAQLTBT5b7Jr+m+8EuhfQoHdvZAsCBAgkInDGORckMm6tg0bnCUcr2A/fNbJ6xe5a92t0u+giYdG5zI/d/7fwo/33bvkHA43Gbb9yCLz19jvh6ONPKkeysiRAoCUC0SJXtNjVkslMUhgBh7gXppQSIUAgbwL3PvBQeOqZf4dlll4q1dAXmH++6hW7f1lZTb/kyr+Gy/96bXj7nVGxxLTYlxYJ0QXgoq+1Vl819O3bJ5ZxDUIgboFfHnpEiG6v5kGAAAECBNIU0KCnqW9uAgRKL3DqmeeGk487OhMOSyy+WPjtr34efv2Ln4Z7738oPPjwI9Vbaz32zycrh/2+22WMs8wySxg018AweNCgEDXl662zZrUpb/Wt5LoM0osEOhG4+da/heE3jezkVU8TIECAAIHWCWjQW2dtJgIECMwkcFlltTo6D/sbK60402tpPdGjR4+wzlqrV7+mxxA16OPee696te73x4+v3iN6zsp9rKOrdkdNedScR026B4G8CUTXg/jFbw7PW9jiJUCAAIGCCmjQC1pYaREgkA+BqVOnhh//4pBw1y3XhzSu6F6rUtSIR18eBIom8JODDqne471oecmHAAECBPIpYLkjn3VradSuPtlSbpOVUCC6H/lxJ55SwsylTCBdgdPOPj/89To3Kkm3CmYnQIAAgfYCGvT2Gn7uUMCt1jpk8SSBWAWOP/m08Myzz8U6psEITBd4/Ml/VS9IOP1330P1GguHHvUHFAQIEEhMwCJXYrSFHliDXujySo4AgbwIfDJlSvjRzw8O0SHvHgTiFoiuTr79bvuEd0aNjnvoXI4X3aVgt31/FKZM+TSX8QuaAIHsC7jFWvZrlNUINehZrYy4CBAoncCjj/0znF455Lbsj8kff1x2gkTyf+PNt8KOu+8bPvq/9u4E2rKqPBDwLkFdaZHBAnGoNjFWq7HTybJtY2sLtAyKQqmoUXHCgKBi4hCJrtZE0yZEcW5ssS2zNLaRiIoDhTQgo4oKiBpBBKUYwgOFGoDIJFTx+p5HXlHDG+6wzzl7+N5atarefefs/f/ff+Hd/+59zr3zzlbGz2XQNWvXhue99JXhxjXerMilZuIkQIBATQIa9JqqLVcCBJIXePffHRNO+sapycfZVoCrTjktHH/CiW0NX/24P/rJxeG1b3xrmJ6ertJi3fqbwvNe8qrwiyuurDJ/SRMgQIBA+gIa9PRrJEICBCoSaLbcvuZP3xxOPrW+z2Q+5fQzwmve8OawYeOGiirefarN532/8aj/ETZurGt790033xIOOvhV4bKf/6J7dDMSIECAAIEhBTToQ0LVfpibXNT+DJB/lwJNk37Y698Umoa1lq/Tzjg7HPq6N4bmWnxf7Qt8/osnhkOPfFO46+67258sgRn+Zeq6sOKPXx4uufSyBKIRAgECBAgQmF9Agz6/jZ9sJuBO7pth+CeBDgSaRrVpWJvGtfSv4z716fCK17y+mmYxlXo2lxMcPLhx3B133JFKSK3Ecd73Lwj7HHBQuPSyy1sZ36AECBCYS8Di1lwqHhtGQIM+jJJjCBAg0INAs7p5yBFvKLZJbxrDw//0LeEv3/Pe6rZb9/B0mnPKs7/1nfD8gw8JzV3NS/z6zOf+KbxgkF9z7bkvAgQIdCXgDu5dSZc5jwa9zLrKigCBQgSaJv1lh742vOOv/7aolc7mOuBnPu/F4cSvn1xIpfJN48KLfhT2eOaB4fQzz8k3ia0ibxryI/7sz8Nb3/Eul01sZeNbAgQIEEhbQIOedn1ER4AAgZk7bv+fwcev7fms54bzL7woa5Fm1fw97/tg2GuQy09/5nrgVIrZNLQvffXh4Z3/8+jsLzVo3vR56t77hy9/bVUqvOIgQIAAAQJDC2jQh6ZyIIE6BZYsGWzU8pWEwOqrrg4HvOhlM1vCf/Ob3yQR0yhBNNfTP3XvZ4ePfvyTVjVHgevw2E/8/T+E/Va8MHzvgh90OGucqa65dmrmTYbmsom169bHGdQoBAgQIECgYwENesfgOU/nZhfpV++2226LHuQOD3pQ9DENOL7APffcE5qbqu3xrBXh3O98d/yBOjzzm2edE57zgoPDwX9yRGjupu0rbYGLf/qzcMALDw6vOOz14YrVV6Ud7CC6pjF/09veGf5oz/2K2qafPLwAhxZ48IN3GPrYYQ9s4/f9sHM7jgCBdgU06O36FjW6O7mnX84bb1wbPchddt45+pgGnFygaZwOGtz8ao9nrgifP+HLIbUV9eYztr9y0smDbfkrwksOOTx8/8L8VmQnr1LeIzQf8/e0fZ89cx130wSn9nXl1deEPxt8nvuT99w3fO6fvmhXRmoFEs8mgTZ+j96wJv7v+00B+8fEAha1JiaseoDtq85e8gQKE7hxbfxf2DvvtGNhSmWl01zH3TQpf/137w+vfvnB4bBDXh4etvtDe0vyxxdfEr701ZPCV0/6RrF3Bu8Nt4eJN2zYGJo7of/DP34hPGPPp4dXv+KlYf999wnbb79dD9GEcOutt4Wvn3Jq+MKXvhK+e/6FM/dn6CUQkxIYQWCXnXca4ejhDr1xzZrhDnRU5wLNHdzXTa1e2fnEJixGQINeTCklQiCENn5hP2z33dFmINDc5OtDHzsuHPuJlWHFc/YP+++3d3j6U5/SerPefF77j//54nDWud8OXx7cnGv1lZNviX77X70nNH98pSMwPT09U+Omzs0bQC9+wfPCvs/YKzzlyU8K99++3ZcSzfXk3x18lvnJp54evnHaGUV9mkFT4f+27wHpFFokrQg8/GHxf4/eaAW9lVoZlEAKAu3+Vk0hQzEQqEigjS3uT37SEysSzD/VpmFutpY3f5qvx/zuo2ca9T2e9pSZvx+6225jJ9k0ab/81Q3h51esDt8f3ESsuZHYhT/8cbjzzjvHHtOJ+Qk0n5l+7Cc+NfPnQQ/6d2HPpz017POMPcMT/+D3w2OXLw/NY+N+NSv211x7bbj0sp+H8753fvjO4M/PLv+5lfJxQZ2XhMAfPek/R42juReJGyFGJTUYgaQENOhJlSP9YO69pmbJgelHWmeEbWxxf8LjHxsevMMO4de33lonauZZNyvazZ/Pfv4LM5n89r9fFnYfrIDutnRp2HXXpYO/H3Lv34N/b7/9/cPtt98++HNHuO322wZ/7gi33HJLuPpfrg1XXnXNzM24UrvWPfPyZB/+bbfdHv7fN8+c+dMk03zqwyMf8fDwuP+wPCz/3d8JO++0U2hukNXcbLL5+wEPeMC9z6/Bec1z7NbB381zrLmefPWVV880502T7otAKQLN78/ff8Ljo6az/qabQ3OfD18ECJQpoEEvs66tZdXcKG7psuUrpkPQpLemPP7Aa9bEvwb9fve7X3jqU/6LuyOPX5akzmxu9pXiDb+SQhLM2ALNLoup666f+XPmOd8aexwnEihFoPn9ud12ce/Z0MblbKV4p5CHG8SlUIW8Y3AX97zrJ3oCWwjcdffd4aabb9nisRjfvOplL4kxjDEIECBAgEBVAoe+8uXR83X9eXTSaAM2N4hrFrOiDWigKgU06FWWXdIlC1zwgx9GT2//ffcOj/7tR0Uf14AECBAgQKBUgccuf0zYb++9oqd3/oUXRR/TgAQIpCOgQU+nFiIhEEXgG6d9M8o4mw/SbHN/05FHbP6QfxMgQIAAAQILCLz1jUfO3JdhgUPG+tEpp58x1nlOIkAgDwENeh51SipK19YkVY5tgjntjLNCc4fX2F+vPPjFYe+99og9rPEIECBAgEBxAs878Nnhjw96bvS8rp26Llz8059FH9eABAikI6BBT6cW2UTSXFvTXGOTTcCVBbpm7bpw4UU/ip51c3fm4z5yTNh1cNdvXwQIECBAgMDcAo9a9sjwv95/9Nw/nPDRU04/c8IRnN6mgEWsNnXrGVuDXk+tZVqRQFvb35rP0D7hs58KD9ll54o0pUqAAAECBIYTWPbIR4Qv/+Nnwo4PfvBwJ4x41CktXMY2YggOn0fADeLmgfHwyAIa9JHJnEAgfYFTTmvv+rQn/uEfhFVf+nzY/aG7pQ8hQgIECBAg0JFAc1O4U796Qlj+mEe3MuPNt9wSvnfBha2MbVACBNIR0KCnUwuREIgmsPqqq8Plv7gi2nhbD/R7j3tsOPfUr4cXPX/F1j/yPQECBAgQqEpg++23C68//E/CGatODI94+MNay/20M84OGzZsbG18AxMgkIaABj2NOmQXhWts0i/Zx1d+utUgm+3uKz/24fD1Ez4XnvPMfcMDH/jAVuczOAECBAgQSElgpx13DC990UGDN6xPCke/6x1hhx0e1Fp409PT4RN//5nWxjfw5AJeG09uaIR7BbYHQWAcgeZGcUuXLV8xHcKB45zvnPYFjv/iieF1hx0SnvD4x7U62R5P+6+h+XPrrbeFs799Xpga3GH2+l/dEG6++ebQvKAY5Wvj4O7zJ5z4tVFOcSwBAgQIEBhJoGmsD3jWviOd0xy8ZPCRo7vtujQ8/GG7h8c8+nfC0we/+x5w//uPPM44JzS/G39yyaXjnOqcDgSa68/XDV4bdzCVKSoQ0KBXUGQp1inQfNTau/72mMHNatpdSZ/VbVYOVjz7mbPfjvX3XXffrUEfS85JBAgQIDCsQLMN/X9/+JhhD+/9uDvvvDMc/YGP9B6HAAgQ6EbAFvdunM1CoBeBs879djj7W9/pZW6TEiBAgAABApMLHPepz4Trrv/l5AMZgQCBLAQ06FmUKc0gXWuTZl22juqv/uZ9oVlN90WAAAECBAjkJbBm7brw0eM+mVfQFUbrNXGFRW8xZQ16i7ilD91ch95cc1N6nrnnd+lll4fmenRfBAgQIECAQF4Cx3z42Jl7vOQVdV3R+vzzuurdRbYa9C6UzUGgZ4F3H31MuPLqa3qOwvQECBAgQIDAsAJnnH1u+OzxJwx7uOMIEChEQINeSCGlQWAhgZtuviW85JDDQ/O3LwIECBAgQCBtgWb326FHvils3Ohzz9OulOgIxBfQoMc3rWpE19zkU+7VV14VXnX4keHuDRvyCVqkBAgQIECgMoEb16wJL331Eba2Z1J3r4UzKVRGYWrQMypWiqG6Dj3Fqswf03nfvyC85W3vnP8APyFAgAABAgR6E2g+Uu1lh74uTF13fW8xmHh4AdefD2/lyOEFNOjDWzmSQBECx3/pK+HDH/tEEblIggABAgQIlCIwPT0dXvfmvwg//PFPSklJHgQIjCGgQR8DzSkEchc4+gMfCR/9uI9tyb2O4idAgACBMgSalfMj3/K2cNI3Ti0jIVkQIDC2gAZ9bDonzgq49mZWIp+/m3fp3/O+Dw6uSX9D+PWtt+YTuEgJECBAgEBhAtdcOxX2P+gl4YQTv1ZYZuWn4zVw+TXuI0MNeh/qhc3pOvR8C3ryqaeHfQ58Qbj8F1fkm4TICRAgQIBApgJnnvOtsPdznh9+csmlmWZQb9iuP6+39m1nvn3bExifAIH7BAb/M0/ua/Xqq8J+K14Yjv3Ae8PzVzyn9/hSNOodRQAEJhRo/rvy39aEiE4vRiCF/xaanWwfOva4cMyHjw333HOP/z6LeXZJhMDkAlbQJzc0AoHsBW677fZw2ODzVt/w528PzVY7XwQIECBAgEA7As1N4A46+JDw3g9+dKY5b2cWoxIgkKuABj3XyiUWt2twEivImOF8YXCH96fsuV94y9v/0ke8jGnoNAIECBAgMJfAP198STj41YfP7Fr79nnfm+sQj2Uk4LVvRsXKLFQNemYFSzVc16GnWpnR47p7w4bwf48/ITx5j33DX7zj3eH6X/5q9EGcQYAAAQIECMwIXHLpZeEVh71+cK35QeH0M8+hUoDA4DKJk5vXvgWkIoUEBVyDnmBRhEQgBYG77r47fPpzx4fPn/Dl8NwD9g/77fOMsPdee4Rddt4phfDEQIAAAQIEkhWYuu768M2zzg2nfvPM0NwIrrnm3BcBAgSGEdCgD6PkmKEE7t3qs+TAoQ52UDYCv7nrrvClr54082e77bYLT3riH4b99t4r7PuM/x7+03/8vbBkSQq328mGU6AECBAgUKDAhg0bw/k/uCiccdY5M435zy7/eYFZSokAgS4ENOhdKFcyR7PVZ+my5SsG7xFr0gut+caNG8MFP/jhzJ+j3/+RsOuuS8Ojlj0yPHS33cLuD91t8PeuYbfBn90H3++8044jN+/NCxxfBAgQIECgTYHbb789nPe980eeornb+rr1N4Ub16wNN6xZE268cfBn8O8b164NV111Tfj1rbeOPKYT8hRw/Xmedcslag16LpUSJ4EEBdauXReaP74IECBAgEAuAs2nlTz3xa/IJVxxJibQXH++zvXniVWlrHDcJK6sesqGAAECBAgQIECAAAECBDIV0KBnWrhUw7blJ9XKiIsAAQIECBAgQGBSAa91JxV0/mICGvTFhPx8JAEftzYSl4MJECBAgAABAgQyEfDxapkUKvMwNeiZF1D4BAgQIECAAAECBAgQIFCGgAa9jDomlYWtP0mVQzAECBAgQIAAAQIRBLzGjYBoiEUFNOiLEjlgVAHb3EcVczwBAgQIECBAgEDKAra3p1ydsmLToJdVT9kQIECAAAECBAgQIECAQKYCPgc908KlHva9W4CWHJh6nOIjQIBAHwLv/8jHwi4779zZ1L+64YbO5jIRAQIEShSwvb3EqqaZ02C3hi8C7QgsXbZ81XQImvR2eI1KgAABAgQIECDQgUCzvX3d1BUrOpjKFASCLe6eBAQIECBAgAABAgQIECBAIAEBDXoCRSg1BFuBSq2svAgQIECAAAECBAgQaENAg96GqjFnBNzN3ROBAAECBAgQIEAgdwGLTrlXMK/4Neh51Uu0BAgQIECAAAECBAh0JODj1TqCNs0mAQ36Jgr/aEPAO45tqBqTAAECBAgQIECAAIESBTToJVY1oZxsc0+oGEIhQIAAAQIECBAYScBi00hcDo4goEGPgGgIAgQIECBAgAABAgTKErC9vax65pKNBj2XSmUcp3ceMy6e0AkQIECAAAECBAgQ6ExAg94Zdb0T2eZeb+1lToAAAQIECBDIVcAiU66VyztuDXre9RM9AQIECBAgQIAAAQKRBWxvjwxquKEFNOhDUzlwEgHvQE6i51wCBAgQIECAAIEuBbx27VLbXJsLDN4c8kWgG4Gly5avmg7hwG5mMwsBAgQIECBAgACB0QWa1fN1U1esGP1MZxCYXMAK+uSGRiBAgAABAgQIECBAgAABAhMLaNAnJjTAsAK2Cg0r5TgCBAgQIECAAIG+BLxm7UvevI2ALe6eB50K2ObeKbfJCBAgQIAAAQIERhCwvX0ELIe2ImAFvRVWgxIgQIAAAQIECBAgQIAAgdEENOijeTl6QgFbhiYEdDoBAgQIECBAgEBrAl6rtkZr4CEFbHEfEsph8QRsc49naSQCBAgQIECAAIE4Ara3x3E0ymQCVtAn83P2GALemRwDzSkECBAgQIAAAQKtCniN2iqvwYcUsII+JJTD4gpYRY/raTQCBAgQIECAAIHxBayej2/nzLgCVtDjehqNAAECBAgQIECAAAECBAiMJaBBH4vNSZMK2EI0qaDzCRAgQIAAAQIEYgl4bRpL0jiTCtjiPqmg88cWsM19bDonEiBAgAABAgQIRBKwvT0SpGGiCFhBj8JokHEEvFM5jppzCBAgQIAAAQIECBAoVUCDXmplM8hr/dTqlc07lhmEKkQCBAgQIECAAIFCBSwaFVrYTNPSoGdaOGETIECAAAECBAgQIDCZQLNY1CwaTTaKswnEE9Cgx7M00hgC3rEcA80pBAgQIECAAAECUQS8Fo3CaJCIAm4SFxHTUOMJuFnceG7OIkCAAAECBAgQGF/AzeHGt3NmewJW0NuzNfKQAt65HBLKYQQIECBAgAABAtEEvAaNRmmgiAJW0CNiGmp8Aavo49s5kwABAgQIECBAYDQBq+ejeTm6OwEr6N1Zm4kAAQIECBAgQIAAAQIECMwroEGfl8YPuhSwxahLbXMRIECAAAECBOoW8Nqz7vqnnL0t7ilXp7LYbHOvrODSJUCAAAECBAj0IGB7ew/ophxawAr60FQObFvAO5ltCxufAAECBAgQIEDAa07PgZQFrKCnXJ0KY7OKXmHRpUyAAAECBAgQ6EjA6nlH0KYZW8AK+th0TmxDwDuabagakwABAgQIECBAoBHwWtPzIHUBK+ipV6jC+KyiV1h0KRMgQIAAAQIEWhawet4ysOGjCFhBj8JokJgC3tmMqWksAgQIECBAgAABAgRyEdCg51KpiuJcP7V6ZfMOZ0UpS5UAAQIECBAgQKBlAYtALQMbPoqABj0Ko0EIECBAgAABAgQIEEhVoFn8aRaBUo1PXARmBTTosxL+TkrAO5xJlUMwBAgQIECAAIGsBby2zLp8VQXvJnFVlTuvZN0sLq96iZYAAQIECBAgkKKAm8OlWBUxzSdgBX0+GY/3LuCdzt5LIAACBAgQIECAQPYCXlNmX8KqErCCXlW580vWKnp+NRMxAQIECBAgQCAVAavnqVRCHMMKWEEfVspxvQh4x7MXdpMSIECAAAECBIoQ8FqyiDJWlYQV9KrKnWeyVtHzrJuoCRAgQIAAAQJ9Clg971Pf3OMKWEEfV855nQl457MzahMRIECAAAECBIoR8BqymFJWlYgV9KrKnW+yVtHzrZ3ICRAgQIAAAQJdC1g971rcfLEErKDHkjROqwLeAW2V1+AECBAgQIAAgaIEvHYsqpxVJWMFvapy552sVfS86yd6AgQIECBAgEAXAlbPu1A2R1sCVtDbkjVudAHvhEYnNSABAgQIECBAoDgBrxmLK2lVCVlBr6rc+SdrFT3/GsqAAAECBAgQINCWgNXztmSN25WAFfSupM0TRcA7olEYDUKAAAECBAgQKFLAa8Uiy1pVUlbQqyp3GclaRS+jjrIgQIAAAQIECMQUsHoeU9NYfQlYQe9L3rxjC3hndGw6JxIgQIAAAQIEihXwGrHY0laVmBX0qspdTrJW0cuppUwIECBAgAABApMKWD2fVND5qQhYQU+lEuIYScA7pCNxOZgAAQIECBAgULSA14ZFl7eq5KygV1XuspK1il5WPWVDgAABAgQIEBhHwOr5OGrOSVXACnqqlRHXogLeKV2UyAEECBAgQIAAgeIFvCYsvsRVJWgFvapyl5esVfTyaiojAgQIECBAgMCwAlbPh5VyXC4CVtBzqZQ45xTwjumcLB4kQIAAAQIECFQh4LVgFWWuKkkr6FWVu8xkraKXWVdZESBAgAABAgQWErB6vpCOn+UqYAU918qJe5OAd043UfgHAQIECBAgQKAaAa8Bqyl1VYluV1W2ki1S4I5/vemi39pxl1+GsGRFkQlKigABAgQIECBAYAuBZvV8/dTqo7Z40DcEChCwgl5AEaUQwuB/0Cub/1GzIECAAAECBAgQKF/A6nn5Na41Qw16rZUvMG//oy6wqFIiQIAAAQIECGwjMP3aZnFmm4c9QKAAATeJK6CIUrhPwA3j7rPwLwIECBAgQIBAaQJuDFdaReWztYAV9K1FfJ+1gFX0rMsneAIECBAgQIDAggJe6y3I44cFCFhBL6CIUthSwCr6lh6+I0CAAAECBAiUIGD1vIQqymExASvoiwn5eXYC3lnNrmQCJkCAAAECBAgsKuA13qJEDihAwAp6AUWUwrYCVtG3NfEIAQIECBAgQCBXAavnuVZO3KMKWEEfVczxWQh4hzWLMgmSAAECBAgQIDCUgNd2QzE5qACB7QrIQQoEthG4419vuui3dtzllyEsWbHNDz1AgAABAgQIECCQkYCPVcuoWEKdUMAW9wkBnZ62gK3uaddHdAQIECBAgACBhQRsbV9Ix89KFLDFvcSqymmTgO1Qmyj8gwABAgQIECCQnYDXctmVTMATClhBnxDQ6ekLWEVPv0YiJECAAAECBAhsLWD1fGsR39cgYAW9hipXnqN3Xit/AkifAAECBAgQyFLAa7gsyyboCQXcJG5CQKenL+CGcenXSIQECBAgQIAAgS0F3BhuSw/f1SJgi3stlZZnsNXdk4AAAQIECBAgkL6Are3p10iE7QnY4t6erZETE7BNKrGCCIcAAQIECBAgMIeA12xzoHioGgFb3KsptURtdfccIECAAAECBAikLdCsnq+fWn1U2lGKjkB7AlbQ27M1coICg//hr2z+x59gaEIiQIAAAQIECFQvYPW8+qdA9QAa9OqfAvUB+B9/fTWXMQECBAgQIJCDgBvD5VAlMbYr4CZx7foaPVEBN4xLtDDCIkCAAAECBKoUcGO4Kssu6TkErKDPgeKh8gWsopdfYxkSIECAAAEC+Qh4bZZPrUTaroCbxLXra/REBdwwLtHCCIsAAQIECBCoUMDW9gqLLuV5BGxxnwfGw3UI2OpeR51lSYAAAQIECKQpYGt7mnURVX8Ctrj3Z2/mBARsp0qgCEIgQIAAAQIEqhXwWqza0kt8HgFb3OeB8XAdAra611FnWRIgQIAAAQIpCtjanmJVxNSvgC3u/fqbPREBW90TKYQwCBAgQIAAgSoEbG2vosySHEPAFvcx0JxSnoDtVeXVVEYECBAgQIBAugJee6VbG5H1K2CMLQ7cAAAefUlEQVSLe7/+Zk9EwFb3RAohDAIECBAgQKACAVvbKyiyFMcUsMV9TDinlSlgq3uZdZUVAQIECBAgkIaAre1p1EEU6QrY4p5ubUTWg4DtVj2gm5IAAQIECBCoRsBrrWpKLdExBWxxHxPOaWUK2OpeZl1lRYAAAQIECKQgYGt7ClUQQ9oCtrinXR/R9SRgq3tP8KYlQIAAAQIEihSwtb3IskqqBQFb3FtANWT+ArZf5V9DGRAgQIAAAQLpCHhtlU4tRJK2gC3uaddHdD0J2OreE7xpCRAgQIAAgQIFbG0vsKhSaknAFveWYA1bhoCt7mXUURYECBAgQIBAPwK2tvfjbtZ8BWxxz7d2Iu9AwHasDpBNQYAAAQIECBQr4LVUsaWVWEsCtri3BGvYMgRsdS+jjrIgQIAAAQIE+hCwtb0PdXPmLaBBz7t+ou9AQJPeAbIpCBAgQIAAgcIENOeFFVQ6HQm4Br0jaNPkL+B69PxrKAMCBAgQIECgfQHXnbdvbIZyBVyDXm5tZRZZwDVUkUENR4AAAQIECBQp4DVTkWWVVEcCtrh3BG2a/AVsdc+/hjIgQIAAAQIE2hawtb1tYeOXLaBBL7u+sossoEmPDGo4AgQIECBAoBiBZmv7+qnVRxWTkEQI9CBgi3sP6KbMW2Dwi2dl8wso7yxET4AAAQIECBCIK2Bre1xPo9UpoEGvs+6ynlDAL6AJAZ1OgAABAgQIFCZga3thBZVOTwK2uPcEb9q8BWx1z7t+oidAgAABAgRiCmjOY2oaq24BDXrd9Zf9BAKa9AnwnEqAAAECBAgUIeC68yLKKImEBGxxT6gYQslPwPXo+dVMxAQIECBAgEA8AZf9xbM0EoFGQIPueUBgQgG/mCYEdDoBAgQIECCQqYCt7ZkWTtgJC9jinnBxhJaHgK3uedRJlAQIECBAgEBMAc15TE1jEZgV0KDPSvibwAQCmvQJ8JxKgAABAgQIZCagOc+sYMLNSGBwXwdfBAjEEli6bPmq6RAOjDWecQgQIECAAAECKQk0N4VbN3XFipRiEguBkgRcg15SNeXSu4Dr0XsvgQAIECBAgACBFgW81mkR19AEBgK2uHsaEIgoYKt7RExDESBAgAABAokJ2NqeWEGEU6CABr3AokqpXwFNer/+ZidAgAABAgTaENCct6FqTAJbC2jQtxbxPYEIApr0CIiGIECAAAECBBIR0JwnUghhVCCgQa+gyFLsR0CT3o+7WQkQIECAAIF4As1N4dZPrT4q3ohGIkBgIQE3iVtIx88ITCgw+IW2svnFNuEwTidAgAABAgQI9CLgpnC9sJu0YgENesXFl3o3An6xdeNsFgIECBAgQCC2gK3tsUWNR2AxAVvcFxPycwITCtjqPiGg0wkQIECAAIEeBDTnPaCbkoCPWfMcINCFgCa9C2VzECBAgAABAnEENOdxHI1CYHQBK+ijmzmDwFgCmvSx2JxEgAABAgQIdCqgOe+U22QEthLQoG8F4lsCbQpo0tvUNTYBAgQIECAwiYA7tk+i51wCcQTcJC6Oo1EIDC3gzu5DUzmQAAECBAgQ6FDAjW07xDYVgXkENOjzwHiYQJsCfgG2qWtsAgQIECBAYHQBW9tHN3MGgfgCtrjHNzUigUUFbHVflMgBBAgQIECAQGcCmvPOqE1EYBEBDfoiQH5MoC0BTXpbssYlQIAAAQIEhhfQnA9v5UgC7Qto0Ns3NgOBeQU06fPS+AEBAgQIECDQuoDmvHViExAYUUCDPiKYwwnEFtCkxxY1HgECBAgQILC4gOZ8cSNHEOheQIPevbkZCWwjoEnfhsQDBAgQIECAQGsCmvPWaA1MYEIBDfqEgE4nEEtAkx5L0jgECBAgQIDA/AKa8/lt/IRA/wIa9P5rIAICmwQ06Zso/IMAAQIECBCILLAkhJPXT60+KvKwhiNAIKKAz0GPiGkoAjEEBr84Vza/QGOMZQwCBAgQIECAwKzAdJheNftvfxMgkKaABj3NuoiqcgG/QCt/AkifAAECBAhEF7C1PTqpAQm0IGCLewuohiQwqYCt7pMKOp8AAQIECBC4T0Bzfp+FfxFIW0CDnnZ9RFexgCa94uJLnQABAgQIRBPQnEejNBCBDgQ06B0gm4LAuAKa9HHlnEeAAAECBAiEoDn3LCCQm4AGPbeKibc6AU16dSWXMAECBAgQiCCgOY+AaAgCnQto0DsnNyGB0QU06aObOYMAAQIECNQroDmvt/Yyz11Ag557BcVfjYAmvZpSS5QAAQIECEwgoDmfAM+pBHoX0KD3XgIBEBheQJM+vJUjCRAgQIBAfQKa8/pqLuPSBDTopVVUPsULaNKLL7EECRAgQIDAGAKa8zHQnEIgOQENenIlERCBxQU06YsbOYIAAQIECNQjoDmvp9YyLV1Ag156heVXrIAmvdjSSowAAQIECIwgoDkfAcuhBJIX0KAnXyIBEphfQJM+v42fECBAgACB8gU05+XXWIa1CWjQa6u4fIsT0KQXV1IJESBAgACBIQQ050MgOYRAdgIa9OxKJmAC2wpo0rc18QgBAgQIEChXQHNebm1lVruABr32Z4D8ixHQpBdTSokQIECAAIEFBDTnC+D4EYHsBTTo2ZdQAgTuE9Ck32fhXwQIECBAoDwBzXl5NZURgS0FNOhbeviOQPYCmvTsSygBAgQIECAwh4DmfA4UDxEoTkCDXlxJJUQgBE26ZwEBAgQIEChJQHNeUjXlQmAhAQ36Qjp+RiBjAU16xsUTOgECBAgQ2CSgOd9E4R8EKhDQoFdQZCnWKzDbpC8JS5YMFB5br4TMCRAgQIBAjgKa8xyrJmYCkwg0L9p9ESBQgcBDlj3miBCWfLKCVKVIgAABAgSyFhi8QD95OkyvWj+1emXWiQieAIGRBTToI5M5gUC+Apr0fGsncgIECBCoRcCqeS2VlieBuQRscZ9LxWMEChWY3fI+WElfUWiK0iJAgAABAhkLaM4zLp7QCUQR0KBHYTQIgXwENOn51EqkBAgQIFCTgOa8pmrLlcB8Ahr0+WQ8TqBgAU16wcWVGgECBAhkKKA5z7BoQibQioAGvRVWgxJIX0CTnn6NREiAAAECNQhozmuoshwJDCugQR9WynEEChTQpBdYVCkRIECAQEYCmvOMiiVUAp0IaNA7YTYJgXQFZpt0n5Webo1ERoAAAQIlCmjOS6yqnAhMKuBj1iYVdD6BggR8DFtBxZQKAQIECCQp4DPOkyyLoAgkI6BBT6YUAiGQhoAmPY06iIIAAQIEShSwal5iVeVEIKaALe4xNY1FoACB2S3vPiu9gGJKgQABAgQSEtCcJ1QMoRBIVkCDnmxpBEagPwFNen/2ZiZAgACBEgU05yVWVU4E2hDQoLehakwCBQho0gsoohQIECBAIAEBzXkCRRACgWwENOjZlEqgBLoXmG3S3eG9e3szEiBAgEDeAs3N4EKY/tD6qdUr885E9AQIdCngJnFdapuLQMYCbh6XcfGEToAAAQIdC1g17xjcdASKEbCCXkwpJUKgXYHZ1XQ3j2vX2egECBAgkLuA5jz3CoqfQJ8CGvQ+9c1NIDMBTXpmBRMuAQIECHQsoDnvGNx0BIoT0KAXV1IJEWhXYLZJd116u85GJ0CAAIF8BFxvnk+tREogdQHXoKdeIfERSFjAdekJF0doBAgQINCRgFXzjqBNQ6AKASvoVZRZkgTaEZhdTXddeju+RiVAgACB1AU056lXSHwEchPQoOdWMfESSExgtkm35T2xwgiHAAECBFoW0Jy3DGx4AlUK2OJeZdklTaAdAVve23E1KgECBAikI9Bcbz4dplf5fPN0aiISAiUJaNBLqqZcCCQgoElPoAhCIECAAIGWBKyatwRrWAIE/k3AFndPBQIEogrMbnl3XXpUVoMRIECAQO8CmvPeSyAAAhUIaNArKLIUCXQtMNukuy69a3nzESBAgEBsgWZLewjTH7KlPbas8QgQmEvAFve5VDxGgEA0AVveo1EaiAABAgQ6F7Bq3jm5CQlULmAFvfIngPQJtC1gNb1tYeMTIECAQDsCmvN2XI1KgMBCAlbQF9LxMwIEogpYTY/KaTACBAgQaEGg2dLuLu0twBqSAIGhBDToQzE5iACBWAKa9FiSxiFAgACB+AJWzeObGpEAgVEEbHEfRcuxBAhMLGDL+8SEBiBAgACByALNqrkbwUVGNRwBAmMJWEEfi81JBAjEELCaHkPRGAQIECAwmYBV88n8nE2AQEwBK+gxNY1FgMBIAlbTR+JyMAECBAhEFLBqHhHTUAQIRBOwgh6N0kAECEwiYDV9Ej3nEiBAgMBoAlbNR/NyNAECXQlYQe9K2jwECCwoYDV9QR4/JECAAIFoAprzaJQGIkAguoAV9OikBiRAYFIBq+mTCjqfAAECBLYWaLa0+/i0rVV8T4BAagJW0FOriHgIEAhW0z0JCBAgQCCuwMyq+VHN75e44xqNAAECcQWsoMf1NBoBApEFrKZHBjUcAQIEKhKwal5RsaVKoBABDXohhZQGgZIFmiZ9SViyYjqEA0vOU24ECBAgEEdAYx7H0SgECHQvoEHv3tyMBAiMKWA1fUw4pxEgQKAqATeBq6rckiVQmIBr0AsrqHQIlCzg2vSSqys3AgQITCbQrJqHMP2h9VOrV042krMJECDQn4AV9P7szUyAwAQCVtMnwHMqAQIEihOwal5cSSVEoFIBK+iVFl7aBHIXsJqeewXFT4AAgckFrJpPbmgEAgTSErCCnlY9REOAwBgCbiI3BppTCBAgkL2AVfPsSygBAgS2EdCgb0PiAQIEchWw7T3XyombAAECwws0q+bTYXqVa82HN3MkAQL5CGjQ86mVSAkQGELAavoQSA4hQIBAhgIa8wyLJmQCBEYW0KCPTOYEAgRyENCo51AlMRIgQGBYAdvZh5VyHAECeQto0POun+gJEFhEwLb3RYD8mAABAgkLWDVPuDhCI0CgFQENeiusBiVAICUBq+kpVUMsBAgQWFxAY764kSMIEChTQINeZl1lRYDAHAIa9TlQPESAAIGEBDTmCRVDKAQI9CKgQe+F3aQECPQpoFHvU9/cBAgQmE/AdebzyXicAIF6BDTo9dRapgQIbCXg+vStQHxLgACBHgSsmveAbkoCBJIV0KAnWxqBESDQhYDV9C6UzUGAAIFtBTTm25p4hAABAhp0zwECBAgMBDTqngYECBDoRkBj3o2zWQgQyFNAg55n3URNgEBLAhr1lmANS4BA9QIa8+qfAgAIEBhCQIM+BJJDCBCoT0CjXl/NZUyAQDsCGvN2XI1KgECZAhr0MusqKwIEIglo1CNBGoYAgeoENObVlVzCBAhEENCgR0A0BAEC5Qto1MuvsQwJEIgjoDGP42gUAgTqFNCg11l3WRMgMKaARn1MOKcRIFC8gMa8+BJLkACBDgQ06B0gm4IAgfIENOrl1VRGBAiMJ6AxH8/NWQQIEJhLQIM+l4rHCBAgMKSARn1IKIcRIFCcgMa8uJJKiACBBAQ06AkUQQgECOQvoFHPv4YyIEBgOAGN+XBOjiJAgMA4Ahr0cdScQ4AAgXkENOrzwHiYAIHsBTTm2ZdQAgQIZCCgQc+gSEIkQCA/AY16fjUTMQECcwtozOd28SgBAgTaENCgt6FqTAIECPybgEbdU4EAgVwFNOa5Vk7cBAjkLKBBz7l6YidAIBuB2Ua9CXg6hAOzCVygBAhUJ6Axr67kEiZAICEBDXpCxRAKAQJ1CMw26xr1OuotSwI5CDRNeRPndJhetX5q9cocYhYjAQIEShTQoJdYVTkRIJCFgEY9izIJkkDRAlbLiy6v5AgQyFBAg55h0YRMgEBZAhr1suopGwI5CGjMc6iSGAkQqFFAg15j1eVMgECSArONehOc7e9JlkhQBLIWaJryJgHb2LMuo+AJEChcQINeeIGlR4BAngKzzbpGPc/6iZpASgJWy1OqhlgIECCwsIAGfWEfPyVAgECvArONehOEZr3XUpicQFYCVsuzKpdgCRAgsElAg76Jwj8IECCQtsBss65RT7tOoiPQp4DV8j71zU2AAIHJBTTokxsagQABAp0KzDbqzaSa9U7pTUYgSQGr5UmWRVAECBAYS0CDPhabkwgQIJCGgGY9jTqIgkDXApryrsXNR4AAgW4ENOjdOJuFAAECrQvMNutW1VunNgGB3gSaxtxd2HvjNzEBAgRaF9Cgt05sAgIECHQrMNuoN7Nq1ru1NxuBNgSslrehakwCBAikKaBBT7MuoiJAgEAUAc16FEaDEOhcQFPeObkJCRAgkISABj2JMgiCAAEC7Qto1ts3NgOBSQQ05ZPoOZcAAQJlCGjQy6ijLAgQIDCSgGZ9JC4HE2hNQFPeGq2BCRAgkKWABj3LsgmaAAEC8QQ06/EsjURgGAFN+TBKjiFAgECdAhr0OusuawIECMwpsHmz3hzgJnNzMnmQwEgCsw15c5I7sI9E52ACBAhUJ6BBr67kEiZAgMDwAps37Jr14d0cSWC2KdeQey4QIECAwCgCGvRRtBxLgACBigU2b9YbBg17xU8GqW8jMNuQNz/QlG/D4wECBAgQGFJAgz4klMMIECBAYEuBzRt2zfqWNr6rQ2C2KdeQ11FvWRIgQKALAQ16F8rmIECAQOECmzfrTaoa9sILXml6sw35vc/x6VXrp1avrJRC2gQIECDQkoAGvSVYwxIgQKBmAQ17zdUvJ3cNeTm1lAkBAgRyEdCg51IpcRIgQCBjAQ17xsWrKHQNeUXFlioBAgQSFdCgJ1oYYREgQKBkga0b9iZX2+JLrnh6uW3ejN/7/LNlPb0qiYgAAQL1CWjQ66u5jAkQIJCkgKY9ybIUEZRmvIgySoIAAQJVCGjQqyizJAkQIJCngKY9z7r1GbVmvE99cxMgQIDApAIa9EkFnU+AAAECnQpo2jvlTnoyzXjS5REcAQIECIwhoEEfA80pBAgQIJCWwFxN+2yErm2flcj3760b8SYTnz2ebz1FToAAAQLzC2jQ57fxEwIECBAoQEDznkcR52rCm8g14nnUT5QECBAgEEdAgx7H0SgECBAgkKHAQs17k47V9zhFna/5nh1dEz4r4W8CBAgQqF1Ag177M0D+BAgQIDCvwGIN/OyJtTbyizXejY/me/ZZ4m8CBAgQILC4gAZ9cSNHECBAgACBBQWGbeQXGqSPJn+YBnu+mDXe88l4nAABAgQIjC+gQR/fzpkECBAgQCCaQIwmf5RgNNijaDmWAAECBAgQIECAAAECBAgQIECAAAECBAgQIECAAAECBAgQIECAAAECBAgQIECAAAECBAgQIECAAAECBAgQIECAAAECBAgQIECAAAECBAgQIECAAAECBAgQIECAAAECBAgQIECAAAECBAgQIECAAAECBAgQIECAAAECBAgQIECAAAECBAgQIECAAAECBAgQIECAAAECBAgQIECAAAECBAgQIECAAAECBAgQIECAAAECBAgQIECAAAECBAgQIECAAAECBAgQIECAAAECBAgQIECAAAECBAgQIECAAAECBAgQIECAAAECBAgQIECAAAECBAgQIECAAAECBAgQIECAAAECBAgQIECAAAECBAgQIECAAAECBAgQIECAAAECBAgQIECAAAECBAgQIECAAAECBAgQIECAAAECBAgQIECAAAECBAgQIECAAAECBAgQIECAAAECBAgQIECAAAECBAgQIECAAAECBAgQIECAAAECBAgQIECAAAECBAgQIECAAAECBAgQIECAAAECBAgQIECAAAECBAgQIECAAAECBAgQIECAAAECBAgQIECAAAECBAgQIECAAAECBAgQIECAAAECBAgQIECAAAECBAgQIECAAAECBAgQIECAAAECBAgQIECAAAECBAgQIECAAAECBAgQIECAAAECBAgQIECAAAECBAgQIECAAAECBAgQIECAAAECBAgQIECAAAECBAgQIECAAAECBAgQIECAAAECBAgQIECAAAECBAgQIECAAAECBAgQIECAAAECBAgQIECAAAECBAgQIECAAAECBAgQIECAAAECBAgQIECAAAECBAgQIECAAAECBAgQIECAAAECBAgQIECAAAECBAgQIECAAAECBAgQIECAAAECBAgQIECAAAECBAgQIECAAAECBAgQIECAAAECBAgQIECAAAECBAgQIECAAAECBAgQIECAAAECBAgQIECAAAECBAgQIECAAAECBAgQIECAAAECBAgQIECAAAECBAgQIECAAAECBAgQIECAAAECBAgQIECAAAECBAgQIECAAAECBAgQIECAAAECBAgQIECAAAECBAgQIECAAAECBAgQIECAAAECBAgQIECAAAECBAgQIECAAAECBAgQIECAAAECBAgQIECAAAECBAgQIECAAAECBAgQIECAAAECBAgQIECAAAECBAgQIECAAAECBAgQIECAAAECBAgQIECAAAECBAgQIECAAAECBAgQIECAAAECBAgQIECAAAECBAgQIECAAAECBAgQIECAAAECBAgQIECAAAECBAgQIECAAAECBAgQIECAAAECBAgQIECAAAECBAgQIECAAAECBAgQIECAAAECBAgQIECAAAECBAgQIECAAAECBAgQIECAAAECBAgQIECAAAECBAgQIECAAAECBAgQIECAAAECBAgQIECAAAECBAgQIECAAAECBAgQIECAAAECBAgQIECAAAECBAgQIECAAAECBAgQIECAAAECBAgQIECAAAECBAgQIECAAAECBAgQIECAAAECBAgQIECAAAECBAgQIECAAAECBAgQIECAAAECBAgQIECAAAECBAgQIECAAAECBAgQIECAAAECBAgQIECAAAECBAgQIECAAAECBAgQIECAAAECBAgQIECAAAECBAgQIECAAAECBAgQIECAAAECBAgQIECAAAECBAgQIECAAAECBAgQIECAAAECBAgQIECAAAECBAgQIECAAAECBAgQIECAAAECBAgQIECAAAECBAgQIECAAAECBAgQIECAAAECBAgQIECAAAECBAgQIECAAAECBAgQIECAAAECBAgQIECAAAECBAgQIECAAAECBAgQIECAAAECBAgQIECAAAECBAgQIECAAAECBAgQIECAAAECBAgQIECAAAECBAgQIECAAAECBAgQIECAAAECBAgQIECAAAECBAgQIECAAAECBAgQIECAAAECBAgQIECAAAECBAgQIECAAAECBAgQIECAAAECBAgQIECAAAECBAgQIECAAAECBAgQIECAAAECBAgQIECAAAECBAgQIECAAAECBAgQIECAAAECBAgQIECAAAECBAgQIECAAAECBAgQIECAAAECBAgQIECAAAECBAgQIECAAAECBAgQIECAAAECBAgQIECAAAECBAgQIECAAAECBAgQIECAAAECBAgQIECAAAECBAgQIECAAAECBAgQIECAAAECBAgQIECAAAECBAgQIECAAAECBAgQIECAAAECBAgQIECAAAECBAgQIECAAAECBAgQIECAAAECBAgQIECAAAECBAgQIECAAAECBAgQIECAAAECBAgQIECAAAECBAgQIECAAAECBAgQIECAAAECBAgQIECAAAECBAgQIECAAAECBAgQIECAAAECBAgQIECAAAECBAgQIECAAAECBAgQIECAAAECBAgQIECAAAECBAgQIECAAAECBAgQIECAAAECBAgQIECAAAECBAgQIECAAAECBAgQIECAAAECBAgQIECAAAECBAgQIECAAAECBAgQIECAAAECBAgQIECAAAECBAgQIECAAAECBAgQIECAAAECBAgQIECAAAECBAgQIECAAAECBAgQIECAAAECBAgQIECAAAECBAgQIECAAAECBAgQIECAAAECBAgQIECAAAECBAgQIECAAAECBAgQIECAAAECBAgQIECAAAECBAgQIECAAAECBAgQIECAAAECBAgQIECAAAECBAgQIECAAAECBAgQIECAAAECBAgQIECAAAECBAgQIECAAAECBAgQIECAAAECBAgQIECAAAECBAgQIECAAAECBAgQIECAAAECBAgQIECAAAECBAgQIECAAAECBAgQIECAAAECBAgQIECAAAECBAgQIECAAAECBAgQIECAAAECBAgQIECAAAECBAgQIECAAAECBAgQIECAAAECBAgQIECAAAECBAgQIECAAAECBAgQIECAAAECBAgQIECAAAECBAgQIECAAAECBAgQIECAAAECBAgQIECAAAECBAgQIECAAAECBAgQIECAAAECBAgQIECAAAECBAgQIECAAAECBAgQIECAAAECBAgQIECAAAECBAgQIECAAAECBAgQIECAAAECBAgQIECAAAECBAgQIECAAAECBAgQIECAAAECBAgQIECAAAECBAgQIECAAIE+BP4/qgHzeLYnXx4AAAAASUVORK5CYII=;" vertex="1" parent="1">
          <mxGeometry x="425" y="167.5" width="35" height="35" as="geometry" />
        </mxCell>
      </root>
    </mxGraphModel>
  </diagram>
</mxfile>
